<?xml version="1.0" encoding="utf-8"?>
<!-- Generator: Adobe Illustrator 23.0.0, SVG Export Plug-In . SVG Version: 6.00 Build 0)  -->
<svg version="1.1" id="Capa_1" xmlns="http://www.w3.org/2000/svg" xmlns:xlink="http://www.w3.org/1999/xlink" x="0px" y="0px"
	 viewBox="0 0 512 512" style="enable-background:new 0 0 512 512;" xml:space="preserve">
<style type="text/css">
	.st0{fill:#6CBD99;}
	.st1{fill:#FBC672;}
	.st2{fill:#FDD9A0;}
	.st3{fill:#FFFFFF;}
	.st4{fill:#B9D480;}
</style>
<title>035 - Creative Thinking</title>
<desc>Created with Sketch.</desc>
<circle class="st0" cx="256.2" cy="257.2" r="251.8"/>
<g>
	<path class="st1" d="M356.6,398.1H186.3c-6.4,0-11.6-5.2-11.6-11.6V171c0-6.4,5.2-11.6,11.6-11.6h170.3c6.4,0,11.6,5.2,11.6,11.6
		v215.5C368.2,392.9,363,398.1,356.6,398.1z"/>
	<path class="st2" d="M333.4,374.9H163.1c-6.4,0-11.6-5.2-11.6-11.6V147.8c0-6.4,5.2-11.6,11.6-11.6h170.3c6.4,0,11.6,5.2,11.6,11.6
		v215.5C345,369.7,339.8,374.9,333.4,374.9z"/>
	<path class="st3" d="M310.2,351.7H139.9c-6.4,0-11.6-5.2-11.6-11.6V124.6c0-6.4,5.2-11.6,11.6-11.6h170.3c6.4,0,11.6,5.2,11.6,11.6
		v215.5C321.8,346.5,316.6,351.7,310.2,351.7z"/>
	<rect x="160.8" y="155.9" class="st4" width="55.6" height="55.6"/>
	<path d="M310.2,357.5H139.9c-9.6,0-17.4-7.8-17.4-17.4V232.5c0-3.2,2.6-5.8,5.8-5.8c3.2,0,5.8,2.6,5.8,5.8v107.5
		c0,3.2,2.6,5.8,5.8,5.8h170.3c3.2,0,5.8-2.6,5.8-5.8V124.6c0-3.2-2.6-5.8-5.8-5.8H139.9c-3.2,0-5.8,2.6-5.8,5.8v59.1
		c0,3.2-2.6,5.8-5.8,5.8c-3.2,0-5.8-2.6-5.8-5.8v-59.1c0-9.6,7.8-17.4,17.4-17.4h170.3c9.6,0,17.4,7.8,17.4,17.4v215.5
		C327.6,349.7,319.8,357.5,310.2,357.5z"/>
	<path d="M151.5,380.7c-1.5,0-3-0.6-4.1-1.7c-1.1-1.1-1.7-2.6-1.7-4.1c0-1.5,0.6-3,1.7-4.1c1.1-1.1,2.6-1.7,4.1-1.7
		c1.5,0,3,0.6,4.1,1.7c1.1,1.1,1.7,2.6,1.7,4.1c0,1.5-0.6,3-1.7,4.1C154.5,380.1,153.1,380.7,151.5,380.7z"/>
	<path d="M333.4,380.7H174.7c-3.2,0-5.8-2.6-5.8-5.8c0-3.2,2.6-5.8,5.8-5.8h158.7c3.2,0,5.8-2.6,5.8-5.8V136.2
		c0-3.2,2.6-5.8,5.8-5.8s5.8,2.6,5.8,5.8v227.1C350.8,372.9,343,380.7,333.4,380.7z"/>
	<path d="M356.6,403.8H174.7c-3.2,0-5.8-2.6-5.8-5.8s2.6-5.8,5.8-5.8h181.9c3.2,0,5.8-2.6,5.8-5.8V159.4c0-3.2,2.6-5.8,5.8-5.8
		s5.8,2.6,5.8,5.8v227.1C374,396,366.2,403.8,356.6,403.8z"/>
	<path d="M216.4,217.3h-55.6c-3.2,0-5.8-2.6-5.8-5.8v-55.6c0-3.2,2.6-5.8,5.8-5.8h55.6c3.2,0,5.8,2.6,5.8,5.8v55.6
		C222.2,214.7,219.6,217.3,216.4,217.3z M166.6,205.7h44v-44h-44V205.7z"/>
	<path d="M174.1,273L174.1,273c-1.5,0-3-0.6-4.1-1.7L158.8,260c-2.3-2.3-2.3-5.9,0-8.2c2.3-2.3,5.9-2.3,8.2,0l7.2,7.2l15.4-15.4
		c2.3-2.3,5.9-2.3,8.2,0c2.3,2.3,2.3,5.9,0,8.2l-19.5,19.5C177.2,272.4,175.7,273,174.1,273z"/>
	<path d="M292.6,263.1h-67.6c-3.2,0-5.8-2.6-5.8-5.8c0-3.2,2.6-5.8,5.8-5.8h67.6c3.2,0,5.8,2.6,5.8,5.8
		C298.4,260.5,295.8,263.1,292.6,263.1z"/>
	<path d="M289.4,161.7h-40.5c-3.2,0-5.8-2.6-5.8-5.8c0-3.2,2.6-5.8,5.8-5.8h40.5c3.2,0,5.8,2.6,5.8,5.8
		C295.1,159.1,292.6,161.7,289.4,161.7z"/>
	<path d="M289.4,189.5h-40.5c-3.2,0-5.8-2.6-5.8-5.8s2.6-5.8,5.8-5.8h40.5c3.2,0,5.8,2.6,5.8,5.8
		C295.1,186.9,292.6,189.5,289.4,189.5z"/>
	<path d="M289.4,217.3h-40.5c-3.2,0-5.8-2.6-5.8-5.8s2.6-5.8,5.8-5.8h40.5c3.2,0,5.8,2.6,5.8,5.8S292.6,217.3,289.4,217.3z"/>
	<path d="M174.1,317.2L174.1,317.2c-1.5,0-3-0.6-4.1-1.7l-11.3-11.3c-2.3-2.3-2.3-5.9,0-8.2c2.3-2.3,5.9-2.3,8.2,0l7.2,7.2
		l15.4-15.4c2.3-2.3,5.9-2.3,8.2,0c2.3,2.3,2.3,5.9,0,8.2l-19.5,19.5C177.2,316.6,175.7,317.2,174.1,317.2z"/>
	<path d="M292.6,307.1h-67.6c-3.2,0-5.8-2.6-5.8-5.8c0-3.2,2.6-5.8,5.8-5.8h67.6c3.2,0,5.8,2.6,5.8,5.8
		C298.4,304.5,295.8,307.1,292.6,307.1z"/>
</g>
</svg>
