<?xml version="1.0" encoding="utf-8"?>
<!-- Generator: Adobe Illustrator 23.0.0, SVG Export Plug-In . SVG Version: 6.00 Build 0)  -->
<svg version="1.1" id="Capa_1" xmlns="http://www.w3.org/2000/svg" xmlns:xlink="http://www.w3.org/1999/xlink" x="0px" y="0px"
	 viewBox="0 0 512 512" style="enable-background:new 0 0 512 512;" xml:space="preserve">
<style type="text/css">
	.st0{fill:#6CBD99;}
	.st1{fill:#F9BA55;}
	.st2{fill:#E6E7E8;}
	.st3{fill:#FF5023;}
	.st4{fill:#96C8EF;}
	.st5{stroke:#000000;stroke-width:2;stroke-miterlimit:10;}
	.st6{fill:none;}
</style>
<title>035 - Creative Thinking</title>
<desc>Created with Sketch.</desc>
<g>
	<circle class="st0" cx="255.7" cy="256.3" r="251.8"/>
	<g>
		<g>
			<g>
				<path class="st1" d="M151.5,119.2h208.5c6.1,0,11,4.9,11,11v274.3c0,6.1-4.9,11-11,11H151.5c-6.1,0-11-4.9-11-11V130.1
					C140.5,124.1,145.4,119.2,151.5,119.2z"/>
				<path class="st2" d="M129.5,97.2H338c6.1,0,11,4.9,11,11v274.3c0,6.1-4.9,11-11,11H129.5c-6.1,0-11-4.9-11-11V108.2
					C118.6,102.1,123.5,97.2,129.5,97.2z"/>
				<path class="st3" d="M173.4,97.2v38.4l-11-16.5l-11,16.5V97.2H173.4z"/>
				<path class="st4" d="M173.4,168.5h208.5c6.1,0,11,4.9,11,11v109.7c0,6.1-4.9,11-11,11H173.4c-6.1,0-11-4.9-11-11V179.5
					C162.4,173.4,167.4,168.5,173.4,168.5z"/>
				<g>
					<path class="st5" d="M226.1,265.4h-24.3c-1.1,0-2-0.9-2-2V199c0-1.1,0.9-2,2-2h24.1c1.1,0,2,0.9,2,2v5c0,1.1-0.9,2-2,2H210v20
						h13.4c1.1,0,2,0.9,2,2v4.9c0,1.1-0.9,2-2,2H210v21.4h16.1c1.1,0,2,0.9,2,2v5C228.1,264.5,227.3,265.4,226.1,265.4z"/>
					<path class="st5" d="M256.5,265.4h-5.8c-1.1,0-2-0.9-2-2v-6.6c0-1.1,0.9-2,2-2h5.8c1.1,0,2,0.9,2,2v6.6
						C258.5,264.5,257.6,265.4,256.5,265.4z"/>
					<path class="st5" d="M313.2,234.2c0,4.3-2.1,6.4-6.2,6.4h-16.5v22.8c0,1.1-0.9,2-2,2h-6.2c-1.1,0-2-0.9-2-2V199
						c0-1.1,0.9-2,2-2H307c4.2,0,6.2,2.1,6.2,6.3V234.2z M302.9,231.8v-26h-12.5v26H302.9z"/>
					<path class="st5" d="M360,239.7h-7.2c-0.4,0-0.7-0.3-0.7-0.7v-8.6c0-0.4-0.3-0.7-0.8-0.7l-6.4,0.1c-0.4,0-0.7,0.3-0.7,0.7v32.9
						c0,1.1-0.9,2-2,2h-6c-1.1,0-2-0.9-2-2v-40.1c0-1.1,0.9-2,2-2h7.3c0.4,0,0.7,0.3,0.7,0.7l0,0c0,0.5,0.4,0.8,0.9,0.7
						c1.8-0.3,3.5-0.7,5.3-1c2.5-0.4,4.5-0.7,6.2-0.7c3.6,0,5.5,1.8,5.5,5.4v11.2C362,238.8,361.1,239.7,360,239.7z"/>
				</g>
			</g>
			<g>
				<path class="st6" d="M354.5,382.4c0,9.1-7.4,16.5-16.5,16.5H146c0,0,0,0,0,0v5.4c0,3.1,2.5,5.5,5.5,5.5h208.4
					c3.1,0,5.5-2.5,5.5-5.5v-98.7c0,0,0,0,0,0h-10.9c0,0,0,0,0,0V382.4z"/>
				<path class="st6" d="M365.4,130.2c0-3.1-2.5-5.5-5.5-5.5h-5.4c0,0,0,0,0,0V163c0,0,0,0,0,0h10.9c0,0,0,0,0,0V130.2z"/>
				<path class="st6" d="M157,117.5l0.9-1.4c0.3-0.4,0.7-0.8,1.2-1.2c2.5-1.9,6.1-1.4,8,1.2l0.9,1.4v-14.8c0,0,0,0,0,0H157
					c0,0,0,0,0,0V117.5z"/>
				<path class="st6" d="M124.1,216C124.1,216,124,216,124.1,216l0,166.5c0,3.1,2.5,5.5,5.5,5.5H338c3.1,0,5.5-2.5,5.5-5.5v-76.7
					c0,0,0,0,0,0h-170c-9.1,0-16.5-7.4-16.5-16.5V179.5c0-9.1,7.4-16.5,16.5-16.5h170c0,0,0,0,0,0v-54.8c0-3.1-2.5-5.5-5.5-5.5h-159
					c0,0,0,0,0,0v32.9c0,2.2-1.4,4.3-3.6,5.1c-2.4,0.9-5.2-0.2-6.6-2.3l-6.2-9.3c0,0-0.1,0-0.1,0l-6.4,9.6c-1,1.5-2.7,2.4-4.6,2.4
					c-3,0-5.5-2.5-5.5-5.5v-32.9c0,0,0,0,0,0h-16.4c-3.1,0-5.5,2.5-5.5,5.5v83.7c0,0,0,0,0,0V216z"/>
				<path class="st6" d="M381.8,174H173.5c-3.1,0-5.5,2.5-5.5,5.5v109.6c0,3.1,2.5,5.5,5.5,5.5h208.4c3.1,0,5.5-2.5,5.5-5.5V179.5
					C387.4,176.5,384.9,174,381.8,174z"/>
				<path d="M381.8,163h-5.4c0,0,0,0,0,0v-32.8c0-9.1-7.4-16.5-16.5-16.5h-5.4c0,0,0,0,0,0v-5.4c0-9.1-7.4-16.5-16.5-16.5H129.6
					c-9.1,0-16.5,7.4-16.5,16.5v78.2c0,3,2.5,5.5,5.5,5.5h0c3,0,5.5-2.5,5.5-5.5v-78.2c0-3.1,2.5-5.5,5.5-5.5h16.4c0,0,0,0,0,0v32.9
					c0,3,2.5,5.5,5.5,5.5c1.8,0,3.5-0.9,4.6-2.4l6.4-9.6c0,0,0.1,0,0.1,0l6.2,9.3c1.4,2.2,4.2,3.2,6.6,2.3c2.2-0.8,3.6-2.9,3.6-5.1
					v-32.9c0,0,0,0,0,0h159c3.1,0,5.5,2.5,5.5,5.5V163c0,0,0,0,0,0h-170c-9.1,0-16.5,7.4-16.5,16.5v109.6c0,9.1,7.4,16.5,16.5,16.5
					h170c0,0,0,0,0,0v76.7c0,3.1-2.5,5.5-5.5,5.5H129.6c-3.1,0-5.5-2.5-5.5-5.5v-161c0-3-2.5-5.5-5.5-5.5h0c-3,0-5.5,2.5-5.5,5.5
					v161c0,9.1,7.4,16.5,16.5,16.5h5.4c0,0,0,0,0,0v5.4c0,9.1,7.4,16.5,16.5,16.5h208.4c9.1,0,16.5-7.4,16.5-16.5v-98.7c0,0,0,0,0,0
					h5.4c9.1,0,16.5-7.4,16.5-16.5V179.5C398.4,170.4,391,163,381.8,163z M167.9,117.5l-0.9-1.4c-1.9-2.5-5.5-3-8-1.2
					c-0.4,0.3-0.8,0.7-1.2,1.2l-0.9,1.4v-14.8c0,0,0,0,0,0h10.9c0,0,0,0,0,0V117.5z M354.5,124.6h5.4c3.1,0,5.5,2.5,5.5,5.5V163
					c0,0,0,0,0,0h-10.9c0,0,0,0,0,0L354.5,124.6C354.5,124.7,354.5,124.6,354.5,124.6z M365.4,404.4c0,3.1-2.5,5.5-5.5,5.5H151.5
					c-3.1,0-5.5-2.5-5.5-5.5V399c0,0,0,0,0,0H338c9.1,0,16.5-7.4,16.5-16.5v-76.7c0,0,0,0,0,0h10.9c0,0,0,0,0,0V404.4z M387.4,289.2
					c0,3.1-2.5,5.5-5.5,5.5H173.5c-3.1,0-5.5-2.5-5.5-5.5V179.5c0-3.1,2.5-5.5,5.5-5.5h208.4c3.1,0,5.5,2.5,5.5,5.5V289.2z"/>
			</g>
		</g>
		<path d="M321.3,360.2c-1.3,0-2.6-0.5-3.6-1.5s-1.5-2.3-1.5-3.6c0-1.3,0.5-2.6,1.5-3.6c0.9-0.9,2.3-1.5,3.6-1.5s2.6,0.5,3.6,1.5
			c0.9,0.9,1.5,2.3,1.5,3.6c0,1.3-0.5,2.6-1.5,3.6S322.6,360.2,321.3,360.2z"/>
		<path d="M301.3,360.2H214c-2.8,0-5.1-2.3-5.1-5.1c0-2.8,2.3-5.1,5.1-5.1h87.3c2.8,0,5.1,2.3,5.1,5.1
			C306.3,358,304.1,360.2,301.3,360.2z"/>
	</g>
</g>
</svg>
