<?xml version="1.0" encoding="utf-8"?>
<!-- Generator: Adobe Illustrator 23.0.0, SVG Export Plug-In . SVG Version: 6.00 Build 0)  -->
<svg version="1.1" id="Capa_1" xmlns="http://www.w3.org/2000/svg" xmlns:xlink="http://www.w3.org/1999/xlink" x="0px" y="0px"
	 viewBox="0 0 512 512" style="enable-background:new 0 0 512 512;" xml:space="preserve">
<style type="text/css">
	.st0{fill:#6CBD99;}
	.st1{fill:#FFFFFF;}
	.st2{fill:#C7E7FA;}
	.st3{fill:#F9BA55;}
</style>
<title>035 - Creative Thinking</title>
<desc>Created with Sketch.</desc>
<circle class="st0" cx="255.5" cy="258" r="251.8"/>
<g>
	<path d="M300.9,222.3c-1.3,0-2.6-0.5-3.6-1.5c-0.9-0.9-1.5-2.3-1.5-3.6c0-1.3,0.5-2.6,1.5-3.6c0.9-0.9,2.3-1.5,3.6-1.5
		c1.3,0,2.6,0.5,3.6,1.5c0.9,0.9,1.5,2.3,1.5,3.6c0,1.3-0.5,2.6-1.5,3.6C303.6,221.8,302.3,222.3,300.9,222.3z"/>
	<path class="st1" d="M379.3,401.9H188.4c-5.9,0-10.7-4.8-10.7-10.7V148.8c0-5.9,4.8-10.7,10.7-10.7h190.9c5.9,0,10.7,4.8,10.7,10.7
		v242.4C390,397.1,385.2,401.9,379.3,401.9z"/>
	<path d="M379.3,132.7H188.4c-8.9,0-16.1,7.2-16.1,16.1v18.2c0,3,2.4,5.4,5.4,5.4c3,0,5.4-2.4,5.4-5.4v-18.2c0-3,2.4-5.4,5.4-5.4
		h190.9c3,0,5.4,2.4,5.4,5.4v242.4c0,3-2.4,5.4-5.4,5.4H188.4c-3,0-5.4-2.4-5.4-5.4v-17.3c0-3-2.4-5.4-5.4-5.4c-3,0-5.4,2.4-5.4,5.4
		v17.3c0,8.9,7.2,16.1,16.1,16.1h190.9c8.9,0,16.1-7.2,16.1-16.1V148.8C395.4,139.9,388.2,132.7,379.3,132.7z"/>
	<path d="M353.5,367.6c-1.4,0-2.8,0.6-3.8,1.6c-1,1-1.6,2.4-1.6,3.8c0,1.4,0.6,2.8,1.6,3.8c1,1,2.4,1.6,3.8,1.6
		c1.4,0,2.8-0.6,3.8-1.6c1-1,1.6-2.4,1.6-3.8c0-1.4-0.6-2.8-1.6-3.8C356.3,368.2,354.9,367.6,353.5,367.6z"/>
	<path d="M224.8,367.6c-3,0-5.4,2.4-5.4,5.4c0,3,2.4,5.4,5.4,5.4h106.8c3,0,5.4-2.4,5.4-5.4c0-3-2.4-5.4-5.4-5.4H224.8z"/>
	<path class="st2" d="M261.2,202.3H151.3c-16.9,0-30.5,13.7-30.5,30.5v78.3c0,16.9,13.7,30.5,30.5,30.5h33l-0.5,0l22.3,22.3l0-22.4
		h54.9c16.9,0,30.5-13.7,30.5-30.5v-78.3C291.7,216,278,202.3,261.2,202.3z"/>
	<path d="M206.2,369.1c-1.3,0-2.6-0.5-3.6-1.5l-20.9-20.9h-30.4c-19.6,0-35.6-16-35.6-35.6v-78.3c0-19.6,16-35.6,35.6-35.6h51.4
		c2.8,0,5.1,2.3,5.1,5.1s-2.3,5.1-5.1,5.1h-51.4c-14,0-25.4,11.4-25.4,25.4v78.3c0,14,11.4,25.4,25.4,25.4h33c2.1,0,3.9,1.3,4.7,3.1
		l12.1,12.1l0-10.1c0-2.8,2.3-5.1,5.1-5.1h54.9c14,0,25.4-11.4,25.4-25.4v-35.1c0-2.8,2.3-5.1,5.1-5.1s5.1,2.3,5.1,5.1v35.1
		c0,19.6-16,35.6-35.6,35.6h-49.8l0,17.3c0,2.1-1.2,3.9-3.1,4.7C207.6,369,206.9,369.1,206.2,369.1z"/>
	<path class="st3" d="M304.6,113.8h-12.9c-38,0-68.8,30.8-68.8,68.8l0,0c0,38,30.8,68.8,68.8,68.8h12.9c7,0,13.8-1.1,20.2-3
		l21.1,21.1v-31.9c16.7-12.6,27.5-32.5,27.5-55l0,0C373.5,144.6,342.6,113.8,304.6,113.8z"/>
	<path d="M346,274.7c-1.3,0-2.6-0.5-3.6-1.5l-19-19c-6.1,1.6-12.4,2.4-18.8,2.4h-12.9c-40.8,0-73.9-33.2-73.9-73.9
		s33.2-73.9,73.9-73.9h12.9c40.8,0,73.9,33.2,73.9,73.9c0,11.8-2.7,23.1-8,33.5c-4.7,9.2-11.4,17.4-19.4,24v29.4
		c0,2.1-1.2,3.9-3.1,4.7C347.3,274.5,346.6,274.7,346,274.7z M324.9,243.4c1.3,0,2.6,0.5,3.6,1.5l12.4,12.4v-19.6
		c0-1.6,0.8-3.1,2-4.1c16.2-12.2,25.4-30.7,25.4-51c0-35.2-28.6-63.7-63.7-63.7h-12.9c-35.2,0-63.7,28.6-63.7,63.7
		s28.6,63.7,63.7,63.7h12.9c6.4,0,12.7-0.9,18.8-2.8C323.9,243.4,324.4,243.4,324.9,243.4z"/>
	<path d="M299.6,203.7c-2.8,0-5.1-2.3-5.1-5.1v-12.2c0-4.6,3.1-8.4,7.6-9.4c5.5-1.2,9.2-6.2,8.8-11.9c-0.4-5.6-4.9-10.1-10.5-10.5
		c-3.2-0.2-6.2,0.9-8.6,3c-2.3,2.2-3.6,5.1-3.6,8.3c0,2.8-2.3,5.1-5.1,5.1s-5.1-2.3-5.1-5.1c0-5.9,2.5-11.7,6.8-15.7
		c4.4-4.1,10.2-6.2,16.2-5.7c10.6,0.7,19.2,9.3,20,20c0.7,10.6-6.1,20-16.4,22.4v11.8C304.7,201.4,302.4,203.7,299.6,203.7z"/>
	<path d="M255.6,276.6H148.3c-2.8,0-5.1-2.3-5.1-5.1s2.3-5.1,5.1-5.1h107.3c2.8,0,5.1,2.3,5.1,5.1S258.4,276.6,255.6,276.6z"/>
	<path d="M255.6,305c-1.3,0-2.6-0.5-3.6-1.5s-1.5-2.3-1.5-3.6c0-1.3,0.5-2.6,1.5-3.6c0.9-0.9,2.3-1.5,3.6-1.5s2.6,0.5,3.6,1.5
		c0.9,0.9,1.5,2.3,1.5,3.6c0,1.3-0.5,2.6-1.5,3.6C258.2,304.5,256.9,305,255.6,305z"/>
	<path d="M235.6,305h-87.3c-2.8,0-5.1-2.3-5.1-5.1c0-2.8,2.3-5.1,5.1-5.1h87.3c2.8,0,5.1,2.3,5.1,5.1
		C240.6,302.8,238.4,305,235.6,305z"/>
	<path d="M222.5,248.1h-74.3c-2.8,0-5.1-2.3-5.1-5.1c0-2.8,2.3-5.1,5.1-5.1h74.3c2.8,0,5.1,2.3,5.1,5.1
		C227.6,245.8,225.3,248.1,222.5,248.1z"/>
	<path d="M300.9,222.3c-1.3,0-2.6-0.5-3.6-1.5c-0.9-0.9-1.5-2.3-1.5-3.6c0-1.3,0.5-2.6,1.5-3.6c0.9-0.9,2.3-1.5,3.6-1.5
		c1.3,0,2.6,0.5,3.6,1.5c0.9,0.9,1.5,2.3,1.5,3.6c0,1.3-0.5,2.6-1.5,3.6C303.6,221.8,302.3,222.3,300.9,222.3z"/>
</g>
</svg>
