<?xml version="1.0" encoding="utf-8"?>
<!-- Generator: Adobe Illustrator 23.0.0, SVG Export Plug-In . SVG Version: 6.00 Build 0)  -->
<svg version="1.1" id="Capa_1" xmlns="http://www.w3.org/2000/svg" xmlns:xlink="http://www.w3.org/1999/xlink" x="0px" y="0px"
	 viewBox="0 0 512 512" style="enable-background:new 0 0 512 512;" xml:space="preserve">
<style type="text/css">
	.st0{fill:#6CBD99;}
	.st1{fill:#FFFFFF;}
	.st2{fill:#F9BA55;}
	.st3{fill:#EB6666;}
	.st4{fill:#9CD5F5;}
</style>
<title>035 - Creative Thinking</title>
<desc>Created with Sketch.</desc>
<circle class="st0" cx="256.1" cy="257" r="251.8"/>
<g>
	<path class="st1" d="M351.9,393.9H149.3c-6.1,0-11.1-5-11.1-11.1V131.2c0-6.1,5-11.1,11.1-11.1h202.6c6.1,0,11.1,5,11.1,11.1v251.6
		C363.1,388.9,358.1,393.9,351.9,393.9z"/>
	<path class="st2" d="M375,204.2l3.2-5.5c4.9-8.5,15.8-11.4,24.3-6.5l0,0c8.5,4.9,11.4,15.8,6.5,24.3l-70,121.3L308.1,320l30.2-52.3
		L375,204.2z"/>
	<path class="st3" d="M403.1,191.9L403.1,191.9c-8.5-4.9-19.4-2-24.3,6.5l-8.3,14.3l30.8,17.8l8.3-14.3
		C414.6,207.7,411.6,196.8,403.1,191.9z"/>
	<polygon class="st4" points="339.6,337.5 303.8,363.9 308.8,319.7 	"/>
	<path d="M363.1,336.2c-3.1,0-5.6,2.5-5.6,5.6v41c0,3.1-2.5,5.6-5.6,5.6H149.3c-3.1,0-5.6-2.5-5.6-5.6V131.2c0-3.1,2.5-5.6,5.6-5.6
		h202.6c3.1,0,5.6,2.5,5.6,5.6v60.5c0,3.1,2.5,5.6,5.6,5.6c3.1,0,5.6-2.5,5.6-5.6v-60.5c0-9.2-7.5-16.7-16.7-16.7H149.3
		c-9.2,0-16.7,7.5-16.7,16.7v251.6c0,9.2,7.5,16.7,16.7,16.7h202.6c9.2,0,16.7-7.5,16.7-16.7v-41
		C368.6,338.7,366.1,336.2,363.1,336.2z"/>
	<path d="M280.7,358.3h-30.1c-3.1,0-5.6,2.5-5.6,5.6s2.5,5.6,5.6,5.6h30.1c3.1,0,5.6-2.5,5.6-5.6S283.8,358.3,280.7,358.3z"/>
	<path d="M280.7,327.1h-79c-3.1,0-5.6,2.5-5.6,5.6s2.5,5.6,5.6,5.6h79c3.1,0,5.6-2.5,5.6-5.6S283.8,327.1,280.7,327.1z"/>
	<path d="M280.7,296h-79c-3.1,0-5.6,2.5-5.6,5.6s2.5,5.6,5.6,5.6h79c3.1,0,5.6-2.5,5.6-5.6S283.8,296,280.7,296z"/>
	<path d="M181.8,266.4c-1-1-2.5-1.6-3.9-1.6c-1.5,0-2.9,0.6-3.9,1.6c-1,1-1.6,2.5-1.6,3.9s0.6,2.9,1.6,3.9c1,1,2.5,1.6,3.9,1.6
		c1.5,0,2.9-0.6,3.9-1.6c1-1,1.6-2.5,1.6-3.9S182.8,267.5,181.8,266.4z"/>
	<path d="M181.8,297.6c-1-1-2.5-1.6-3.9-1.6c-1.5,0-2.9,0.6-3.9,1.6c-1,1-1.6,2.5-1.6,3.9s0.6,2.9,1.6,3.9c1,1,2.5,1.6,3.9,1.6
		c1.5,0,2.9-0.6,3.9-1.6c1-1,1.6-2.5,1.6-3.9S182.8,298.6,181.8,297.6z"/>
	<path d="M177.9,327.1c-1.5,0-2.9,0.6-3.9,1.6c-1,1-1.6,2.5-1.6,3.9s0.6,2.9,1.6,3.9c1,1,2.5,1.6,3.9,1.6c1.5,0,2.9-0.6,3.9-1.6
		c1-1,1.6-2.5,1.6-3.9s-0.6-2.9-1.6-3.9C180.8,327.7,179.3,327.1,177.9,327.1z"/>
	<path d="M280.7,264.8h-79c-3.1,0-5.6,2.5-5.6,5.6s2.5,5.6,5.6,5.6h79c3.1,0,5.6-2.5,5.6-5.6S283.8,264.8,280.7,264.8z"/>
	<path d="M281.2,234h-79c-3.1,0-5.6,2.5-5.6,5.6s2.5,5.6,5.6,5.6h79c3.1,0,5.6-2.5,5.6-5.6S284.3,234,281.2,234z"/>
	<path d="M319.7,202.8H202.2c-3.1,0-5.6,2.5-5.6,5.6s2.5,5.6,5.6,5.6h117.5c3.1,0,5.6-2.5,5.6-5.6S322.7,202.8,319.7,202.8z"/>
	<path d="M182.3,173.3c-1-1-2.5-1.6-3.9-1.6c-1.5,0-2.9,0.6-3.9,1.6c-1,1-1.6,2.5-1.6,3.9c0,1.5,0.6,2.9,1.6,3.9
		c1,1,2.5,1.6,3.9,1.6c1.5,0,2.9-0.6,3.9-1.6c1-1,1.6-2.5,1.6-3.9C184,175.8,183.4,174.3,182.3,173.3z"/>
	<path d="M182.3,204.5c-1-1-2.5-1.6-3.9-1.6c-1.5,0-2.9,0.6-3.9,1.6c-1,1-1.6,2.5-1.6,3.9c0,1.5,0.6,2.9,1.6,3.9
		c1,1,2.5,1.6,3.9,1.6c1.5,0,2.9-0.6,3.9-1.6c1-1,1.6-2.5,1.6-3.9C184,206.9,183.4,205.5,182.3,204.5z"/>
	<path d="M178.4,234c-1.5,0-2.9,0.6-3.9,1.6c-1,1-1.6,2.5-1.6,3.9s0.6,2.9,1.6,3.9c1,1,2.5,1.6,3.9,1.6c1.5,0,2.9-0.6,3.9-1.6
		c1-1,1.6-2.5,1.6-3.9s-0.6-2.9-1.6-3.9C181.3,234.6,179.9,234,178.4,234z"/>
	<path d="M319.7,171.7H202.2c-3.1,0-5.6,2.5-5.6,5.6c0,3.1,2.5,5.6,5.6,5.6h117.5c3.1,0,5.6-2.5,5.6-5.6
		C325.2,174.2,322.7,171.7,319.7,171.7z"/>
	<path d="M337.6,329.9l-21.2-12.2l56.2-97.4l21.2,12.2L337.6,329.9z M405.9,187c-5.4-3.1-11.7-4-17.7-2.3c-6,1.6-11.1,5.5-14.2,10.9
		l-70,121.3c-0.4,0.7-0.6,1.4-0.7,2.2l-4.9,44.2c-0.2,2.2,0.8,4.3,2.7,5.4c0.9,0.5,1.8,0.7,2.8,0.7c1.2,0,2.3-0.4,3.3-1.1l35.8-26.4
		c0.6-0.5,1.1-1,1.5-1.7l70-121.3C420.9,207.8,417.1,193.5,405.9,187z M313.3,328.8l16.1,9.3l-18.7,13.8L313.3,328.8z M404.8,213.4
		l-5.5,9.5l-21.2-12.2l5.5-9.5c1.6-2.8,4.3-4.9,7.4-5.7c3.2-0.8,6.5-0.4,9.3,1.2c2.8,1.6,4.9,4.3,5.7,7.4
		C406.9,207.3,406.5,210.6,404.8,213.4z"/>
</g>
</svg>
