<?xml version="1.0" encoding="utf-8"?>
<!-- Generator: Adobe Illustrator 23.0.0, SVG Export Plug-In . SVG Version: 6.00 Build 0)  -->
<svg version="1.1" id="Capa_1" xmlns="http://www.w3.org/2000/svg" xmlns:xlink="http://www.w3.org/1999/xlink" x="0px" y="0px"
	 viewBox="0 0 512 512" style="enable-background:new 0 0 512 512;" xml:space="preserve">
<style type="text/css">
	.st0{fill:#67B86A;}
	.st1{fill:#FFFFFF;}
	.st2{fill:#1B589B;}
	.st3{fill:#00AACB;}
</style>
<g>
	<circle class="st0" cx="255.9" cy="255.2" r="249.8"/>
	<g>
		<path class="st1" d="M284,73.4L399.4,140c17.4,10,28.1,28.6,28.1,48.6v133.2c0,20.1-10.7,38.6-28.1,48.6L284,437.1
			c-17.4,10-38.8,10-56.1,0l-115.4-66.6c-17.4-10-28.1-28.6-28.1-48.6V188.6c0-20.1,10.7-38.6,28.1-48.6l115.4-66.6
			C245.2,63.3,266.6,63.3,284,73.4z"/>
		<g>
			<path class="st2" d="M372.5,264.1v7.7c0,2.5-1.4,4-4,4h-29.5c-2.3,0-3.6-1.2-3.9-3.2l-0.1-4.3v-26.8h41.3v-19.9h-41.3v-33.4h28.7
				c2.5,0,4,1.4,4,4v7.7h21.4v-19.4c0-8.4-3.8-12.2-12.2-12.2l-94.7,0l-13.1-17.7h22.7c1.7,0,3.1-1.4,3.1-3.1v-24.3
				c0-1.2-0.7-2.3-1.8-2.8l-35.3-15.8c-1.4-0.6-2.9-0.6-4.3,0l-35.3,15.8c-1.1,0.5-1.8,1.6-1.8,2.8v24.3c0,1.7,1.4,3.1,3.1,3.1h28.1
				l25.2,34.9c1.7,1.7,4,2.8,6.4,2.8h32.3v13.7H181.1v-4.7c0-1.5-1.2-2.6-2.6-2.6h-54.1c-1.5,0-2.6,1.2-2.6,2.6v29
				c0,1.5,1.2,2.6,2.6,2.6h54.1c1.5,0,2.6-1.2,2.6-2.6v-6.1h130.5v16.3H199.7c-2.4,0-4.7,0.9-6.4,2.7l-24.6,29.9h-32.2
				c-1.2,0-1.9,1.4-1.1,2.3l39.3,49.6c1.4,1.8,4.1,1.8,5.6,0l39.8-49.6c0.8-0.9,0.1-2.3-1.1-2.3h-29l12.6-16.1h109v24.6h-26.3
				c-3.6-8.9-12.3-15.2-22.5-15.2c-13.4,0-24.2,10.9-24.2,24.3c0,13.4,10.9,24.3,24.2,24.3c10.2,0,18.9-6.3,22.5-15.2H322
				c0.6,0,1.2,0.1,1.8,0.1h57.8c8.4,0,12.2-3.6,12.2-12.2v-19.4H372.5z M262.8,292.6c-3.3,0-6.1-2.7-6.1-6.1c0-3.3,2.7-6.1,6.1-6.1
				c3.3,0,6.1,2.7,6.1,6.1C268.9,289.9,266.2,292.6,262.8,292.6z"/>
			<path class="st3" d="M166.1,219.4h-31.2c-1.4,0-2.5-1.1-2.5-2.5v-10.6c0-1.4,1.1-2.5,2.5-2.5h31.2c1.4,0,2.5,1.1,2.5,2.5v10.6
				C168.5,218.3,167.4,219.4,166.1,219.4z"/>
		</g>
		<g>
			<path class="st3" d="M158,279.2h39c0.5,0,0.7,0.5,0.4,0.9l-19,24.1c-0.5,0.7-1.6,0.7-2.1,0L157.6,280
				C157.3,279.7,157.6,279.2,158,279.2z"/>
		</g>
		<g>
			<g>
				<path class="st2" d="M225.5,58.2l-125,72.2c-18.8,10.9-30.4,30.9-30.4,52.7v144.3c0,21.7,11.6,41.8,30.4,52.7l125,72.2
					c18.8,10.9,42,10.9,60.8,0l125-72.2c18.8-10.9,30.4-30.9,30.4-52.7V183.1c0-21.7-11.6-41.8-30.4-52.7l-125-72.2
					C267.5,47.3,244.3,47.3,225.5,58.2z M284,73.4L399.4,140c17.4,10,28.1,28.6,28.1,48.6v133.2c0,20.1-10.7,38.6-28.1,48.6
					L284,437.1c-17.4,10-38.8,10-56.1,0l-115.4-66.6c-17.4-10-28.1-28.6-28.1-48.6V188.6c0-20.1,10.7-38.6,28.1-48.6l115.4-66.6
					C245.2,63.3,266.6,63.3,284,73.4z"/>
			</g>
		</g>
		<g>
			<path class="st2" d="M125.9,336.5h-2.6V333h12.6c5.2,0,8.9,3.5,8.9,8.9s-3.7,9.1-8.9,9.1H130v10.6h-4V336.5z M135.2,347.5
				c3.4,0,5.4-2.1,5.4-5.6c0-3.4-2.1-5.5-5.4-5.5H130v11.1H135.2z"/>
			<path class="st2" d="M149.2,345.3c0-0.6-0.3-0.9-0.9-0.9h-1.7v-3.4h3.7c1.8,0,2.6,0.7,2.6,2.4v1.3c0,0.8-0.1,1.4-0.1,1.4h0.1
				c1-3,3.3-5.3,6.5-5.3c0.5,0,1.1,0.1,1.1,0.1v3.9c0,0-0.5-0.1-1.2-0.1c-2.5,0-4.8,1.8-5.7,4.8c-0.4,1.2-0.5,2.4-0.5,3.7v8.4h-3.9
				V345.3z"/>
			<path class="st2" d="M173.1,340.6c6.1,0,11.1,4.5,11.1,10.7c0,6.2-4.9,10.8-11.1,10.8c-6.1,0-11-4.5-11-10.8
				C162,345.1,166.9,340.6,173.1,340.6z M173.1,358.7c3.9,0,7-3.1,7-7.4c0-4.3-3.2-7.3-7-7.3c-3.8,0-7,3-7,7.3
				C166,355.6,169.2,358.7,173.1,358.7z"/>
			<path class="st2" d="M196,340.6c5.1,0,6.6,3.2,6.6,3.2h0.1c0,0,0-0.3,0-0.6c0-1.2,0.6-2.1,2.3-2.1h3.8v3.4h-1.6
				c-0.5,0-0.9,0.3-0.9,0.8v15.5c0,6.8-5.1,9.4-10.3,9.4c-2.5,0-5-0.7-7-1.7l1.3-3.2c0,0,2.5,1.4,5.6,1.4c3.6,0,6.5-1.6,6.5-5.7
				v-1.4c0-0.6,0.1-1.3,0.1-1.3h-0.1c-1.2,2-3.1,3.1-6.1,3.1c-5.7,0-9.2-4.6-9.2-10.5C187.1,345,190.3,340.6,196,340.6z
				 M202.4,350.9c0-5.3-2.6-6.9-5.8-6.9c-3.6,0-5.6,2.6-5.6,6.8c0,4.3,2.2,7.2,5.9,7.2C199.8,357.9,202.4,356.2,202.4,350.9z"/>
			<path class="st2" d="M213.1,345.3c0-0.6-0.3-0.9-0.9-0.9h-1.7v-3.4h3.7c1.8,0,2.6,0.7,2.6,2.4v1.3c0,0.8-0.1,1.4-0.1,1.4h0.1
				c1-3,3.3-5.3,6.5-5.3c0.5,0,1.1,0.1,1.1,0.1v3.9c0,0-0.5-0.1-1.2-0.1c-2.5,0-4.8,1.8-5.7,4.8c-0.4,1.2-0.5,2.4-0.5,3.7v8.4h-3.9
				V345.3z"/>
			<path class="st2" d="M237.9,348.8h0.9v-0.2c0-3.6-1.3-4.9-4.5-4.9c-1,0-3.4,0.2-3.4,1.6v1.2h-3.7v-2c0-3.4,5.1-3.8,7.1-3.8
				c6.6,0,8.4,3.5,8.4,8v8.7c0,0.6,0.3,0.9,0.9,0.9h1.7v3.4h-3.7c-1.8,0-2.6-0.9-2.6-2.3c0-0.7,0.1-1.2,0.1-1.2H239c0,0-1.6,4-6.5,4
				c-3.5,0-7-2.1-7-6.2C225.6,349.2,234.5,348.8,237.9,348.8z M233.4,358.9c3.3,0,5.5-3.5,5.5-6.5v-0.7h-1c-3,0-8.3,0.2-8.3,3.9
				C229.5,357.3,230.8,358.9,233.4,358.9z"/>
			<path class="st2" d="M249.5,345.3c0-0.6-0.3-0.9-0.9-0.9H247v-3.4h3.8c1.8,0,2.6,0.8,2.6,2.3v0.8c0,0.6,0,1.2,0,1.2h0.1
				c1-2.4,3.8-4.7,7-4.7c3.5,0,5.5,1.6,6.2,4.7h0.1c1.1-2.5,4-4.7,7.3-4.7c4.6,0,6.8,2.6,6.8,7.9v8.9c0,0.6,0.3,0.9,0.9,0.9h1.7v3.4
				h-3.9c-1.8,0-2.6-0.8-2.6-2.6v-9.7c0-2.9-0.6-5.1-3.6-5.1c-2.8,0-5,2.5-5.8,5.3c-0.2,0.9-0.3,1.7-0.3,2.8v9.4h-3.9v-12.3
				c0-2.7-0.4-5.1-3.5-5.1c-3,0-5.1,2.5-5.9,5.4c-0.2,0.8-0.3,1.7-0.3,2.6v9.4h-3.9V345.3z"/>
			<path class="st2" d="M297.9,348.8h0.9v-0.2c0-3.6-1.3-4.9-4.5-4.9c-1,0-3.4,0.2-3.4,1.6v1.2h-3.7v-2c0-3.4,5.1-3.8,7.1-3.8
				c6.6,0,8.4,3.5,8.4,8v8.7c0,0.6,0.3,0.9,0.9,0.9h1.7v3.4h-3.7c-1.8,0-2.6-0.9-2.6-2.3c0-0.7,0.1-1.2,0.1-1.2H299c0,0-1.6,4-6.5,4
				c-3.5,0-7-2.1-7-6.2C285.5,349.2,294.4,348.8,297.9,348.8z M293.3,358.9c3.3,0,5.5-3.5,5.5-6.5v-0.7h-1c-3,0-8.3,0.2-8.3,3.9
				C289.5,357.3,290.8,358.9,293.3,358.9z"/>
			<path class="st2" d="M318.5,340.6c2.5,0,7.4,1,7.4,4.5v2.1h-3.6v-1.1c0-1.5-2.3-2.1-3.8-2.1c-4,0-7,3-7,7.3
				c0,4.7,3.4,7.3,7.2,7.3c3.8,0,6.4-2.8,6.4-2.8l1.7,2.8c0,0-2.9,3.5-8.3,3.5c-6.4,0-10.9-4.6-10.9-10.7
				C307.5,345.3,311.9,340.6,318.5,340.6z"/>
			<path class="st2" d="M331.3,345.3c0-0.6-0.3-0.9-0.9-0.9h-1.7v-3.4h3.8c1.8,0,2.6,0.8,2.6,2.6v13.6c0,0.6,0.3,0.9,0.9,0.9h1.7
				v3.4h-3.8c-1.8,0-2.6-0.8-2.6-2.6V345.3z M331.4,333h3.5v4.1h-3.5V333z"/>
			<path class="st2" d="M351.2,340.6c6.1,0,11.1,4.5,11.1,10.7c0,6.2-4.9,10.8-11.1,10.8c-6.1,0-11-4.5-11-10.8
				C340.2,345.1,345.1,340.6,351.2,340.6z M351.2,358.7c3.9,0,7-3.1,7-7.4c0-4.3-3.2-7.3-7-7.3c-3.8,0-7,3-7,7.3
				C344.2,355.6,347.4,358.7,351.2,358.7z M352.6,333h4l-3.8,5.1h-3.1L352.6,333z"/>
			<path class="st2" d="M367.2,345.3c0-0.6-0.3-0.9-0.9-0.9h-1.7v-3.4h3.8c1.7,0,2.6,0.8,2.6,2.3v0.8c0,0.6-0.1,1.2-0.1,1.2h0.1
				c0.8-1.8,3.2-4.7,7.7-4.7c4.9,0,7,2.6,7,7.9v8.9c0,0.6,0.3,0.9,0.9,0.9h1.7v3.4h-3.9c-1.8,0-2.6-0.8-2.6-2.6v-9.6
				c0-2.9-0.6-5.1-3.8-5.1c-3.2,0-5.7,2.1-6.5,5c-0.3,0.8-0.4,1.7-0.4,2.8v9.6h-3.9V345.3z"/>
		</g>
		<path class="st3" d="M228.6,127.2l26.1-10.2c0.6-0.2,1.3-0.2,1.9,0l26.1,10.2v12.4h-54.2V127.2z"/>
		<path class="st3" d="M262.5,273.8c-7,0-12.7,5.8-12.7,12.8c0,7,5.7,12.8,12.7,12.8c7,0,12.8-5.8,12.8-12.8
			C275.3,279.5,269.6,273.8,262.5,273.8z"/>
	</g>
</g>
</svg>
