<?xml version="1.0" encoding="UTF-8" standalone="no"?>
<!-- Generator: Adobe Illustrator 23.0.0, SVG Export Plug-In . SVG Version: 6.00 Build 0)  -->

<svg
   xmlns:dc="http://purl.org/dc/elements/1.1/"
   xmlns:cc="http://creativecommons.org/ns#"
   xmlns:rdf="http://www.w3.org/1999/02/22-rdf-syntax-ns#"
   xmlns:svg="http://www.w3.org/2000/svg"
   xmlns="http://www.w3.org/2000/svg"
   xmlns:sodipodi="http://sodipodi.sourceforge.net/DTD/sodipodi-0.dtd"
   xmlns:inkscape="http://www.inkscape.org/namespaces/inkscape"
   version="1.1"
   id="Capa_1"
   x="0px"
   y="0px"
   viewBox="0 0 294.8 294.8"
   style="enable-background:new 0 0 294.8 294.8;"
   xml:space="preserve"
   sodipodi:docname="expandirBlack.svg"
   inkscape:version="0.92.3 (2405546, 2018-03-11)"><metadata
   id="metadata11"><rdf:RDF><cc:Work
       rdf:about=""><dc:format>image/svg+xml</dc:format><dc:type
         rdf:resource="http://purl.org/dc/dcmitype/StillImage" /><dc:title /></cc:Work></rdf:RDF></metadata><defs
   id="defs9" /><sodipodi:namedview
   pagecolor="#ffffff"
   bordercolor="#666666"
   borderopacity="1"
   objecttolerance="10"
   gridtolerance="10"
   guidetolerance="10"
   inkscape:pageopacity="0"
   inkscape:pageshadow="2"
   inkscape:window-width="1920"
   inkscape:window-height="1018"
   id="namedview7"
   showgrid="false"
   inkscape:zoom="0.80054277"
   inkscape:cx="-83.068645"
   inkscape:cy="147.39999"
   inkscape:window-x="-8"
   inkscape:window-y="-8"
   inkscape:window-maximized="1"
   inkscape:current-layer="Capa_1" />
<style
   type="text/css"
   id="style2">
	.st0{fill:#66BB6A;}
</style>
<path
   class="st0"
   d="m 225.8375,129.3625 -64.4,64.4 c -5.3,5.3 -13.9,5.3 -19.2,0 l -64.5,-64.4 c -8.6,-8.6 -2.5,-23.2 9.6,-23.2 l 128.9,0 c 12.1,0 18.2,14.6 9.6,23.2 z"
   id="path4"
   inkscape:connector-curvature="0"
   style="fill:#66bb6a" />
<path
   style="fill:#000000;stroke-width:1.24915254"
   d="m 146.40067,195.89813 c -1.37407,-0.58287 -18.0971,-16.73129 -37.16229,-35.88538 -34.576487,-34.7377 -34.663981,-34.83911 -34.663981,-40.17916 0,-4.25156 0.751616,-6.10518 3.651369,-9.00493 l 3.651369,-3.65137 h 69.866223 69.86622 l 3.25476,3.01641 c 3.7966,3.51857 5.21978,8.07699 4.03068,12.91028 -0.93486,3.7999 -65.07468,69.16334 -70.87766,72.22982 -3.73757,1.97504 -7.8232,2.17352 -11.61669,0.56433 z"
   id="path8"
   inkscape:connector-curvature="0" /></svg>