<?xml version="1.0" encoding="utf-8"?>
<!-- Generator: Adobe Illustrator 23.0.0, SVG Export Plug-In . SVG Version: 6.00 Build 0)  -->
<svg version="1.1" id="Capa_1" xmlns="http://www.w3.org/2000/svg" xmlns:xlink="http://www.w3.org/1999/xlink" x="0px" y="0px"
	 viewBox="0 0 512 512" style="enable-background:new 0 0 512 512;" xml:space="preserve">
<style type="text/css">
	.st0{fill:#6CBD99;}
	.st1{fill:#B9D480;}
	.st2{fill:#FFFFFF;}
	.st3{fill:#C7E7FA;}
	.st4{fill:#FABB55;}
</style>
<title>035 - Creative Thinking</title>
<desc>Created with Sketch.</desc>
<g>
	<circle class="st0" cx="257.1" cy="255.8" r="251.8"/>
	<g>
		<polygon class="st1" points="153.5,391.6 360.1,391.6 352.6,373.2 164.8,373.7 		"/>
		<polygon class="st2" points="221.7,330.4 196.3,368.1 317.3,370.4 295.1,328.1 		"/>
		<path class="st2" d="M392.4,329H120.8c-9.4,0-17-7.6-17-17V135.7c0-9.4,7.6-17,17-17h271.6c9.4,0,16,7.6,16,17v176.4
			C408.4,321.4,401.8,329,392.4,329z"/>
		<polygon class="st3" points="179.6,253.5 200.8,253.5 200.1,239.4 209.6,235.1 220.6,239.7 229.7,221 221.6,214 218.8,202 
			229.7,198.1 221.3,181.1 209.3,183.6 198,178.3 196.9,167 177.9,166.7 174.3,182.2 163.7,183.2 155.3,181.1 146.8,195.6 
			156.7,204.4 156.3,215.7 148.2,222.4 155.3,235.5 172.2,232.7 		"/>
		<circle class="st2" cx="188.9" cy="208.8" r="8.3"/>
		<polygon class="st4" points="314.4,269.2 343.4,269.2 342.4,249.9 355.5,244.1 370.4,250.4 383,224.8 371.9,215.2 368,198.7 
			383,193.4 371.4,170.3 355,173.6 339.5,166.4 338.1,151 312,150.5 307.2,171.7 292.7,173.2 281.1,170.3 269.6,190.1 283.1,202.1 
			282.6,217.6 271.5,226.7 281.1,244.6 304.3,240.7 		"/>
		<circle class="st2" cx="327.1" cy="208.1" r="11.3"/>
		<path class="st3" d="M395,326.8H118.5c-7.5,0-13.5-6-13.5-13.5v-13.9c0-7.5,6-13.5,13.5-13.5H395c7.5,0,13.5,6,13.5,13.5v13.9
			C408.5,320.7,402.5,326.8,395,326.8z"/>
		<g>
			<path d="M408.9,166.8c2.9,0,5.2-2.3,5.2-5.2v-21c0-14.5-11.7-26.2-26.2-26.2H126.2c-14.5,0-26.2,11.7-26.2,26.2v167.6
				c0,14.5,11.7,26.2,26.2,26.2H211l-19.6,31.4h-18.1c-14.5,0-26.2,11.7-26.2,26.2c0,2.9,2.3,5.2,5.2,5.2h209.5
				c2.9,0,5.2-2.3,5.2-5.2c0-14.5-11.7-26.2-26.2-26.2h-18.1l-19.6-31.4h84.8c14.5,0,26.2-11.7,26.2-26.2v-110
				c0-2.9-2.3-5.2-5.2-5.2s-5.2,2.3-5.2,5.2V282H162.8c-2.9,0-5.2,2.3-5.2,5.2c0,2.9,2.3,5.2,5.2,5.2h240.9v15.7
				c0,8.7-7,15.7-15.7,15.7H126.2c-8.7,0-15.7-7-15.7-15.7v-15.7H135c2.9,0,5.2-2.3,5.2-5.2c0-2.9-2.3-5.2-5.2-5.2h-24.6V140.6
				c0-8.7,7-15.7,15.7-15.7h261.8c8.7,0,15.7,7,15.7,15.7v21C403.7,164.4,406,166.8,408.9,166.8z M355.7,386.7H158.5
				c2.2-6.3,8.2-10.5,14.8-10.5h167.6C347.5,376.2,353.4,380.4,355.7,386.7z M290.8,334.3l19.6,31.4H203.6l19.6-31.4H290.8z"/>
			<path d="M372.3,308.2c0,2.9-2.3,5.2-5.2,5.2s-5.2-2.3-5.2-5.2c0-2.9,2.3-5.2,5.2-5.2S372.3,305.3,372.3,308.2z"/>
			<path d="M351.3,308.2c0,2.9-2.3,5.2-5.2,5.2s-5.2-2.3-5.2-5.2c0-2.9,2.3-5.2,5.2-5.2S351.3,305.3,351.3,308.2z"/>
			<path d="M199.5,255.8c2.9,0,5.2-2.3,5.2-5.2v-8.8c1.8-0.8,3.6-1.8,5.2-2.9l7.6,4.4c2.5,1.4,5.7,0.6,7.1-1.9l10.5-18.1
				c0.7-1.2,0.9-2.6,0.5-4s-1.2-2.5-2.4-3.2l-7.6-4.4c0-1,0-1.9,0-2.9s0-1.9,0-2.9l7.6-4.4c1.2-0.7,2.1-1.9,2.4-3.2
				c0.4-1.3,0.2-2.8-0.5-4l-10.5-18.1c-1.4-2.5-4.6-3.4-7.1-1.9l-7.6,4.4c-1.7-1.1-3.4-2.1-5.2-2.9V167c0-2.9-2.3-5.2-5.2-5.2h-20.9
				c-2.9,0-5.2,2.3-5.2,5.2v8.8c-1.8,0.8-3.6,1.8-5.2,2.9l-7.6-4.4c-2.5-1.4-5.7-0.6-7.1,1.9L143,194.3c-0.7,1.2-0.9,2.6-0.5,4
				c0.4,1.3,1.2,2.5,2.4,3.2l7.6,4.4v2.9v2.9l-7.6,4.4c-1.2,0.7-2.1,1.9-2.4,3.2c-0.4,1.3-0.2,2.8,0.5,4l10.5,18.1
				c1.4,2.5,4.6,3.4,7.1,1.9l7.6-4.4c1.7,1.1,3.4,2.1,5.2,2.9v8.8c0,2.9,2.3,5.2,5.2,5.2s5.2-2.3,5.2-5.2v-12.3
				c0-2.2-1.4-4.2-3.5-4.9c-3-1.1-5.8-2.7-8.3-4.8c-1.7-1.4-4.1-1.7-6-0.6l-6.1,3.6l-5.2-9.1l6.1-3.3c1.9-1.1,3-3.3,2.6-5.5
				c-0.6-3.1-0.6-6.4,0-9.5c0.6-2.3-0.5-4.8-2.6-5.9l-6.1-3.5l5.2-9.1l6.1,3.6c1.9,1.1,4.3,0.9,6-0.6c2.4-2.1,5.3-3.7,8.3-4.8
				c2.1-0.7,3.5-2.7,3.5-4.9v-6.9h10.5v7.1c0,2.2,1.4,4.2,3.5,4.9c3,1.1,5.8,2.7,8.3,4.8c1.7,1.4,4.1,1.7,6,0.6l6.1-3.6l5.2,9.1
				l-6.1,3.3c-1.9,1.1-3,3.3-2.6,5.5c0.6,3.1,0.6,6.4,0,9.5c-0.6,2.3,0.5,4.8,2.6,5.9l6.1,3.5l-5.2,9.1l-6.1-3.6
				c-1.9-1.1-4.3-0.9-6,0.6c-2.4,2.1-5.3,3.7-8.3,4.8c-2.1,0.7-3.5,2.7-3.5,4.9v12.1C194.2,253.5,196.6,255.8,199.5,255.8z"/>
			<path d="M204.7,208.7c0-8.7-7-15.7-15.7-15.7s-15.7,7-15.7,15.7s7,15.7,15.7,15.7S204.7,217.4,204.7,208.7z M189,213.9
				c-2.9,0-5.2-2.3-5.2-5.2s2.3-5.2,5.2-5.2s5.2,2.3,5.2,5.2S191.9,213.9,189,213.9z"/>
			<path d="M304.2,208.7c0,11.6,9.4,20.9,20.9,20.9s20.9-9.4,20.9-20.9s-9.4-20.9-20.9-20.9S304.2,197.1,304.2,208.7z M335.6,208.7
				c0,5.8-4.7,10.5-10.5,10.5s-10.5-4.7-10.5-10.5s4.7-10.5,10.5-10.5S335.6,202.9,335.6,208.7z"/>
			<path d="M387.4,190.9l-15.7-27.3c-0.7-1.2-1.8-2.1-3.1-2.5s-2.8-0.2-4,0.4l-13.2,7.9c-1.7-1.1-3.4-2.1-5.2-3V151
				c0-2.9-2.3-5.2-5.2-5.2h-31.6c-2.9,0-5.2,2.3-5.2,5.2v15.4c-1.8,0.9-3.6,1.9-5.2,3l-13.2-7.9c-2.5-1.4-5.7-0.6-7.1,1.9L263,190.6
				c-0.8,1.2-1.1,2.8-0.7,4.2c0.4,1.4,1.3,2.7,2.6,3.4l13.2,7.5v2.9v2.9l-13.2,7.5c-2.5,1.5-3.3,4.6-1.9,7.1l15.7,27.2
				c1.5,2.5,4.6,3.3,7.1,1.9l13.2-7.5c1.7,1.1,3.4,2.1,5.2,3v15.4c0,2.9,2.3,5.2,5.2,5.2h31.4c2.9,0,5.2-2.3,5.2-5.2v-15.4
				c1.8-0.9,3.6-1.9,5.2-3l13.2,7.9c2.5,1.4,5.7,0.6,7.1-1.9c0.7-1.2,0.9-2.6,0.5-4c-0.4-1.3-1.2-2.5-2.4-3.2l-16.3-9.4
				c-1.8-1.1-4.2-0.9-5.9,0.4c-2.7,2.2-5.6,3.9-8.8,5.2c-2,0.8-3.2,2.7-3.2,4.8v13.2h-20.9v-13.6c0-2.1-1.3-4-3.2-4.8
				c-3.2-1.3-6.1-3.1-8.8-5.2c-1.7-1.3-4-1.5-5.9-0.4l-11.7,6.8l-10.5-18.1l11.7-6.5c1.9-1,2.9-3.1,2.6-5.2c-0.6-3.4-0.6-6.8,0-10.2
				c0.3-2.1-0.8-4.2-2.6-5.2l-11.7-6.8l10.5-18.1l11.7,6.8c1.8,1.1,4.2,0.9,5.9-0.4c2.7-2.2,5.6-3.9,8.8-5.2c2-0.8,3.2-2.7,3.2-4.8
				v-13.6h20.9v13.6c0,2.1,1.3,4,3.2,4.8c3.2,1.3,6.1,3.1,8.8,5.2c1.7,1.3,4,1.5,5.9,0.4l11.7-6.8l10.5,18.1l-11.7,6.5
				c-1.9,1-2.9,3.1-2.6,5.2c0.6,3.4,0.6,6.8,0,10.2c-0.3,2.1,0.8,4.2,2.6,5.2l16.3,9.4c2.5,1.3,5.6,0.4,7-2s0.6-5.5-1.7-7l-13.2-7.6
				c0-1,0-2,0-2.9s0-1.9,0-2.9l13.2-7.5c1.2-0.7,2.2-1.9,2.5-3.3C388.4,193.6,388.1,192.1,387.4,190.9z"/>
			<path d="M220.4,155.5c1,0,1.9-0.3,2.7-0.8c14.4-8.9,32-11.2,48.2-6.3c1.4,0.5,2.8,0.3,4.1-0.3c1.3-0.7,2.2-1.8,2.6-3.2
				c0.8-2.8-0.8-5.7-3.6-6.5c-19.1-5.8-39.8-3.1-56.8,7.5c-1.2,0.7-2,1.9-2.4,3.3c-0.3,1.4-0.1,2.8,0.6,4
				C216.9,154.6,218.6,155.5,220.4,155.5z"/>
			<path d="M217.7,261c11,6.8,23.7,10.4,36.7,10.5c4.8,0,9.5-0.5,14.2-1.6c1.9-0.3,3.6-1.6,4.2-3.5c0.6-1.9,0.2-3.9-1.1-5.3
				c-1.4-1.4-3.4-2-5.3-1.4c-3.9,0.9-7.9,1.3-11.9,1.3c-11.1,0-22-3-31.4-8.8c-2.5-1.5-5.7-0.7-7.2,1.7
				C214.4,256.4,215.2,259.6,217.7,261z"/>
		</g>
	</g>
</g>
</svg>
