<?xml version="1.0" encoding="utf-8"?>
<!-- Generator: Adobe Illustrator 23.0.0, SVG Export Plug-In . SVG Version: 6.00 Build 0)  -->
<svg version="1.1" id="Capa_1" xmlns="http://www.w3.org/2000/svg" xmlns:xlink="http://www.w3.org/1999/xlink" x="0px" y="0px"
	 viewBox="0 0 512 512" style="enable-background:new 0 0 512 512;" xml:space="preserve">
<style type="text/css">
	.st0{fill:#6CBD99;}
	.st1{fill:#FFFFFF;}
	.st2{fill:#B9D480;}
	.st3{fill:#C7E7FA;}
	.st4{fill:#FABB55;}
</style>
<title>035 - Creative Thinking</title>
<desc>Created with Sketch.</desc>
<circle class="st0" cx="255.4" cy="255.9" r="251.8"/>
<g>
	<path class="st1" d="M343.8,406.9H118.9V104.8h217.9c10.1,0,18.2,8.2,18.2,18.2v265.6C355,398.8,346.9,406.9,343.8,406.9z"/>
	<path class="st2" d="M116.5,105.1H153v302.1h-36.5V105.1z"/>
	<path d="M355.3,353.1c0,2.5,2,4.6,4.6,4.6c2.5,0,4.6-2,4.6-4.6v-99.8L364.3,123c0-12.6-10.2-22.8-22.8-22.8h-225
		c-2.5,0-4.6,2-4.6,4.6v14.8c0,2.5,2,4.6,4.6,4.6s4.6-2,4.6-4.6v-10.3h27.4v293h-27.4V139c0-2.5-2-4.6-4.6-4.6s-4.6,2-4.6,4.6v267.9
		c0,2.5,2,4.6,4.6,4.6h224.9c12.6,0,22.8-10.2,22.8-22.8v-16.1c0-2.5-2-4.6-4.6-4.6c-2.5,0-4.6,2-4.6,4.6v16.1
		c0,7.5-6.1,13.7-13.7,13.7H157.5V109.3h183.9c7.5,0,13.7,6.1,13.7,13.7v49.1l0.2,145.5V353.1z"/>
	<g>
		<polygon class="st2" points="222,362 362.2,362 357.1,349.5 229.7,349.8 		"/>
		<polygon class="st1" points="268.3,320.5 251.1,346 333.1,347.6 318.1,318.9 		"/>
		<path class="st1" d="M384.1,319.5H199.8c-6.4,0-11.5-5.2-11.5-11.5V188.4c0-6.4,5.2-11.5,11.5-11.5h184.3
			c6.4,0,10.9,5.2,10.9,11.5V308C395,314.4,390.5,319.5,384.1,319.5z"/>
		<polygon class="st3" points="239.7,268.3 254.1,268.3 253.6,258.7 260.1,255.8 267.5,258.9 273.7,246.3 268.2,241.5 266.3,233.3 
			273.7,230.7 268,219.2 259.9,220.9 252.2,217.3 251.5,209.6 238.5,209.4 236.1,219.9 229,220.6 223.2,219.2 217.5,229 224.2,235 
			223.9,242.7 218.4,247.2 223.2,256.1 234.7,254.2 		"/>
		<circle class="st1" cx="246" cy="238" r="5.6"/>
		<polygon class="st4" points="331.2,278.9 350.8,278.9 350.2,265.8 359,261.9 369.2,266.2 377.7,248.8 370.2,242.3 367.5,231.1 
			377.7,227.5 369.8,211.8 358.7,214.1 348.2,209.2 347.2,198.7 329.6,198.4 326.3,212.8 316.5,213.8 308.6,211.8 300.7,225.3 
			309.9,233.4 309.6,243.9 302.1,250.1 308.6,262.2 324.3,259.6 		"/>
		<circle class="st1" cx="339.8" cy="237.5" r="7.7"/>
		<path class="st3" d="M385.8,318H198.3c-5.1,0-9.2-4.1-9.2-9.2v-9.5c0-5.1,4.1-9.2,9.2-9.2h187.6c5.1,0,9.2,4.1,9.2,9.2v9.5
			C395,313.9,390.9,318,385.8,318z"/>
		<g>
			<path d="M395.3,209.5c2,0,3.6-1.6,3.6-3.6v-14.2c0-9.8-8-17.8-17.8-17.8H203.5c-9.8,0-17.8,8-17.8,17.8v113.7
				c0,9.8,8,17.8,17.8,17.8H261l-13.3,21.3h-12.3c-9.8,0-17.8,8-17.8,17.8c0,2,1.6,3.6,3.6,3.6h142.1c2,0,3.6-1.6,3.6-3.6
				c0-9.8-8-17.8-17.8-17.8h-12.3l-13.3-21.3H381c9.8,0,17.8-8,17.8-17.8v-74.6c0-2-1.6-3.6-3.6-3.6s-3.6,1.6-3.6,3.6v56.8H228.3
				c-2,0-3.6,1.6-3.6,3.6s1.6,3.6,3.6,3.6h163.4v10.7c0,5.9-4.8,10.7-10.7,10.7H203.4c-5.9,0-10.7-4.8-10.7-10.7v-10.7h16.6
				c2,0,3.6-1.6,3.6-3.6s-1.6-3.6-3.6-3.6h-16.6v-95.9c0-5.9,4.8-10.7,10.7-10.7H381c5.9,0,10.7,4.8,10.7,10.7v14.2
				C391.7,207.9,393.3,209.5,395.3,209.5z M359.2,358.7H225.4c1.5-4.3,5.5-7.1,10.1-7.1h113.7C353.6,351.6,357.7,354.4,359.2,358.7z
				 M315.2,323.1l13.3,21.3H256l13.3-21.3H315.2z"/>
			<path d="M370.4,305.4c0,2-1.6,3.6-3.6,3.6s-3.6-1.6-3.6-3.6s1.6-3.6,3.6-3.6S370.4,303.4,370.4,305.4z"/>
			<path d="M356.2,305.4c0,2-1.6,3.6-3.6,3.6s-3.6-1.6-3.6-3.6s1.6-3.6,3.6-3.6S356.2,303.4,356.2,305.4z"/>
			<path d="M253.2,269.9c2,0,3.6-1.6,3.6-3.6v-6c1.2-0.6,2.4-1.2,3.6-2l5.2,3c1.7,1,3.9,0.4,4.8-1.3l7.1-12.3
				c0.5-0.8,0.6-1.8,0.4-2.7s-0.8-1.7-1.6-2.2l-5.2-3c0-0.7,0-1.3,0-2s0-1.3,0-2l5.2-3c0.8-0.5,1.4-1.3,1.6-2.2s0.1-1.9-0.4-2.7
				l-7.1-12.3c-1-1.7-3.1-2.3-4.8-1.3l-5.2,3c-1.1-0.8-2.3-1.4-3.6-2v-6c0-2-1.6-3.6-3.6-3.6H239c-2,0-3.6,1.6-3.6,3.6v6
				c-1.2,0.6-2.4,1.2-3.6,2l-5.2-3c-1.7-1-3.9-0.4-4.8,1.3l-7.1,12.3c-0.5,0.8-0.6,1.8-0.4,2.7s0.8,1.7,1.6,2.2l5.2,3v2v2l-5.2,3
				c-0.8,0.5-1.4,1.3-1.6,2.2s-0.1,1.9,0.4,2.7l7.1,12.3c1,1.7,3.1,2.3,4.8,1.3l5.2-3c1.1,0.8,2.3,1.4,3.6,2v6c0,2,1.6,3.6,3.6,3.6
				s3.6-1.6,3.6-3.6V258c0-1.5-1-2.8-2.4-3.3c-2.1-0.7-4-1.8-5.6-3.2c-1.1-1-2.8-1.1-4.1-0.4l-4.1,2.4l-3.6-6.2l4.1-2.2
				c1.3-0.7,2-2.2,1.7-3.7c-0.4-2.1-0.4-4.3,0-6.5c0.4-1.6-0.3-3.2-1.7-4l-4.1-2.4l3.6-6.2l4.1,2.4c1.3,0.7,2.9,0.6,4.1-0.4
				c1.7-1.4,3.6-2.5,5.6-3.2c1.4-0.5,2.4-1.8,2.4-3.3v-4.7h7.1v4.8c0,1.5,1,2.8,2.4,3.3c2.1,0.7,4,1.8,5.6,3.2
				c1.1,1,2.8,1.1,4.1,0.4l4.1-2.4l3.6,6.2l-4.1,2.2c-1.3,0.7-2,2.2-1.7,3.7c0.4,2.1,0.4,4.3,0,6.5c-0.4,1.6,0.3,3.2,1.7,4l4.1,2.4
				l-3.6,6.2l-4.1-2.4c-1.3-0.7-2.9-0.6-4.1,0.4c-1.7,1.4-3.6,2.5-5.6,3.2c-1.4,0.5-2.4,1.8-2.4,3.3v8.2
				C249.6,268.3,251.2,269.9,253.2,269.9z"/>
			<path d="M256.8,237.9c0-5.9-4.8-10.7-10.7-10.7s-10.7,4.8-10.7,10.7s4.8,10.7,10.7,10.7S256.8,243.8,256.8,237.9z M246.1,241.4
				c-2,0-3.6-1.6-3.6-3.6s1.6-3.6,3.6-3.6s3.6,1.6,3.6,3.6S248.1,241.4,246.1,241.4z"/>
			<path d="M324.2,237.9c0,7.8,6.4,14.2,14.2,14.2s14.2-6.4,14.2-14.2c0-7.8-6.4-14.2-14.2-14.2S324.2,230,324.2,237.9z
				 M345.6,237.9c0,3.9-3.2,7.1-7.1,7.1s-7.1-3.2-7.1-7.1s3.2-7.1,7.1-7.1C342.4,230.8,345.6,234,345.6,237.9z"/>
			<path d="M380.7,225.8L370,207.3c-0.5-0.8-1.2-1.4-2.1-1.7s-1.9-0.2-2.7,0.3l-9,5.4c-1.1-0.7-2.3-1.4-3.6-2v-10.4
				c0-2-1.6-3.6-3.6-3.6h-21.3c-2,0-3.6,1.6-3.6,3.6v10.4c-1.2,0.6-2.4,1.3-3.6,2l-9-5.4c-1.7-1-3.8-0.4-4.8,1.3L296,225.7
				c-0.6,0.8-0.7,1.9-0.5,2.8c0.2,1,0.9,1.8,1.8,2.3l9,5.1v2v2l-9,5.1c-1.7,1-2.2,3.1-1.3,4.8l10.7,18.5c1,1.7,3.1,2.2,4.8,1.3
				l9-5.1c1.1,0.7,2.3,1.4,3.6,2v10.4c0,2,1.6,3.6,3.6,3.6H349c2,0,3.6-1.6,3.6-3.6v-10.4c1.2-0.6,2.4-1.3,3.6-2l9,5.4
				c1.7,1,3.8,0.4,4.8-1.3c0.5-0.8,0.6-1.8,0.4-2.7c-0.2-0.9-0.8-1.7-1.7-2.2l-11-6.4c-1.3-0.7-2.8-0.6-4,0.2
				c-1.8,1.5-3.8,2.7-6,3.6c-1.3,0.5-2.2,1.8-2.2,3.3v9h-14.2v-9.2c0-1.4-0.9-2.7-2.2-3.3c-2.2-0.9-4.2-2.1-6-3.6
				c-1.2-0.9-2.7-1-4-0.2l-8,4.6l-7.1-12.3l8-4.4c1.3-0.7,2-2.1,1.8-3.6c-0.4-2.3-0.4-4.6,0-6.9c0.2-1.4-0.5-2.8-1.8-3.6l-8-4.6
				l7.1-12.3l8,4.6c1.3,0.7,2.8,0.6,4-0.2c1.8-1.5,3.8-2.7,6-3.6c1.3-0.5,2.2-1.8,2.2-3.3v-9.2h14.2v9.2c0,1.4,0.9,2.7,2.2,3.3
				c2.2,0.9,4.2,2.1,6,3.6c1.2,0.9,2.7,1,4,0.2l8-4.6l7.1,12.3l-8,4.4c-1.3,0.7-2,2.1-1.8,3.6c0.4,2.3,0.4,4.6,0,6.9
				c-0.2,1.4,0.5,2.8,1.8,3.6l11,6.4c1.7,0.9,3.8,0.3,4.7-1.4c1-1.6,0.4-3.8-1.2-4.8l-9-5.1c0-0.7,0-1.3,0-2s0-1.3,0-2l9-5.1
				c0.8-0.5,1.5-1.3,1.7-2.2C381.3,227.6,381.2,226.6,380.7,225.8z"/>
			<path d="M267.4,201.8c0.7,0,1.3-0.2,1.8-0.5c9.8-6.1,21.7-7.6,32.7-4.3c0.9,0.3,1.9,0.2,2.8-0.2c0.9-0.5,1.5-1.2,1.8-2.2
				c0.5-1.9-0.5-3.9-2.4-4.4c-13-3.9-27-2.1-38.5,5.1c-0.8,0.5-1.4,1.3-1.6,2.2s-0.1,1.9,0.4,2.7C265,201.2,266.2,201.8,267.4,201.8
				z"/>
			<path d="M265.6,273.4c7.5,4.6,16.1,7.1,24.9,7.1c3.2,0,6.5-0.4,9.6-1.1c1.3-0.2,2.4-1.1,2.9-2.3c0.4-1.3,0.1-2.7-0.8-3.6
				c-0.9-1-2.3-1.3-3.6-1c-2.6,0.6-5.4,0.9-8.1,0.9c-7.5,0-14.9-2.1-21.3-6c-1.7-1-3.8-0.5-4.9,1.2
				C263.3,270.3,263.9,272.4,265.6,273.4z"/>
		</g>
	</g>
</g>
</svg>
