<?xml version="1.0" encoding="utf-8"?>
<!-- Generator: Adobe Illustrator 23.0.0, SVG Export Plug-In . SVG Version: 6.00 Build 0)  -->
<svg version="1.1" id="Layer_1" xmlns="http://www.w3.org/2000/svg" xmlns:xlink="http://www.w3.org/1999/xlink" x="0px" y="0px"
	 viewBox="0 0 512 512" style="enable-background:new 0 0 512 512;" xml:space="preserve">
<style type="text/css">
	.st0{fill:none;}
	.st1{fill:#FFFFFF;}
	.st2{fill:#FBC672;}
</style>
<g>
	<path class="st0" d="M24.9,251.9c0,0.1,0.1,0.2,0.1,0.3c0.4,1,2.2,4.4,6.7,4.4H39l-9.5-1.3C27.4,254.9,25.8,253.6,24.9,251.9z"/>
	<path class="st0" d="M67.7,480.2c1.4,0.1,2.1,0.2,2.3,0.4h113.7v-0.4L67.7,480.2L67.7,480.2z"/>
	<rect x="328" y="480.1" class="st0" width="115.7" height="0.4"/>
	<path class="st1" d="M67.7,390.2v89.9h116V291.2c0-3.9,3.2-7.1,7.1-7.1h130.1c3.9,0,7.1,3.2,7.1,7.1v188.9h115.7V263.8
		c0-3.9,3.2-7.1,7.1-7.1h28.7c4.5,0,6.3-3.4,6.7-4.4c0.4-1,1.6-4.7-1.6-7.9L260.7,20.5c-2.8-2.8-7.4-2.8-10.2,0L26.6,244.3
		c-3,3-2.2,6.3-1.7,7.6c0.9,1.7,2.5,3,4.6,3.3l9.5,1.3h21.4c3.9,0,7.1,3.2,7.1,7.1v85.9c0,3.4-2.4,6.2-5.5,6.9v26.7
		C65.3,383.9,67.7,386.8,67.7,390.2z"/>
	<path class="st1" d="M67.7,480.2v0.4H70C69.8,480.4,69.1,480.2,67.7,480.2z"/>
	<path class="st2" d="M313.5,298.5H197.8v189.4c0,0.6-0.1,1.1-0.2,1.7h116.1c-0.1-0.5-0.2-1.1-0.2-1.7V298.5z"/>
	<path d="M494.7,234.2L270.8,10.3c-8.4-8.4-22.1-8.4-30.4,0L16.4,234.2c-6.3,6.3-8,15.3-4.7,23.5c3.4,8.2,11.1,13.3,20,13.3h21.6
		v78.7c0,3.9,3.2,7.1,7.1,7.1c0.6,0,1.1-0.1,1.6-0.2c3.2-0.7,5.5-3.6,5.5-6.9v-85.9c0-3.9-3.2-7.1-7.1-7.1H39h-7.3
		c-4.5,0-6.3-3.4-6.7-4.4c0-0.1-0.1-0.2-0.1-0.3c-0.5-1.3-1.2-4.6,1.7-7.6L250.5,20.5c2.8-2.8,7.4-2.8,10.2,0l223.9,223.9
		c3.2,3.2,2,6.8,1.6,7.9c-0.4,1-2.2,4.4-6.7,4.4h-28.7c-3.9,0-7.1,3.2-7.1,7.1v216.3v0.4H328v-0.4V291.2c0-3.9-3.2-7.1-7.1-7.1
		H190.8c-3.9,0-7.1,3.2-7.1,7.1v188.9v0.4H70h-2.3v-0.4v-0.1v-89.9c0-3.4-2.4-6.3-5.7-7c-0.5-0.1-1-0.2-1.5-0.2
		c-3.9,0-7.1,3.2-7.1,7.1v97.6c0,3.9,3.2,7.1,7.1,7.1h130.1c3.4,0,6.2-2.3,6.9-5.5c0.1-0.5,0.2-1.1,0.2-1.7V298.5h115.7v189.4
		c0,0.6,0.1,1.1,0.2,1.7c0.8,3.1,3.6,5.5,6.9,5.5h130.1c3.9,0,7.1-3.2,7.1-7.1V271.1h21.6c8.9,0,16.5-5.1,20-13.3
		C502.7,249.5,500.9,240.5,494.7,234.2z"/>
</g>
</svg>
