<svg version="1.1" viewBox="0.0 0.0 100.0 100.0" fill="none" stroke="none" stroke-linecap="square" stroke-miterlimit="10" xmlns:xlink="http://www.w3.org/1999/xlink" xmlns="http://www.w3.org/2000/svg"><clipPath id="p.0"><path d="m0 0l100.0 0l0 100.0l-100.0 0l0 -100.0z" clip-rule="nonzero"/></clipPath><g clip-path="url(#p.0)"><path fill="#000000" fill-opacity="0.0" d="m0 0l100.0 0l0 100.0l-100.0 0z" fill-rule="evenodd"/><path fill="#ffffff" d="m0.5511811 49.700787l49.44882 -49.700787l49.448822 49.700787z" fill-rule="evenodd"/><path stroke="#ffffff" stroke-width="1.0" stroke-linejoin="round" stroke-linecap="butt" d="m0.5511811 49.700787l49.44882 -49.700787l49.448822 49.700787z" fill-rule="evenodd"/><path fill="#ffffff" d="m12.209973 42.41995l28.629921 0l0 55.43307l-28.629921 0z" fill-rule="evenodd"/><path stroke="#ffffff" stroke-width="1.0" stroke-linejoin="round" stroke-linecap="butt" d="m12.209973 42.41995l28.629921 0l0 55.43307l-28.629921 0z" fill-rule="evenodd"/><path fill="#ffffff" d="m59.755905 42.41995l27.590553 0l0 55.43307l-27.590553 0z" fill-rule="evenodd"/><path stroke="#ffffff" stroke-width="1.0" stroke-linejoin="round" stroke-linecap="butt" d="m59.755905 42.41995l27.590553 0l0 55.43307l-27.590553 0z" fill-rule="evenodd"/><path fill="#ffffff" d="m33.228348 41.795277l32.44094 0l0 31.874012l-32.44094 0z" fill-rule="evenodd"/><path stroke="#ffffff" stroke-width="1.0" stroke-linejoin="round" stroke-linecap="butt" d="m33.228348 41.795277l32.44094 0l0 31.874012l-32.44094 0z" fill-rule="evenodd"/></g></svg>