<?xml version="1.0" encoding="utf-8"?>
<!-- Generator: Adobe Illustrator 23.0.0, SVG Export Plug-In . SVG Version: 6.00 Build 0)  -->
<svg version="1.1" id="Capa_1" xmlns="http://www.w3.org/2000/svg" xmlns:xlink="http://www.w3.org/1999/xlink" x="0px" y="0px"
	 viewBox="0 0 512 512" style="enable-background:new 0 0 512 512;" xml:space="preserve">
<style type="text/css">
	.st0{fill:#6CBD99;}
	.st1{fill:#FDD9A0;}
	.st2{fill:#FFFFFF;}
	.st3{fill:#A8DBF7;}
</style>
<circle class="st0" cx="256.7" cy="255.6" r="251.8"/>
<g>
	<path class="st1" d="M127.3,137.3c0,0,248.1-6.2,256.1,2.7c8,8.9,13.3,17.7,13.3,17.7v187.8h19.5c0,0,9.7,17.7,0,23
		c-9.7,5.3-25.7,8-25.7,8H106.1c0,0-22.2-24.8-11.5-29.2c10.6-4.4,15.7-6.2,15.7-6.2s1.1-187.9,3.8-187.9S127.3,137.3,127.3,137.3z"
		/>
	<rect x="138.9" y="161.2" class="st2" width="236.6" height="162.2"/>
	<path class="st3" d="M155.7,325.2c0,0,26.6-80.6,100.1-78s99.2,77.1,99.2,77.1L155.7,325.2z"/>
	<path d="M149.4,155.1c-10.3,0-18.6,8.3-18.6,18.6v138.8c0,10.2,8.3,18.6,18.6,18.6H364c10.3,0,18.6-8.3,18.6-18.6V173.7
		c0-10.3-8.3-18.6-18.6-18.6H149.4z M319.8,321.1c-2.6-14.4-7.1-27.8-12.9-39.3c4-2.1,8-4.4,11.8-7c14.9,11.7,26.5,27.6,32.9,46.3
		H319.8z M290.1,273.4c0.9,1.2,1.8,2.5,2.7,3.8c-9.9,3.8-20.3,6-31,6.5v-30C269.7,255,280,259.8,290.1,273.4z M251.7,253.7v30
		c-10.7-0.5-21.2-2.7-31-6.5c0.9-1.3,1.8-2.6,2.7-3.8C233.4,259.8,243.7,255,251.7,253.7z M251.7,293.7v27.3h-47.9
		c2.5-13,6.6-24.9,11.8-35.1C227,290.5,239.2,293.2,251.7,293.7z M261.7,293.7c12.5-0.6,24.7-3.2,36.1-7.8
		c5.2,10.2,9.3,22.2,11.8,35.1h-47.9V293.7z M302,273.1c-1.3-2-2.6-3.9-3.9-5.7c-2.1-2.9-4.4-5.5-6.7-7.9c6.5,2.4,12.7,5.5,18.5,9.1
		C307.3,270.2,304.7,271.7,302,273.1z M215.3,267.4c-1.3,1.8-2.7,3.7-3.9,5.7c-2.7-1.4-5.3-2.9-7.9-4.5c5.8-3.6,12-6.7,18.5-9.1
		C219.7,261.9,217.5,264.5,215.3,267.4z M194.7,274.8c3.8,2.6,7.7,4.9,11.8,7c-5.8,11.4-10.2,24.9-12.9,39.3h-31.8
		C168.2,302.4,179.8,286.5,194.7,274.8z M372.6,173.7v138.8c0,4.7-3.9,8.6-8.6,8.6h-1.9c-14.2-46-56.9-77.8-105.4-77.8
		s-91.3,31.8-105.4,77.8h-1.9c-4.7,0-8.6-3.9-8.6-8.6V173.7c0-4.7,3.9-8.6,8.6-8.6H364C368.8,165.1,372.6,168.9,372.6,173.7z"/>
	<path d="M412.7,341.1h-9.5V233.5c0-2.8-2.2-5-5-5c-2.8,0-5,2.2-5,5v107.6H120.2V164.5c0-13.4,10.9-24.3,24.3-24.3h224.3
		c13.4,0,24.3,10.9,24.3,24.3v48.9c0,2.8,2.2,5,5,5s5-2.2,5-5v-48.9c0-18.9-15.4-34.3-34.3-34.3H144.6c-18.9,0-34.3,15.4-34.3,34.3
		v176.6h-9.5c-6.8,0-12.4,5.6-12.4,12.4c0,15.1,12.3,27.4,27.4,27.4h53.1c2.8,0,5-2.2,5-5c0-2.8-2.2-5-5-5h-53.1
		c-9.6,0-17.4-7.8-17.4-17.4c0-1.3,1.1-2.4,2.4-2.4h122.6c2.2,8.6,10,14.9,19.3,14.9h28.2c9.2,0,17-6.3,19.3-14.9h122.6
		c1.3,0,2.4,1.1,2.4,2.4c0,9.6-7.8,17.4-17.4,17.4H188.9c-2.8,0-5,2.2-5,5c0,2.8,2.2,5,5,5h208.8c15.1,0,27.4-12.3,27.4-27.4
		C425.1,346.7,419.5,341.1,412.7,341.1z M270.8,356h-28.2c-3.6,0-6.8-2-8.5-4.9h45.3C277.6,354,274.4,356,270.8,356z"/>
	<path d="M217.5,184.8c-0.7-0.4-1.4-0.7-2.3-0.9c-0.8-0.2-1.7-0.3-2.4-0.3c-0.8,0-1.6,0.2-2.2,0.5c-0.6,0.3-1.1,0.8-1.3,1.6
		l-10.4,35.1l-5.4-23c-0.2-0.9-0.9-1.7-1.9-2.2c-1-0.5-2.1-0.7-3.3-0.7c-1.2,0-2.3,0.2-3.3,0.7c-1,0.5-1.7,1.2-1.9,2.2l-5.4,23
		l-10.4-35.1c-0.2-0.8-0.7-1.3-1.3-1.6c-0.6-0.3-1.4-0.5-2.2-0.5c-0.8,0-1.6,0.1-2.4,0.3c-0.8,0.2-1.6,0.5-2.3,0.9
		c-0.7,0.4-1.2,0.9-1.7,1.4c-0.4,0.5-0.7,1.1-0.7,1.7c0,0.3,0,0.6,0.1,0.9l13.7,42.1c0.2,0.6,0.5,1.2,1,1.6c0.5,0.5,1,0.9,1.7,1.2
		c0.6,0.3,1.4,0.5,2.2,0.7c1.6,0.3,3.2,0.3,4.7,0c0.8-0.1,1.5-0.4,2.1-0.7c0.6-0.3,1.2-0.7,1.7-1.2c0.5-0.5,0.8-1,0.9-1.6l3.5-16
		l3.5,16c0.1,0.6,0.5,1.2,0.9,1.6c0.5,0.5,1,0.9,1.7,1.2c0.6,0.3,1.4,0.5,2.1,0.7c0.8,0.1,1.5,0.2,2.3,0.2c1.6,0,3.1-0.3,4.5-0.9
		c1.4-0.6,2.3-1.5,2.7-2.7l13.7-42.1c0.1-0.3,0.1-0.6,0.1-0.9c0-0.6-0.2-1.2-0.7-1.7C218.7,185.7,218.2,185.2,217.5,184.8z"/>
	<path d="M288.6,184.8c-0.7-0.4-1.4-0.7-2.3-0.9c-0.8-0.2-1.7-0.3-2.4-0.3c-0.8,0-1.6,0.2-2.2,0.5c-0.6,0.3-1.1,0.8-1.3,1.6
		L270,220.7l-5.4-23c-0.2-0.9-0.9-1.7-1.9-2.2c-1-0.5-2.1-0.7-3.3-0.7c-1.2,0-2.3,0.2-3.3,0.7c-1,0.5-1.7,1.2-1.9,2.2l-5.4,23
		l-10.4-35.1c-0.2-0.8-0.7-1.3-1.3-1.6c-0.6-0.3-1.4-0.5-2.2-0.5c-0.8,0-1.6,0.1-2.4,0.3c-0.8,0.2-1.6,0.5-2.3,0.9
		c-0.7,0.4-1.2,0.9-1.7,1.4c-0.4,0.5-0.7,1.1-0.7,1.7c0,0.3,0,0.6,0.1,0.9l13.7,42.1c0.2,0.6,0.5,1.2,1,1.6c0.5,0.5,1,0.9,1.7,1.2
		c0.6,0.3,1.4,0.5,2.2,0.7c1.6,0.3,3.2,0.3,4.7,0c0.8-0.1,1.5-0.4,2.1-0.7c0.6-0.3,1.2-0.7,1.7-1.2c0.5-0.5,0.8-1,0.9-1.6l3.5-16
		l3.5,16c0.1,0.6,0.5,1.2,0.9,1.6c0.5,0.5,1,0.9,1.7,1.2c0.6,0.3,1.4,0.5,2.1,0.7c0.8,0.1,1.5,0.2,2.3,0.2c1.6,0,3.1-0.3,4.5-0.9
		c1.4-0.6,2.3-1.5,2.7-2.7l13.7-42.1c0.1-0.3,0.1-0.6,0.1-0.9c0-0.6-0.2-1.2-0.7-1.7C289.8,185.7,289.3,185.2,288.6,184.8z"/>
	<path d="M359.7,184.8c-0.7-0.4-1.4-0.7-2.3-0.9c-0.8-0.2-1.7-0.3-2.4-0.3c-0.8,0-1.6,0.2-2.2,0.5c-0.6,0.3-1.1,0.8-1.3,1.6
		l-10.4,35.1l-5.4-23c-0.2-0.9-0.9-1.7-1.9-2.2c-1-0.5-2.1-0.7-3.3-0.7c-1.2,0-2.3,0.2-3.3,0.7c-1,0.5-1.7,1.2-1.9,2.2l-5.4,23
		l-10.4-35.1c-0.2-0.8-0.7-1.3-1.3-1.6c-0.6-0.3-1.4-0.5-2.2-0.5c-0.8,0-1.6,0.1-2.4,0.3c-0.8,0.2-1.6,0.5-2.3,0.9
		c-0.7,0.4-1.2,0.9-1.7,1.4c-0.4,0.5-0.7,1.1-0.7,1.7c0,0.3,0,0.6,0.1,0.9l13.7,42.1c0.2,0.6,0.5,1.2,1,1.6c0.5,0.5,1,0.9,1.7,1.2
		c0.6,0.3,1.4,0.5,2.2,0.7c1.6,0.3,3.2,0.3,4.7,0c0.8-0.1,1.5-0.4,2.1-0.7c0.6-0.3,1.2-0.7,1.7-1.2c0.5-0.5,0.8-1,0.9-1.6l3.5-16
		l3.5,16c0.1,0.6,0.5,1.2,0.9,1.6c0.5,0.5,1,0.9,1.7,1.2c0.6,0.3,1.4,0.5,2.1,0.7c0.8,0.1,1.5,0.2,2.3,0.2c1.6,0,3.1-0.3,4.5-0.9
		c1.4-0.6,2.3-1.5,2.7-2.7l13.7-42.1c0.1-0.3,0.1-0.6,0.1-0.9c0-0.6-0.2-1.2-0.7-1.7C360.9,185.7,360.4,185.2,359.7,184.8z"/>
</g>
</svg>
