<svg version="1.1" viewBox="0.0 0.0 100.0 100.0" fill="none" stroke="none" stroke-linecap="square" stroke-miterlimit="10" xmlns:xlink="http://www.w3.org/1999/xlink" xmlns="http://www.w3.org/2000/svg"><clipPath id="p.0"><path d="m0 0l100.0 0l0 100.0l-100.0 0l0 -100.0z" clip-rule="nonzero"/></clipPath><g clip-path="url(#p.0)"><path fill="#000000" fill-opacity="0.0" d="m0 0l100.0 0l0 100.0l-100.0 0z" fill-rule="evenodd"/><defs><radialGradient id="p.1" gradientUnits="userSpaceOnUse" gradientTransform="matrix(6.9624092461936575 0.0 0.0 6.9624092461936575 0.0 0.0)" spreadMethod="pad" cx="5.9781098427745" cy="4.751424924853689" fx="5.9781098427745" fy="4.751424924853689" r="6.962409019470215"><stop offset="0.0" stop-color="#3177ee"/><stop offset="1.0" stop-color="#113d8a"/></radialGradient></defs><path fill="url(#p.1)" d="m4.062992 12.651123l0 0c0 -5.6418247 4.5736027 -10.215427 10.215427 -10.215427l54.687256 0c2.7092972 0 5.3076324 1.0762651 7.2233963 2.9920292c1.9157639 1.9157643 2.9920273 4.514098 2.9920273 7.223398l0 40.860485c0 5.641823 -4.573601 10.215427 -10.215424 10.215427l-54.687256 0l0 0c-5.6418247 0 -10.215427 -4.5736046 -10.215427 -10.215427z" fill-rule="evenodd"/><path fill="#000000" fill-opacity="0.0" d="m4.062992 2.4356956l80.97638 0l0 25.03937l-80.97638 0z" fill-rule="evenodd"/><path fill="#ffffff" d="m12.703617 15.496319l5.0625 0l0 0.9375l-1.75 0.21875l2.546875 8.6875l0.546875 2.59375l0.609375 -2.59375l2.15625 -7.109375l-0.515625 -1.578125l-1.3125 -0.21875l0 -0.9375l5.234375 0l0 0.9375l-1.828125 0.21875l2.515625 8.6875l0.640625 2.796875l0.515625 -2.796875l2.359375 -8.6875l-1.84375 -0.21875l0 -0.9375l4.4375 0l0 0.9375l-1.234375 0.21875l-3.71875 12.796875l-1.828125 0l-2.84375 -9.34375l-2.765625 9.34375l-1.78125 0l-3.96875 -12.78125l-1.234375 -0.234375l0 -0.9375zm18.65625 0l5.0625 0l0 0.9375l-1.75 0.21875l2.546875 8.6875l0.546875 2.59375l0.609375 -2.59375l2.15625 -7.109375l-0.515625 -1.578125l-1.3125 -0.21875l0 -0.9375l5.234375 0l0 0.9375l-1.828125 0.21875l2.515625 8.6875l0.640625 2.796875l0.515625 -2.796875l2.359375 -8.6875l-1.84375 -0.21875l0 -0.9375l4.4375 0l0 0.9375l-1.234375 0.21875l-3.71875 12.796875l-1.828125 0l-2.84375 -9.34375l-2.765625 9.34375l-1.78125 0l-3.96875 -12.78125l-1.234375 -0.234375l0 -0.9375zm18.65625 0l5.0625 0l0 0.9375l-1.75 0.21875l2.546875 8.6875l0.546875 2.59375l0.609375 -2.59375l2.15625 -7.109375l-0.515625 -1.578125l-1.3125 -0.21875l0 -0.9375l5.234375 0l0 0.9375l-1.828125 0.21875l2.515625 8.6875l0.640625 2.796875l0.5156288 -2.796875l2.359375 -8.6875l-1.84375 -0.21875l0 -0.9375l4.4375 0l0 0.9375l-1.234375 0.21875l-3.71875 12.796875l-1.8281288 0l-2.84375 -9.34375l-2.765625 9.34375l-1.78125 0l-3.96875 -12.78125l-1.234375 -0.234375l0 -0.9375zm21.390629 14.046875q-0.484375 0 -0.84375 -0.328125q-0.359375 -0.34375 -0.359375 -0.859375q0 -0.578125 0.421875 -0.96875q0.421875 -0.40625 0.984375 -0.40625q0.578125 0 0.875 0.359375q0.3125 0.34375 0.3125 0.84375q0 0.609375 -0.40625 0.984375q-0.40625 0.375 -0.984375 0.375z" fill-rule="nonzero"/><g filter="url(#shadowFilter-p.2)"><use xlink:href="#p.2" transform="matrix(1.0 0.0 0.0 1.0 0.0 2.0)"/></g><defs><filter id="shadowFilter-p.2" filterUnits="userSpaceOnUse"><feGaussianBlur in="SourceAlpha" stdDeviation="2.0" result="blur"/><feComponentTransfer in="blur" color-interpolation-filters="sRGB"><feFuncR type="linear" slope="0" intercept="0.0"/><feFuncG type="linear" slope="0" intercept="0.0"/><feFuncB type="linear" slope="0" intercept="0.0"/><feFuncA type="linear" slope="0.5" intercept="0"/></feComponentTransfer></filter></defs><g id="p.2"><path fill="#000000" fill-opacity="0.0" d="m14.965879 41.225723l0 0c0 -4.218239 7.7556973 -7.6377983 17.322836 -7.6377983l0 0c9.567135 0 17.322834 3.4195595 17.322834 7.6377983l0 0c0 4.218235 -7.755699 7.6377945 -17.322834 7.6377945l0 0c-9.567139 0 -17.322836 -3.4195595 -17.322836 -7.6377945z" fill-rule="evenodd"/><path stroke="#ffffff" stroke-width="1.0" stroke-linejoin="round" stroke-linecap="butt" d="m14.965879 41.225723l0 0c0 -4.218239 7.7556973 -7.6377983 17.322836 -7.6377983l0 0c9.567135 0 17.322834 3.4195595 17.322834 7.6377983l0 0c0 4.218235 -7.755699 7.6377945 -17.322834 7.6377945l0 0c-9.567139 0 -17.322836 -3.4195595 -17.322836 -7.6377945z" fill-rule="evenodd"/></g><g filter="url(#shadowFilter-p.3)"><use xlink:href="#p.3" transform="matrix(1.0 0.0 0.0 1.0 0.0 2.0)"/></g><defs><filter id="shadowFilter-p.3" filterUnits="userSpaceOnUse"><feGaussianBlur in="SourceAlpha" stdDeviation="2.0" result="blur"/><feComponentTransfer in="blur" color-interpolation-filters="sRGB"><feFuncR type="linear" slope="0" intercept="0.0"/><feFuncG type="linear" slope="0" intercept="0.0"/><feFuncB type="linear" slope="0" intercept="0.0"/><feFuncA type="linear" slope="0.5" intercept="0"/></feComponentTransfer></filter></defs><g id="p.3"><path fill="#000000" fill-opacity="0.0" d="m31.459318 41.225723l0 0c0 -4.218239 7.7556973 -7.6377983 17.322836 -7.6377983l0 0c9.567135 0 17.322834 3.4195595 17.322834 7.6377983l0 0c0 4.218235 -7.755699 7.6377945 -17.322834 7.6377945l0 0c-9.567139 0 -17.322836 -3.4195595 -17.322836 -7.6377945z" fill-rule="evenodd"/><path stroke="#ffffff" stroke-width="1.0" stroke-linejoin="round" stroke-linecap="butt" d="m31.459318 41.225723l0 0c0 -4.218239 7.7556973 -7.6377983 17.322836 -7.6377983l0 0c9.567135 0 17.322834 3.4195595 17.322834 7.6377983l0 0c0 4.218235 -7.755699 7.6377945 -17.322834 7.6377945l0 0c-9.567139 0 -17.322836 -3.4195595 -17.322836 -7.6377945z" fill-rule="evenodd"/></g><defs><radialGradient id="p.4" gradientUnits="userSpaceOnUse" gradientTransform="matrix(-1.9507040980099621 -4.960808617921127 4.960808617921127 -1.9507040980099621 0.0 0.0)" spreadMethod="pad" cx="-17.12007478165686" cy="7.340344369762176" fx="-17.12007478165686" fy="7.340344369762176" r="4.960808753967285"><stop offset="0.0" stop-color="#696969"/><stop offset="1.0" stop-color="#1d1d1d"/></radialGradient></defs><path fill="url(#p.4)" d="m72.64545 92.5749l-8.069565 -20.521591l-9.325054 3.6849823l6.699482 -25.1162l21.993431 13.777622l-9.32505 3.6849823l8.069557 20.521591z" fill-rule="evenodd"/></g></svg>