<?xml version="1.0" encoding="utf-8"?>
<!-- Generator: Adobe Illustrator 23.0.0, SVG Export Plug-In . SVG Version: 6.00 Build 0)  -->
<svg version="1.1" id="Capa_1" xmlns="http://www.w3.org/2000/svg" xmlns:xlink="http://www.w3.org/1999/xlink" x="0px" y="0px"
	 viewBox="0 0 512 512" style="enable-background:new 0 0 512 512;" xml:space="preserve">
<style type="text/css">
	.st0{fill:#FFFFFF;}
	.st1{fill:#1B589B;}
	.st2{fill:#00AACB;}
</style>
<g>
	<path class="st0" d="M295.7,39.1L434,118.9c20.8,12,33.7,34.2,33.7,58.3v159.7c0,24-12.8,46.3-33.7,58.3L295.7,475
		c-20.8,12-46.5,12-67.3,0L90.1,395.2c-20.8-12-33.7-34.2-33.7-58.3V177.2c0-24,12.8-46.3,33.7-58.3l138.3-79.9
		C249.2,27,274.8,27,295.7,39.1z"/>
	<g>
		<path class="st1" d="M401.8,267.7v9.3c0,3-1.7,4.7-4.7,4.7h-35.3c-2.7,0-4.4-1.4-4.7-3.9l-0.1-5.2v-32.1h49.5v-23.9H357v-40h34.4
			c3,0,4.7,1.7,4.7,4.7v9.3h25.6v-23.3c0-10.1-4.5-14.6-14.6-14.6l-113.5,0l-15.7-21.2h27.2c2,0,3.7-1.7,3.7-3.7V98.7
			c0-1.5-0.9-2.8-2.2-3.4l-42.3-18.9c-1.6-0.7-3.5-0.7-5.1,0l-42.4,18.9c-1.3,0.6-2.2,1.9-2.2,3.4v29.1c0,2,1.7,3.7,3.7,3.7h33.7
			l30.2,41.8c2,2,4.8,3.4,7.7,3.4h38.8v16.4H172.3v-5.7c0-1.7-1.4-3.2-3.2-3.2h-64.9c-1.7,0-3.2,1.4-3.2,3.2v34.8
			c0,1.7,1.4,3.2,3.2,3.2h64.9c1.7,0,3.2-1.4,3.2-3.2v-7.3h156.5v19.5H194.7c-2.9,0-5.7,1.1-7.7,3.2l-29.5,35.8h-38.6
			c-1.4,0-2.2,1.7-1.3,2.8l47.1,59.4c1.7,2.1,4.9,2.1,6.7,0l47.8-59.4c0.9-1.1,0.1-2.8-1.3-2.8h-34.7l15.1-19.3h130.6v29.5h-31.5
			c-4.3-10.7-14.8-18.2-27-18.2c-16,0-29.1,13-29.1,29.1c0,16,13,29.1,29.1,29.1c12.2,0,22.6-7.5,27-18.2h44c0.7,0,1.4,0.1,2.2,0.1
			h69.3c10.1,0,14.6-4.3,14.6-14.6v-23.3H401.8z M270.3,301.9c-4,0-7.3-3.3-7.3-7.3c0-4,3.3-7.3,7.3-7.3c4,0,7.3,3.3,7.3,7.3
			C277.6,298.6,274.3,301.9,270.3,301.9z"/>
		<path class="st2" d="M154.4,214.1h-37.4c-1.6,0-3-1.3-3-3v-12.7c0-1.6,1.3-3,3-3h37.4c1.6,0,3,1.3,3,3v12.7
			C157.3,212.8,156,214.1,154.4,214.1z"/>
	</g>
	<g>
		<path class="st2" d="M144.7,285.7h46.8c0.5,0,0.8,0.6,0.5,1.1l-22.7,28.9c-0.7,0.8-1.9,0.8-2.5,0l-22.5-28.9
			C143.9,286.4,144.2,285.7,144.7,285.7z"/>
	</g>
	<g>
		<g>
			<path class="st1" d="M225.6,20.9L75.7,107.4c-22.6,13-36.5,37.1-36.5,63.1v173c0,26,13.9,50.1,36.5,63.1l149.8,86.5
				c22.6,13,50.4,13,72.9,0l149.8-86.5c22.6-13,36.5-37.1,36.5-63.1v-173c0-26-13.9-50.1-36.5-63.1L298.5,20.9
				C275.9,7.9,248.1,7.9,225.6,20.9z M295.7,39.1L434,118.9c20.8,12,33.7,34.2,33.7,58.3v159.7c0,24-12.8,46.3-33.7,58.3L295.7,475
				c-20.8,12-46.5,12-67.3,0L90.1,395.2c-20.8-12-33.7-34.2-33.7-58.3V177.2c0-24,12.8-46.3,33.7-58.3l138.3-79.9
				C249.2,27,274.8,27,295.7,39.1z"/>
		</g>
	</g>
	<g>
		<path class="st1" d="M106.2,354.4h-3.2v-4.2h15.1c6.3,0,10.7,4.2,10.7,10.7s-4.5,10.9-10.7,10.9h-7.1v12.7h-4.9V354.4z
			 M117.4,367.7c4,0,6.5-2.6,6.5-6.7c0-4.1-2.5-6.6-6.5-6.6h-6.4v13.2H117.4z"/>
		<path class="st1" d="M134.1,365.1c0-0.7-0.4-1.1-1.1-1.1h-2v-4h4.5c2.1,0,3.2,0.9,3.2,2.9v1.6c0,1-0.1,1.7-0.1,1.7h0.1
			c1.2-3.6,4-6.4,7.8-6.4c0.6,0,1.3,0.1,1.3,0.1v4.7c0,0-0.6-0.1-1.4-0.1c-3,0-5.8,2.1-6.9,5.8c-0.4,1.4-0.6,2.9-0.6,4.4v10h-4.7
			V365.1z"/>
		<path class="st1" d="M162.7,359.4c7.3,0,13.2,5.4,13.2,12.8c0,7.5-5.9,12.9-13.2,12.9s-13.2-5.4-13.2-12.9
			C149.5,364.8,155.4,359.4,162.7,359.4z M162.7,381c4.7,0,8.4-3.7,8.4-8.8c0-5.1-3.8-8.7-8.4-8.7c-4.6,0-8.4,3.6-8.4,8.7
			C154.3,377.3,158.1,381,162.7,381z"/>
		<path class="st1" d="M190.3,359.4c6.1,0,7.9,3.8,7.9,3.8h0.1c0,0,0-0.4,0-0.8c0-1.5,0.8-2.5,2.7-2.5h4.6v4h-1.9
			c-0.6,0-1.1,0.3-1.1,1v18.5c0,8.1-6.2,11.2-12.4,11.2c-3,0-6-0.8-8.4-2l1.6-3.8c0,0,3,1.7,6.7,1.7c4.3,0,7.8-1.9,7.8-6.8v-1.7
			c0-0.8,0.1-1.6,0.1-1.6h-0.1c-1.5,2.4-3.7,3.7-7.3,3.7c-6.8,0-11-5.5-11-12.6C179.5,364.6,183.4,359.4,190.3,359.4z M198,371.7
			c0-6.4-3.2-8.3-6.9-8.3c-4.3,0-6.7,3.1-6.7,8.1c0,5.1,2.7,8.6,7.1,8.6C194.8,380.2,198,378.1,198,371.7z"/>
		<path class="st1" d="M210.7,365.1c0-0.7-0.4-1.1-1.1-1.1h-2v-4h4.5c2.1,0,3.2,0.9,3.2,2.9v1.6c0,1-0.1,1.7-0.1,1.7h0.1
			c1.2-3.6,4-6.4,7.8-6.4c0.6,0,1.3,0.1,1.3,0.1v4.7c0,0-0.6-0.1-1.4-0.1c-3,0-5.8,2.1-6.9,5.8c-0.4,1.4-0.6,2.9-0.6,4.4v10h-4.7
			V365.1z"/>
		<path class="st1" d="M240.5,369.2h1.1V369c0-4.3-1.6-5.9-5.4-5.9c-1.2,0-4,0.3-4,1.9v1.4h-4.4V364c0-4,6.1-4.6,8.5-4.6
			c8,0,10.1,4.2,10.1,9.6v10.4c0,0.7,0.4,1.1,1.1,1.1h2v4h-4.4c-2.2,0-3.1-1.1-3.1-2.8c0-0.8,0.1-1.5,0.1-1.5h-0.1
			c0,0-1.9,4.9-7.8,4.9c-4.2,0-8.3-2.6-8.3-7.5C225.7,369.7,236.3,369.2,240.5,369.2z M235,381.3c4,0,6.6-4.2,6.6-7.8v-0.8h-1.2
			c-3.5,0-10,0.2-10,4.7C230.4,379.4,231.9,381.3,235,381.3z"/>
		<path class="st1" d="M254.4,365.1c0-0.7-0.4-1.1-1.1-1.1h-2v-4h4.5c2.1,0,3.1,0.9,3.1,2.7v0.9c0,0.8,0,1.4,0,1.4h0.1
			c1.2-2.9,4.6-5.6,8.4-5.6c4.2,0,6.6,1.9,7.4,5.6h0.1c1.4-3,4.8-5.6,8.7-5.6c5.5,0,8.1,3.2,8.1,9.4v10.6c0,0.7,0.4,1.1,1.1,1.1h2v4
			h-4.7c-2.2,0-3.1-0.9-3.1-3.1v-11.6c0-3.4-0.7-6.2-4.3-6.2c-3.4,0-6,3-6.9,6.3c-0.2,1-0.4,2.1-0.4,3.3v11.2h-4.7v-14.7
			c0-3.2-0.5-6.2-4.2-6.2c-3.6,0-6.1,3-7,6.5c-0.2,1-0.3,2-0.3,3.2v11.2h-4.7V365.1z"/>
		<path class="st1" d="M312.3,369.2h1.1V369c0-4.3-1.6-5.9-5.4-5.9c-1.2,0-4,0.3-4,1.9v1.4h-4.4V364c0-4,6.1-4.6,8.5-4.6
			c8,0,10.1,4.2,10.1,9.6v10.4c0,0.7,0.4,1.1,1.1,1.1h2v4h-4.4c-2.2,0-3.1-1.1-3.1-2.8c0-0.8,0.1-1.5,0.1-1.5h-0.1
			c0,0-1.9,4.9-7.8,4.9c-4.2,0-8.3-2.6-8.3-7.5C297.5,369.7,308.2,369.2,312.3,369.2z M306.9,381.3c4,0,6.6-4.2,6.6-7.8v-0.8h-1.2
			c-3.5,0-9.9,0.2-9.9,4.7C302.3,379.4,303.8,381.3,306.9,381.3z"/>
		<path class="st1" d="M337.1,359.4c3,0,8.8,1.2,8.8,5.4v2.5h-4.3v-1.4c0-1.7-2.8-2.5-4.6-2.5c-4.8,0-8.4,3.6-8.4,8.8
			c0,5.6,4.1,8.7,8.6,8.7c4.6,0,7.6-3.4,7.6-3.4l2,3.3c0,0-3.5,4.2-10,4.2c-7.7,0-13.1-5.5-13.1-12.9
			C323.9,365,329.2,359.4,337.1,359.4z"/>
		<path class="st1" d="M352.4,365.1c0-0.7-0.4-1.1-1.1-1.1h-2v-4h4.6c2.2,0,3.1,0.9,3.1,3.1v16.4c0,0.7,0.4,1.1,1.1,1.1h2v4h-4.6
			c-2.2,0-3.1-0.9-3.1-3.1V365.1z M352.5,350.3h4.2v4.9h-4.2V350.3z"/>
		<path class="st1" d="M376.3,359.4c7.3,0,13.2,5.4,13.2,12.8c0,7.5-5.9,12.9-13.2,12.9s-13.2-5.4-13.2-12.9
			C363.1,364.8,369,359.4,376.3,359.4z M376.3,381c4.7,0,8.4-3.7,8.4-8.8c0-5.1-3.8-8.7-8.4-8.7c-4.6,0-8.4,3.6-8.4,8.7
			C367.9,377.3,371.7,381,376.3,381z M378,350.3h4.8l-4.6,6.2h-3.7L378,350.3z"/>
		<path class="st1" d="M395.4,365.1c0-0.7-0.4-1.1-1.1-1.1h-2v-4h4.5c2.1,0,3.1,0.9,3.1,2.7v0.9c0,0.8-0.1,1.4-0.1,1.4h0.1
			c1-2.1,3.9-5.6,9.2-5.6c5.8,0,8.4,3.2,8.4,9.4v10.6c0,0.7,0.4,1.1,1.1,1.1h2v4h-4.7c-2.2,0-3.1-0.9-3.1-3.1v-11.6
			c0-3.4-0.7-6.2-4.6-6.2c-3.8,0-6.8,2.5-7.8,6c-0.3,1-0.4,2.1-0.4,3.3v11.5h-4.7V365.1z"/>
	</g>
	<path class="st2" d="M229.3,103.5l31.3-12.3c0.8-0.3,1.6-0.3,2.3,0l31.3,12.3v14.9h-64.9V103.5z"/>
	<path class="st2" d="M270,279.3c-8.4,0-15.2,6.9-15.2,15.3c0,8.4,6.9,15.3,15.2,15.3c8.4,0,15.3-6.9,15.3-15.3
		C285.3,286.2,278.4,279.3,270,279.3z"/>
</g>
</svg>
