<?xml version="1.0" encoding="utf-8"?>
<!-- Generator: Adobe Illustrator 23.0.0, SVG Export Plug-In . SVG Version: 6.00 Build 0)  -->
<svg version="1.1" id="Capa_1" xmlns="http://www.w3.org/2000/svg" xmlns:xlink="http://www.w3.org/1999/xlink" x="0px" y="0px"
	 viewBox="0 0 512 512" style="enable-background:new 0 0 512 512;" xml:space="preserve">
<style type="text/css">
	.st0{fill:#6CBD99;}
	.st1{fill:#FBC672;}
	.st2{fill:#FFFFFF;}
	.st3{fill:#C7E7FA;}
	.st4{fill:#B9D480;}
</style>
<title>035 - Creative Thinking</title>
<desc>Created with Sketch.</desc>
<circle class="st0" cx="257.1" cy="257.7" r="251.8"/>
<g>
	<path class="st1" d="M336.1,135.3l56.7-0.5v235.9c0,15.1-12.2,27.3-27.3,27.3h-28.8"/>
	<path class="st2" d="M336.7,398H148.2c-16.1,0-29.2-13.1-29.2-29.2V115.4h217.1v19.9"/>
	<rect x="144.3" y="283.1" class="st3" width="75.5" height="91"/>
	<rect x="143.9" y="139.4" class="st4" width="165.1" height="48.7"/>
	<path d="M378.9,130.1l-25,0c-2,0-4,1.2-4.6,3.1c-1,3.2,1.4,6.2,4.4,6.2l8.7,0c0,0,0,0,0,0c-1.8,2.9-2.8,6.3-2.8,10l0,220.5
		c0,2,1.2,4,3.1,4.6c3.2,1,6.2-1.4,6.2-4.4l0-220.5c0-4.3,2.6-8.4,6.7-9.7c6.9-2.2,13.2,2.9,13.2,9.4l0,219.9
		c0,12.3-8.7,23.3-20.9,25.1c-15.2,2.2-28.3-9.5-28.3-24.3V116c0-2.6-2.1-4.7-4.7-4.7H120.5c-2.6,0-4.7,2.1-4.7,4.7v254
		c0,18.7,15.2,33.9,33.9,33.9h214.5c18.7,0,33.9-15.2,33.9-33.9V149.3C398.2,138.7,389.6,130.1,378.9,130.1z M149.8,394.6
		c-13.6,0-24.6-11-24.6-24.6V120.7h205.2V370c0,9.7,4.1,18.4,10.6,24.6c0,0,0,0,0,0L149.8,394.6z"/>
	<path d="M310.2,136.3H145.4c-2.6,0-4.7,2.1-4.7,4.7v46.7c0,2.6,2.1,4.7,4.7,4.7h164.7c2.6,0,4.7-2.1,4.7-4.7v-46.7
		C314.8,138.4,312.7,136.3,310.2,136.3z M305.5,183H150.1v-37.3h155.4V183z"/>
	<path d="M310.2,201.6H145.4c-2.6,0-4.7,2.1-4.7,4.7s2.1,4.7,4.7,4.7h164.7c2.6,0,4.7-2.1,4.7-4.7S312.7,201.6,310.2,201.6z"/>
	<path d="M310.2,239h-73c-2.6,0-4.7,2.1-4.7,4.7s2.1,4.7,4.7,4.7h73c2.6,0,4.7-2.1,4.7-4.7S312.7,239,310.2,239z"/>
	<path d="M218.5,239h-73c-2.6,0-4.7,2.1-4.7,4.7s2.1,4.7,4.7,4.7h73c2.6,0,4.7-2.1,4.7-4.7S221,239,218.5,239z"/>
	<path d="M310.2,257.7h-73c-2.6,0-4.7,2.1-4.7,4.7s2.1,4.7,4.7,4.7h73c2.6,0,4.7-2.1,4.7-4.7S312.7,257.7,310.2,257.7z"/>
	<path d="M218.5,257.7h-73c-2.6,0-4.7,2.1-4.7,4.7s2.1,4.7,4.7,4.7h73c2.6,0,4.7-2.1,4.7-4.7S221,257.7,218.5,257.7z"/>
	<path d="M310.2,276.3h-73c-2.6,0-4.7,2.1-4.7,4.7s2.1,4.7,4.7,4.7h73c2.6,0,4.7-2.1,4.7-4.7S312.7,276.3,310.2,276.3z"/>
	<path d="M310.2,295h-73c-2.6,0-4.7,2.1-4.7,4.7s2.1,4.7,4.7,4.7h73c2.6,0,4.7-2.1,4.7-4.7S312.7,295,310.2,295z"/>
	<path d="M237.1,323h48.1c2.6,0,4.7-2.1,4.7-4.7s-2.1-4.7-4.7-4.7h-48.1c-2.6,0-4.7,2.1-4.7,4.7S234.6,323,237.1,323z"/>
	<path d="M285.3,369.7h-48.1c-2.6,0-4.7,2.1-4.7,4.7s2.1,4.7,4.7,4.7h48.1c2.6,0,4.7-2.1,4.7-4.7S287.8,369.7,285.3,369.7z"/>
	<path d="M310.2,351h-73c-2.6,0-4.7,2.1-4.7,4.7s2.1,4.7,4.7,4.7h73c2.6,0,4.7-2.1,4.7-4.7S312.7,351,310.2,351z"/>
	<path d="M218.5,276.3h-73c-2.6,0-4.7,2.1-4.7,4.7v93.4c0,2.6,2.1,4.7,4.7,4.7h73c2.6,0,4.7-2.1,4.7-4.7V281
		C223.1,278.4,221,276.3,218.5,276.3z M213.8,369.7h-63.7v-84h63.7V369.7z"/>
</g>
</svg>
