<?xml version="1.0" encoding="utf-8"?>
<!-- Generator: Adobe Illustrator 23.0.0, SVG Export Plug-In . SVG Version: 6.00 Build 0)  -->
<svg version="1.1" id="Capa_1" xmlns="http://www.w3.org/2000/svg" xmlns:xlink="http://www.w3.org/1999/xlink" x="0px" y="0px"
	 viewBox="0 0 512 512" style="enable-background:new 0 0 512 512;" xml:space="preserve">
<style type="text/css">
	.st0{fill:#6CBD99;}
	.st1{fill:#FFFFFF;}
	.st2{fill:#B9D480;}
	.st3{fill:#C7E7FA;}
	.st4{fill:#EAAC87;}
	.st5{fill:#EB6666;}
	.st6{fill:#FFD55A;}
	.st7{fill:#FABB55;}
	.st8{fill:#F5A656;}
</style>
<title>035 - Creative Thinking</title>
<desc>Created with Sketch.</desc>
<circle class="st0" cx="256.7" cy="257.5" r="251.8"/>
<g>
	<path class="st1" d="M340.6,408.5H115.7V106.4h224.9c10.1,0,18.2,8.2,18.2,18.2v265.6C358.8,400.4,350.7,408.5,340.6,408.5z"/>
	<path class="st2" d="M115.7,106.4h36.5v302.1h-36.5V106.4z"/>
	<path class="st3" d="M318.4,224.7H195.6c-1.3,0-2.4-1.1-2.4-2.4v-37.7c0-1.3,1.1-2.4,2.4-2.4h122.8c1.3,0,2.4,1.1,2.4,2.4v37.7
		C320.8,223.6,319.7,224.7,318.4,224.7z"/>
	<path class="st4" d="M259.3,352.5l-50.9,14.2c-0.7,0.2-1.4,0.1-1.7-0.3c-0.4-0.4-0.5-1-0.3-1.7l14.2-50.9L259.3,352.5z"/>
	<path class="st5" d="M401.2,210.7L362.5,172l13.7-13.7c3.8-3.8,10-3.8,13.8,0l24.9,24.9c3.8,3.8,3.8,10,0,13.8L401.2,210.7z"/>
	<path class="st6" d="M362.5,172l12.9,12.9L233.6,326.7l-12.9-12.9L362.5,172z"/>
	<path class="st7" d="M375.4,184.9l12.9,12.9L246.5,339.6l-12.9-12.9L375.4,184.9z"/>
	<path class="st8" d="M388.3,197.8l12.9,12.9L259.3,352.5l-12.9-12.9L388.3,197.8z"/>
	<path d="M418.2,180l-24.9-24.9c-2.7-2.7-6.3-4.2-10.1-4.2c-3.8,0-7.4,1.5-10.1,4.2l-9.6,9.6v-40c0-12.6-10.2-22.8-22.8-22.8H115.7
		c-2.5,0-4.6,2-4.6,4.6v14.8c0,2.5,2,4.6,4.6,4.6s4.6-2,4.6-4.6V111h27.4v293h-27.4V140.7c0-2.5-2-4.6-4.6-4.6s-4.6,2-4.6,4.6v267.9
		c0,2.5,2,4.6,4.6,4.6h224.9c12.6,0,22.8-10.2,22.8-22.8v-16.1c0-2.5-2-4.6-4.6-4.6c-2.5,0-4.6,2-4.6,4.6v16.1
		c0,7.5-6.1,13.7-13.7,13.7H156.7V111h183.9c7.5,0,13.7,6.1,13.7,13.7v49.1l-28.9,28.9v-18.1c0-3.9-3.1-7-7-7H195.6
		c-3.9,0-7,3.1-7,7v37.7c0,3.9,3.1,7,7,7h103.2L263,265.1c-1.8,1.8-1.8,4.7,0,6.4c1.8,1.8,4.7,1.8,6.4,0l93.1-93.1l6.4,6.4
		L233.6,320.3l-6.4-6.4l28.6-28.6c1.8-1.8,1.8-4.7,0-6.4c-1.8-1.8-4.7-1.8-6.4,0l-31.8,31.8c-0.1,0.1-0.2,0.3-0.3,0.4
		c0,0,0,0.1-0.1,0.1c-0.1,0.1-0.2,0.2-0.3,0.4c0,0,0,0.1-0.1,0.1c-0.1,0.1-0.2,0.3-0.2,0.4c0,0,0,0,0,0.1c-0.1,0.2-0.1,0.4-0.2,0.5
		c0,0,0,0,0,0l-13.7,49l-0.5,1.9c0,0,0,0,0,0c0,0,0,0,0,0c-0.1,0.6-0.2,1.1-0.2,1.7c0,1.7,0.6,3.3,1.7,4.4c0.7,0.7,1.6,1.2,2.5,1.5
		c0.6,0.2,1.2,0.3,1.8,0.3c0.6,0,1.2-0.1,1.8-0.2c0,0,0,0,0.1,0l1.2-0.3l49.7-13.9c0,0,0,0,0,0c0.2-0.1,0.4-0.1,0.5-0.2
		c0,0,0,0,0.1,0c0.1-0.1,0.3-0.1,0.4-0.2c0,0,0.1,0,0.1-0.1c0.1-0.1,0.3-0.2,0.4-0.3c0,0,0.1,0,0.1-0.1c0.1-0.1,0.3-0.2,0.4-0.3
		l91.7-91.7v90.6c0,2.5,2,4.6,4.6,4.6c2.5,0,4.6-2,4.6-4.6V255l54.8-54.8C423.7,194.6,423.7,185.5,418.2,180z M197.7,220.1v-33.4
		h118.5v25.1l-8.3,8.3H197.7z M375.4,191.4l6.4,6.4L246.5,333.2l-6.4-6.4L375.4,191.4z M229,356.3l-12.1-12.1l6.1-21.6l27.7,27.7
		L229,356.3z M214.1,354.3l4.8,4.8l-6.7,1.9L214.1,354.3z M388.3,204.3l6.4,6.4L259.3,346.1l-6.4-6.4 M411.7,193.7l-10.5,10.5
		L369,172l10.5-10.5c1-1,2.3-1.5,3.7-1.5c1.4,0,2.7,0.5,3.7,1.5l24.9,24.9C413.7,188.4,413.7,191.7,411.7,193.7z"/>
</g>
</svg>
