<svg version="1.1" viewBox="0.0 0.0 100.0 100.0" fill="none" stroke="none" stroke-linecap="square" stroke-miterlimit="10" xmlns:xlink="http://www.w3.org/1999/xlink" xmlns="http://www.w3.org/2000/svg"><clipPath id="p.0"><path d="m0 0l100.0 0l0 100.0l-100.0 0l0 -100.0z" clip-rule="nonzero"/></clipPath><g clip-path="url(#p.0)"><path fill="#000000" fill-opacity="0.0" d="m0 0l100.0 0l0 100.0l-100.0 0z" fill-rule="evenodd"/><defs><radialGradient id="p.1" gradientUnits="userSpaceOnUse" gradientTransform="matrix(7.9042324474922605 0.0 0.0 -7.9042324474922605 0.0 0.0)" spreadMethod="pad" cx="7.595518705408484" cy="-6.325724898925925" fx="7.595518705408484" fy="-6.325724898925925" r="7.904232501983643"><stop offset="0.0" stop-color="#ffffff"/><stop offset="1.0" stop-color="#b3b3b3"/></radialGradient></defs><path fill="url(#p.1)" d="m21.028872 98.80315l78.01575 0l0 -84.60341l-13.002884 -13.002884l-65.01286 0z" fill-rule="evenodd"/><defs><radialGradient id="p.2" gradientUnits="userSpaceOnUse" gradientTransform="matrix(7.9042324474922605 0.0 0.0 -7.9042324474922605 0.0 0.0)" spreadMethod="pad" cx="7.595518705408484" cy="-6.325724898925925" fx="7.595518705408484" fy="-6.325724898925925" r="7.904232501983643"><stop offset="0.0" stop-color="#ffffff"/><stop offset="1.0" stop-color="#b3b3b3"/></radialGradient></defs><path fill="url(#p.2)" d="m86.04173 1.1968504l2.6005783 10.4023075l10.402306 2.6005764z" fill-rule="evenodd"/><path fill="#000000" fill-opacity="0.0" d="m86.04173 1.1968504l2.6005783 10.4023075l10.402306 2.6005764l-13.002884 -13.002884l-65.01286 0l0 97.60629l78.01575 0l0 -84.60341" fill-rule="evenodd"/><path fill="#000000" fill-opacity="0.2" d="m86.04173 1.1968504l2.6005783 10.4023075l10.402306 2.6005764z" fill-rule="evenodd"/><path stroke="#000000" stroke-width="1.0" stroke-linejoin="round" stroke-linecap="butt" d="m86.04173 1.1968504l2.6005783 10.4023075l10.402306 2.6005764l-13.002884 -13.002884l-65.01286 0l0 97.60629l78.01575 0l0 -84.60341" fill-rule="evenodd"/><path fill="#ff0000" d="m5.772966 13.665355l62.039368 0l0 24.11811l-62.039368 0z" fill-rule="evenodd"/><path fill="#ff3333" d="m1.7532809 9.645669l70.07874 0l-4.0196915 4.0196857l-62.039368 0z" fill-rule="evenodd"/><path fill="#cb0000" d="m1.7532809 41.80315l4.019685 -4.019684l62.039368 0l4.0196915 4.019684z" fill-rule="evenodd"/><path fill="#ff6666" d="m1.7532809 9.645669l4.019685 4.0196857l0 24.11811l-4.019685 4.019684z" fill-rule="evenodd"/><path fill="#980000" d="m71.83202 9.645669l0 32.157482l-4.0196915 -4.019684l0 -24.11811z" fill-rule="evenodd"/><path fill="#000000" fill-opacity="0.0" d="m1.7532809 9.645669l70.07874 0l0 32.157482l-70.07874 0zm4.019685 4.0196857l62.039368 0l0 24.11811l-62.039368 0zm-4.019685 -4.0196857l4.019685 4.0196857m-4.019685 28.137794l4.019685 -4.019684m66.05906 -28.137798l-4.0196915 4.0196857m4.0196915 28.137794l-4.0196915 -4.019684" fill-rule="evenodd"/><path stroke="#000000" stroke-width="1.0" stroke-linejoin="round" stroke-linecap="butt" d="m1.7532809 9.645669l70.07874 0l0 32.157482l-70.07874 0zm4.019685 4.0196857l62.039368 0l0 24.11811l-62.039368 0zm-4.019685 -4.0196857l4.019685 4.0196857m-4.019685 28.137794l4.019685 -4.019684m66.05906 -28.137798l-4.0196915 4.0196857m4.0196915 28.137794l-4.0196915 -4.019684" fill-rule="evenodd"/><path fill="#000000" fill-opacity="0.0" d="m11.624672 6.3700786l53.51181 0l0 38.70866l-53.51181 0z" fill-rule="evenodd"/><path fill="#ffffff" d="m21.796547 30.73008l0 -11.453125l3.703125 0q2.109375 0 2.75 0.171875q0.984375 0.25 1.640625 1.125q0.671875 0.859375 0.671875 2.21875q0 1.0625 -0.390625 1.78125q-0.375 0.71875 -0.96875 1.125q-0.578125 0.40625 -1.1875 0.546875q-0.828125 0.15625 -2.40625 0.15625l-1.5 0l0 4.328125l-2.3125 0zm2.3125 -9.515625l0 3.25l1.265625 0q1.359375 0 1.8125 -0.171875q0.46875 -0.1875 0.734375 -0.5625q0.265625 -0.390625 0.265625 -0.90625q0 -0.625 -0.375 -1.03125q-0.359375 -0.40625 -0.921875 -0.5q-0.421875 -0.078125 -1.671875 -0.078125l-1.109375 0zm8.34375 -1.9375l4.234375 0q1.421875 0 2.171875 0.21875q1.015625 0.296875 1.734375 1.0625q0.71875 0.75 1.09375 1.84375q0.375 1.09375 0.375 2.703125q0 1.421875 -0.359375 2.4375q-0.421875 1.25 -1.21875 2.03125q-0.609375 0.578125 -1.625 0.90625q-0.765625 0.25 -2.046875 0.25l-4.359375 0l0 -11.453125zm2.3125 1.9375l0 7.578125l1.734375 0q0.96875 0 1.390625 -0.109375q0.5625 -0.140625 0.9375 -0.46875q0.375 -0.34375 0.609375 -1.109375q0.234375 -0.765625 0.234375 -2.09375q0 -1.328125 -0.234375 -2.03125q-0.234375 -0.71875 -0.65625 -1.109375q-0.421875 -0.40625 -1.078125 -0.546875q-0.484375 -0.109375 -1.890625 -0.109375l-1.046875 0zm9.2734375 9.515625l0 -11.453125l7.84375 0l0 1.9375l-5.53125 0l0 2.703125l4.78125 0l0 1.9375l-4.78125 0l0 4.875l-2.3125 0z" fill-rule="nonzero"/><defs><radialGradient id="p.3" gradientUnits="userSpaceOnUse" gradientTransform="matrix(5.307965681117014 0.0 0.0 5.307965681117014 0.0 0.0)" spreadMethod="pad" cx="11.71467678915348" cy="13.322719038038166" fx="11.71467678915348" fy="13.322719038038166" r="5.3079657554626465"><stop offset="0.0" stop-color="#db0000"/><stop offset="1.0" stop-color="#540303"/></radialGradient></defs><path fill="url(#p.3)" d="m45.062992 75.97638l8.559055 0l0 -27.637798l17.11811 0l0 27.637798l8.5590515 0l-17.118107 17.11811z" fill-rule="evenodd"/><path stroke="#000000" stroke-width="1.0" stroke-linejoin="round" stroke-linecap="butt" d="m45.062992 75.97638l8.559055 0l0 -27.637798l17.11811 0l0 27.637798l8.5590515 0l-17.118107 17.11811z" fill-rule="evenodd"/></g></svg>