<?xml version="1.0" encoding="utf-8"?>
<!-- Generator: Adobe Illustrator 23.0.0, SVG Export Plug-In . SVG Version: 6.00 Build 0)  -->
<svg version="1.1" id="Capa_1" xmlns="http://www.w3.org/2000/svg" xmlns:xlink="http://www.w3.org/1999/xlink" x="0px" y="0px"
	 viewBox="0 0 512 512" style="enable-background:new 0 0 512 512;" xml:space="preserve">
<style type="text/css">
	.st0{fill:#6CBD99;}
	.st1{fill:#FBC672;}
	.st2{fill:#FFFFFF;}
	.st3{fill:#FDD9A0;}
	.st4{fill:#EB6666;}
</style>
<circle class="st0" cx="255.3" cy="254.6" r="251.8"/>
<g>
	<rect x="155.9" y="120.2" class="st1" width="206.9" height="253"/>
	<path class="st2" d="M179.3,142.4c0,0,154.8-3.4,162.5,0s40.8,42.5,40.8,42.5s0,203.3-2.6,204.1c-2.6,0.9-200.7,1.7-200.7,1.7
		V142.4z"/>
	<path class="st3" d="M338.8,192.1l43.2,0.7l-15-30.6l-21-17.9c-3.5-3-8.4,0.1-8.3,5.2L338.8,192.1z"/>
	<path class="st4" d="M129.1,170.5c3.4-0.9,129.3,0,129.3,0l3.4,63.8l-10.2,8.5H131.7L129.1,170.5z"/>
	<path d="M332.2,330.9H216.3c-2.3,0-4.2,1.9-4.2,4.2c0,2.3,1.9,4.2,4.2,4.2h115.9c2.3,0,4.2-1.9,4.2-4.2
		C336.4,332.8,334.5,330.9,332.2,330.9z"/>
	<path d="M332.2,301.6H216.3c-2.3,0-4.2,1.9-4.2,4.2c0,2.3,1.9,4.2,4.2,4.2h115.9c2.3,0,4.2-1.9,4.2-4.2
		C336.4,303.5,334.5,301.6,332.2,301.6z"/>
	<path d="M212.2,276.5c0,2.3,1.9,4.2,4.2,4.2h73.8c2.3,0,4.2-1.9,4.2-4.2c0-2.3-1.9-4.2-4.2-4.2h-73.8
		C214,272.3,212.2,274.2,212.2,276.5z"/>
	<path d="M376.3,168l-7.5-8.2v-29.2c0-9.6-7.8-17.4-17.4-17.4H164.8c-9.6,0-17.4,7.8-17.4,17.4v32.9h-7.6c-9.2,0-16.6,7.5-16.6,16.6
		v50.5c0,9.2,7.5,16.6,16.6,16.6h7.6v116.3c0,9.6,7.8,17.4,17.4,17.4h9.5c1,8.3,8.2,14.8,16.8,14.8h179.4c9.3,0,16.9-7.6,16.9-16.9
		V198.9C387.5,184.1,387,179.8,376.3,168z M379,190.3h-31.2c-4.7,0-8.6-3.8-8.6-8.6l0-36.3c5.5,0.4,6.9,2,11.8,7.4
		c0.8,0.9,1.7,1.9,2.6,2.9l8,8.7c0,0,0.1,0.1,0.1,0.1l8.5,9.2C376.7,180.9,378.5,183.9,379,190.3z M155.7,130.7c0-5,4.1-9,9.1-9
		h186.5c5,0,9.1,4,9.1,9v20.1l-0.7-0.8c-0.9-1-1.8-2-2.6-2.8c-6.9-7.6-9.9-10.3-22.1-10.3h0H191.1c-9.3,0-16.9,7.6-16.9,16.9v9.7
		h-18.5V130.7z M379.1,379c0,4.7-3.8,8.6-8.6,8.6H191.1c-4.7,0-8.6-3.8-8.6-8.6v-60.4c0-2.3-1.9-4.2-4.2-4.2c-2.3,0-4.2,1.9-4.2,4.2
		v54.2h-9.4c-5,0-9.1-4-9.1-9V247.4h18.5v52.1c0,2.3,1.9,4.2,4.2,4.2c2.3,0,4.2-1.9,4.2-4.2v-52.1h21.6c2.3,0,4.2-1.9,4.2-4.2
		c0-2.3-1.9-4.2-4.2-4.2h-64.4c-4.6,0-8.3-3.7-8.3-8.3v-50.5c0-4.6,3.7-8.3,8.3-8.3h109.8c4.6,0,8.3,3.7,8.3,8.3v50.5
		c0,4.6-3.7,8.3-8.3,8.3h-26.3c-2.3,0-4.2,1.9-4.2,4.2c0,2.3,1.9,4.2,4.2,4.2h26.3c9.2,0,16.6-7.5,16.6-16.6v-50.5
		c0-9.2-7.5-16.6-16.6-16.6h-67.1v-9.7c0-4.7,3.8-8.6,8.6-8.6h139.7l0,36.4c0,9.3,7.6,16.9,16.9,16.9h31.4v0.2V379z"/>
	<path d="M164.9,187.6h-10c-1.2,0-2.3,0.4-3.1,1.3c-0.9,0.9-1.3,1.9-1.3,3.2v29.5c0,1.2,0.4,2.3,1.3,3.1c0.8,0.8,1.8,1.3,3,1.3
		c1.2,0,2.2-0.4,3-1.3c0.8-0.8,1.3-1.8,1.3-3v-8.6h6.4c3.9,0,7-1.2,9.4-3.5c2.3-2.3,3.5-5.4,3.5-9.2c0-3.8-1.2-6.9-3.7-9.3
		C172.1,188.8,168.9,187.6,164.9,187.6z M168,204.2c-1,1-2.2,1.5-3.6,1.5H159v-10.5h5.5c1.4,0,2.6,0.5,3.6,1.5c1,1,1.4,2.3,1.4,3.8
		C169.5,202,169,203.2,168,204.2z"/>
	<path d="M213.2,197.7c-1.2-2.7-3-4.9-5.2-6.5c-3.1-2.3-7.2-3.4-12.1-3.4h-8.8c-1.2,0-2.3,0.4-3.1,1.3c-0.8,0.9-1.3,1.9-1.3,3v29.3
		c0,1.3,0.4,2.3,1.2,3.1c0.9,0.8,1.9,1.2,3.2,1.2h9.5c5.1,0,9.2-1.4,12.3-4.2c4.1-3.7,6.1-8.7,6.1-14.9
		C215.1,203.3,214.5,200.4,213.2,197.7z M203.6,214.8c-1.8,2.1-4.2,3.1-7.3,3.1h-5v-22.4h4.6c3.2,0,5.8,1,7.7,3
		c1.9,2,2.8,4.7,2.8,8.1C206.3,209.9,205.4,212.7,203.6,214.8z"/>
	<path d="M224.9,226.1c1.2,0,2.2-0.4,3-1.3c0.8-0.8,1.2-1.8,1.2-3v-11.3h8.1c1.2,0,2.1-0.4,2.9-1.1c0.8-0.8,1.2-1.7,1.2-2.7
		c0-1.1-0.4-2-1.2-2.8c-0.8-0.8-1.7-1.1-2.9-1.1h-8.1v-7.4h9.6c1.1,0,2-0.4,2.7-1.2c0.7-0.8,1.1-1.7,1.1-2.7c0-1.1-0.4-2.1-1.1-2.8
		c-0.8-0.8-1.7-1.1-2.7-1.1H225c-1.2,0-2.3,0.4-3.1,1.3c-0.8,0.9-1.3,1.9-1.3,3v29.8c0,1.2,0.4,2.2,1.3,3
		C222.8,225.7,223.8,226.1,224.9,226.1z"/>
</g>
</svg>
