<?xml version="1.0" encoding="utf-8"?>
<!-- Generator: Adobe Illustrator 23.0.0, SVG Export Plug-In . SVG Version: 6.00 Build 0)  -->
<svg version="1.1" id="Capa_1" xmlns="http://www.w3.org/2000/svg" xmlns:xlink="http://www.w3.org/1999/xlink" x="0px" y="0px"
	 viewBox="0 0 512 512" style="enable-background:new 0 0 512 512;" xml:space="preserve">
<style type="text/css">
	.st0{fill:#6CBD99;}
	.st1{fill:none;stroke:#000000;stroke-width:5;stroke-miterlimit:10;}
	.st2{fill-rule:evenodd;clip-rule:evenodd;fill:#FFFFFF;stroke:#000000;stroke-width:7;stroke-miterlimit:10;}
	.st3{fill-rule:evenodd;clip-rule:evenodd;fill:#F9BA55;stroke:#000000;stroke-width:7;stroke-miterlimit:10;}
</style>
<circle class="st0" cx="255.5" cy="258" r="251.8"/>
<g id="Layer_x0020_1">
	<g id="_693339664">
		<path class="st1" d="M422.2,318.3c0.5,8.1,26.6,4.7,34.5-1.8c26.7-22.2,29-91.3-47.7-77.6c-17,3.1-62.9,19.2-70.5-6.4l-1.7,8.1"/>
		<path class="st2" d="M93.4,293h323.4c10.6,0,19.1,8.6,19.1,19.1v18c0,10.6-8.6,19.1-19.1,19.1H93.4c-10.6,0-19.1-8.6-19.1-19.1
			v-18C74.3,301.6,82.8,293,93.4,293z"/>
		<path class="st3" d="M254.6,57c25.3,0,45.8,20.5,45.8,45.8c0,16.6-8.8,31.2-22.1,39.2c8.8,7,14.5,17.7,14.5,29.9
			c0,0.3,0,0.7,0,1.1c7.2-4.9,16-7.6,25.4-7.6c25.3,0,45.8,20.5,45.8,45.8S343.5,257,318.2,257s-45.8-20.5-45.8-45.8
			c0-1.9,0.1-3.8,0.3-5.6c-5.4,2.9-11.6,4.5-18.1,4.5c-5.9,0-11.5-1.3-16.5-3.7c0.1,1.6,0.3,3.2,0.3,4.8c0,25.3-20.5,45.8-45.8,45.8
			s-45.9-20.5-45.9-45.8s20.5-45.8,45.9-45.8c8.7,0,16.9,2.5,23.9,6.7V172c0-12.2,5.6-22.9,14.4-29.9c-13.2-8-22.1-22.6-22.1-39.2
			C208.9,77.5,229.3,57,254.6,57z"/>
		<g>
			<path d="M249.9,180.5v14.7h-9.6v-42.8h15.1c10.8,0,16.2,4.5,16.2,13.6c0,4.3-1.5,7.8-4.6,10.4c-3.1,2.7-7.2,4-12.4,4h-4.7V180.5z
				 M249.9,159.9v13.3h3.8c5.1,0,7.7-2.2,7.7-6.7c0-4.4-2.6-6.6-7.7-6.6H249.9z"/>
		</g>
		<g>
			<path d="M99.3,326.4v9.5h-6.2v-27.5h9.7c6.9,0,10.4,2.9,10.4,8.8c0,2.8-1,5-3,6.7s-4.6,2.6-8,2.6h-2.9V326.4z M99.3,313.2v8.6
				h2.4c3.3,0,4.9-1.4,4.9-4.3c0-2.8-1.6-4.2-4.9-4.2h-2.4V313.2z"/>
			<path d="M140.3,335.9h-7.1l-4.3-7.1c-0.3-0.5-0.6-1-0.9-1.4s-0.6-0.8-0.9-1.1c-0.3-0.3-0.6-0.5-0.9-0.7s-0.7-0.2-1.1-0.2h-1.7
				v10.5h-6.2v-27.5h9.8c6.7,0,10,2.5,10,7.5c0,1-0.1,1.8-0.4,2.7s-0.7,1.5-1.2,2.2s-1.2,1.2-1.9,1.7c-0.8,0.5-1.6,0.8-2.5,1.1v0.1
				c0.4,0.1,0.8,0.3,1.2,0.6c0.4,0.3,0.8,0.6,1.1,1c0.4,0.4,0.7,0.8,1,1.2c0.3,0.4,0.6,0.9,0.9,1.3L140.3,335.9z M123.5,313v7.6h2.7
				c1.3,0,2.4-0.4,3.2-1.2c0.8-0.8,1.2-1.7,1.2-2.9c0-2.4-1.4-3.6-4.3-3.6h-2.8V313z"/>
			<path d="M154.5,336.4c-3.9,0-7.1-1.3-9.6-3.8c-2.5-2.6-3.7-5.9-3.7-10c0-4.3,1.3-7.9,3.8-10.5c2.5-2.7,5.9-4,10-4
				c3.9,0,7.1,1.3,9.5,3.9s3.6,6,3.6,10.2c0,4.3-1.3,7.8-3.8,10.4C161.8,335.1,158.5,336.4,154.5,336.4z M154.8,313.3
				c-2.2,0-3.9,0.8-5.2,2.4s-1.9,3.8-1.9,6.5s0.6,4.9,1.9,6.5c1.3,1.6,3,2.4,5,2.4c2.1,0,3.8-0.8,5.1-2.3s1.9-3.7,1.9-6.4
				c0-2.8-0.6-5.1-1.8-6.7C158.5,314.1,156.9,313.3,154.8,313.3z"/>
			<path d="M195.2,334.1c-2.7,1.5-6,2.3-10,2.3c-4.4,0-7.9-1.2-10.5-3.7c-2.5-2.4-3.8-5.8-3.8-10.1c0-4.3,1.4-7.8,4.2-10.6
				c2.8-2.7,6.5-4.1,11.1-4.1c2.9,0,5.5,0.4,7.7,1.2v5.8c-2.1-1.2-4.7-1.8-7.8-1.8c-2.6,0-4.7,0.8-6.3,2.5s-2.4,3.9-2.4,6.7
				c0,2.8,0.7,5,2.2,6.6c1.5,1.5,3.4,2.3,5.9,2.3c1.5,0,2.7-0.2,3.5-0.6v-5.4h-5.5v-4.9h11.7L195.2,334.1L195.2,334.1z"/>
			<path d="M223.6,335.9h-7.1l-4.3-7.1c-0.3-0.5-0.6-1-0.9-1.4s-0.6-0.8-0.9-1.1c-0.3-0.3-0.6-0.5-0.9-0.7c-0.3-0.2-0.7-0.2-1.1-0.2
				h-1.7v10.5h-6.2v-27.5h9.8c6.7,0,10,2.5,10,7.5c0,1-0.1,1.8-0.4,2.7s-0.7,1.5-1.2,2.2s-1.2,1.2-1.9,1.7c-0.8,0.5-1.6,0.8-2.5,1.1
				v0.1c0.4,0.1,0.8,0.3,1.2,0.6c0.4,0.3,0.8,0.6,1.1,1c0.4,0.4,0.7,0.8,1,1.2c0.3,0.4,0.6,0.9,0.9,1.3L223.6,335.9z M206.8,313v7.6
				h2.7c1.3,0,2.4-0.4,3.2-1.2c0.8-0.8,1.2-1.7,1.2-2.9c0-2.4-1.4-3.6-4.3-3.6h-2.8V313z"/>
			<path d="M250.4,335.9h-6.7l-2-6.1h-9.8l-1.9,6.1h-6.7l10-27.5h7.3L250.4,335.9z M240.2,325l-3-9.2c-0.2-0.7-0.4-1.5-0.5-2.5h-0.2
				c-0.1,0.8-0.2,1.6-0.5,2.4l-3,9.3L240.2,325L240.2,325z"/>
			<path d="M285.1,335.9H279v-16.4c0-1.8,0.1-3.7,0.2-5.9H279c-0.3,1.7-0.6,2.9-0.9,3.6l-6.4,18.7h-5.1l-6.6-18.5
				c-0.2-0.5-0.5-1.8-0.9-3.8h-0.2c0.2,2.7,0.2,5.1,0.2,7.1v15.2h-5.6v-27.5h9.1l5.6,16.3c0.4,1.3,0.8,2.6,1,3.9h0.1
				c0.3-1.5,0.7-2.8,1.1-4l5.6-16.3h8.8v27.6H285.1z"/>
			<path d="M315.5,335.9h-6.7l-2-6.1H297l-1.9,6.1h-6.7l10-27.5h7.3L315.5,335.9z M305.4,325l-3-9.2c-0.2-0.7-0.4-1.5-0.5-2.5h-0.2
				c-0.1,0.8-0.2,1.6-0.5,2.4l-3,9.3L305.4,325L305.4,325z"/>
			<path d="M319,335.9v-27.5h9.7c9.8,0,14.6,4.5,14.6,13.4c0,4.3-1.3,7.7-4,10.3c-2.7,2.6-6.2,3.8-10.6,3.8L319,335.9L319,335.9z
				 M325.2,313.5v17.4h3.1c2.7,0,4.8-0.8,6.3-2.4s2.3-3.8,2.3-6.6c0-2.6-0.8-4.7-2.3-6.2s-3.6-2.3-6.4-2.3h-3V313.5z"/>
			<path d="M359.5,336.4c-3.9,0-7.1-1.3-9.6-3.8c-2.5-2.6-3.7-5.9-3.7-10c0-4.3,1.3-7.9,3.8-10.5c2.5-2.7,5.9-4,10-4
				c3.9,0,7.1,1.3,9.5,3.9s3.6,6,3.6,10.2c0,4.3-1.3,7.8-3.8,10.4C366.8,335.1,363.6,336.4,359.5,336.4z M359.8,313.3
				c-2.2,0-3.9,0.8-5.2,2.4c-1.3,1.6-1.9,3.8-1.9,6.5s0.6,4.9,1.9,6.5s3,2.4,5,2.4c2.1,0,3.8-0.8,5.1-2.3c1.3-1.5,1.9-3.7,1.9-6.4
				c0-2.8-0.6-5.1-1.8-6.7C363.6,314.1,361.9,313.3,359.8,313.3z"/>
			<path d="M376.4,334.8v-6.1c1.1,0.9,2.3,1.6,3.6,2.1c1.3,0.5,2.6,0.7,3.9,0.7c0.8,0,1.5-0.1,2-0.2c0.6-0.1,1.1-0.3,1.5-0.6
				c0.4-0.3,0.7-0.5,0.9-0.9c0.2-0.3,0.3-0.7,0.3-1.1c0-0.5-0.2-1-0.5-1.4s-0.7-0.8-1.3-1.2s-1.2-0.7-1.9-1s-1.5-0.7-2.4-1
				c-2.1-0.9-3.7-2-4.8-3.3c-1.1-1.3-1.6-2.8-1.6-4.7c0-1.4,0.3-2.7,0.9-3.7s1.4-1.9,2.3-2.5c1-0.7,2.1-1.2,3.4-1.5s2.7-0.5,4.1-0.5
				s2.7,0.1,3.8,0.3c1.1,0.2,2.1,0.4,3.1,0.8v5.7c-0.5-0.3-1-0.6-1.5-0.8c-0.5-0.2-1.1-0.4-1.7-0.6s-1.1-0.3-1.7-0.4
				s-1.1-0.1-1.6-0.1c-0.7,0-1.3,0.1-1.9,0.2s-1.1,0.3-1.5,0.6c-0.4,0.2-0.7,0.5-0.9,0.9c-0.2,0.3-0.3,0.7-0.3,1.1
				c0,0.5,0.1,0.9,0.4,1.2s0.6,0.7,1,1s1,0.6,1.6,1c0.6,0.3,1.4,0.6,2.2,1c1.1,0.5,2.1,0.9,3,1.5c0.9,0.5,1.6,1.1,2.3,1.8
				s1.1,1.4,1.4,2.2s0.5,1.8,0.5,2.9c0,1.5-0.3,2.8-0.9,3.9c-0.6,1-1.4,1.9-2.4,2.5s-2.2,1.1-3.5,1.4s-2.7,0.4-4.2,0.4
				s-2.9-0.1-4.3-0.4C378.6,335.7,377.4,335.4,376.4,334.8z"/>
		</g>
		<g>
			<path d="M102,403.7c-1.7,0.5-6.5,1.9-10.8,1.9c-11.7,0-17.8-6-17.8-16.2c0-6.6,3.3-11.6,8.8-14c2.8-1.3,5.8-1.9,9.7-1.9
				c4.1,0,6.8,0.8,9.9,1.1c-0.4,2-0.8,5.9-0.9,8c-0.1,0.2-1.6,0.4-1.8,0.1c-0.4-3.6-1-5.1-2.4-6c-1.5-0.9-3.4-1.4-6.7-1.4
				c-7.6,0-11.2,5.5-11.2,13.3c0,8.5,4.5,14.9,13.4,14.9c1.4,0,2.5-0.2,3.2-0.6c0.6-0.3,0.9-1.3,1-2c0.2-1.5,0.1-3.2,0.1-4.9
				c0-1.6-0.3-2.2-1.8-2.6c-0.9-0.2-1.9-0.3-3.5-0.5c-0.3-0.2-0.1-1.5,0-1.6c1.4,0,3.8,0.1,7.1,0.1c3.1,0,4.6-0.1,5.6-0.1
				c0.1,0.2,0.1,1.5,0,1.7c-0.6,0.1-1.2,0.2-1.7,0.3c-0.9,0.3-1.2,0.9-1.2,2.3c0,1.5,0,4.6,0,5.4c0,0.7,0.2,1,1.3,1.4
				C102.3,402.7,102.2,403.5,102,403.7z"/>
			<path d="M107.4,374.2c1,0,4,0.1,6.5,0.1c2.6,0,5.2-0.1,6.5-0.1c0.2,0.2,0.2,1.3,0,1.5c-1.1,0.1-2,0.2-2.6,0.4
				c-1.2,0.3-1.4,0.9-1.4,2.5c-0.1,2.1-0.1,6-0.1,10.3c0,4.8,0,9.5,0.1,11.2c0,1.5,0.3,2.2,1.8,2.6c0.7,0.1,1.8,0.3,3.1,0.5
				c0.2,0.1,0.1,1.4-0.1,1.6c-1.1,0-4.1-0.1-6.6-0.1c-2.9,0-5.7,0.1-7,0.1c-0.2-0.1-0.2-1.4,0-1.6c1.1-0.1,1.9-0.2,2.6-0.4
				c1.5-0.3,1.7-1,1.8-2.1c0.2-1.4,0.2-5.8,0.2-12.8c0-4.1,0-7.1-0.1-9.5c-0.1-1.3-0.2-2-1.3-2.2c-0.8-0.2-1.7-0.4-3.1-0.6
				C107.2,375.5,107.3,374.4,107.4,374.2z"/>
			<path d="M124,374.2c0.9,0,4.6,0.1,6.1,0.1c2.9,0,4.9-0.2,9.6-0.2c4.3,0,8,1.2,10.6,3.4c3.2,2.8,4.7,6.6,4.7,11.2
				c0,6.7-3.2,10.6-6.2,12.8c-3.1,2.2-6.8,3.3-12,3.3c-2.9,0-7-0.1-11.2-0.1h-2.2c-0.2-0.3-0.2-1.4,0-1.6c1.6-0.1,2.5-0.3,3.3-0.5
				c0.9-0.2,1.5-0.6,1.6-2.4c0.1-3.1,0.1-7,0.1-11.3c0-3,0-8.7-0.1-10.5c-0.1-1.6-0.6-2.1-1.9-2.3c-0.6-0.2-1.5-0.3-2.7-0.5
				C123.8,375.5,123.8,374.4,124,374.2z M134,401.8c1,0.8,3.2,1.1,5.2,1.1c2.4,0,4.8-0.5,7.1-2.6c2.3-2.2,3.8-5.4,3.8-10.7
				c0-5-1.8-9.1-5.6-11.6c-2.2-1.4-5.1-2-8.5-2c-1,0-2,0-2.5,0.2c-0.2,0.1-0.4,0.4-0.5,0.8c-0.1,1-0.1,7.8-0.1,11.9
				c0,4.2,0,9.8,0.1,10.8C133.1,400.4,133.3,401.3,134,401.8z"/>
			<path d="M159.5,374.2c1.1,0,3.7,0.1,6.3,0.1h11.8c1.8,0,3.8,0,4.8-0.2c0.1,0,0.2,0.2,0.2,0.3c-0.3,1.2-0.6,4.3-0.7,7
				c-0.2,0.2-1.6,0.4-1.8,0.1c-0.2-1.5-0.4-2.3-0.7-3.3c-0.4-1.1-0.9-1.6-2.2-1.7c-1.8-0.1-7.1-0.1-8.4,0c-0.3,0-0.6,0.6-0.6,0.9
				c0,3.1-0.1,7.5-0.1,10.9c0,0.1,0.1,0.2,0.2,0.2c2.5,0,6.5,0,8.1-0.1c1.1-0.1,1.5-0.7,1.8-1.6c0.2-0.6,0.4-1.3,0.6-2.1
				c0.3-0.1,1.6-0.1,1.9,0.1c-0.1,1.2-0.3,3.3-0.3,5.1s0,3.4,0.1,4.9c-0.3,0.2-1.4,0.2-1.8,0.1c-0.2-1.1-0.4-1.6-0.6-2.2
				c-0.3-1.1-0.8-1.6-1.8-1.6c-1.8-0.1-6.8-0.1-8.1-0.1c-0.1,0-0.2,0.2-0.2,0.2c0,3,0,6.9,0.1,9c0,1.6,0.3,2.2,1.8,2.5
				c1,0.2,2.1,0.4,3.4,0.5c0.2,0.2,0.1,1.4-0.1,1.6c-1.6,0-3.7-0.1-7.6-0.1c-3.2,0-4.8,0.1-6.5,0.1c-0.2-0.1-0.2-1.4,0-1.6
				c1.1-0.1,2.1-0.3,2.7-0.4c1.4-0.4,1.7-0.8,1.7-2.6c0.1-1.8,0.1-5.2,0.1-11.1c0-5.5,0-9-0.1-10.5c-0.1-1.6-0.3-2.1-1.4-2.4
				c-0.7-0.1-1.6-0.3-2.8-0.5C159.2,375.5,159.4,374.4,159.5,374.2z"/>
			<path d="M186.2,374.2c1,0,4,0.1,6.5,0.1c2.6,0,5.2-0.1,6.5-0.1c0.2,0.2,0.2,1.3,0,1.5c-1.1,0.1-2,0.2-2.6,0.4
				c-1.2,0.3-1.4,0.9-1.4,2.5c-0.1,2.1-0.1,6-0.1,10.3c0,4.8,0,9.5,0.1,11.2c0,1.5,0.3,2.2,1.8,2.6c0.7,0.1,1.8,0.3,3.1,0.5
				c0.2,0.1,0.1,1.4-0.1,1.6c-1.1,0-4.1-0.1-6.6-0.1c-2.9,0-5.7,0.1-7,0.1c-0.2-0.1-0.2-1.4,0-1.6c1.1-0.1,1.9-0.2,2.6-0.4
				c1.5-0.3,1.7-1,1.8-2.1c0.2-1.4,0.2-5.8,0.2-12.8c0-4.1,0-7.1-0.1-9.5c-0.1-1.3-0.2-2-1.3-2.2c-0.8-0.2-1.7-0.4-3.1-0.6
				C186,375.5,186,374.4,186.2,374.2z"/>
			<path d="M208.5,402.2c1.2,0.9,3,1.4,4.8,1.4c2.4,0,5.2-1.4,5.2-5.1c0-3.2-2-4.6-6.5-7.2s-7.4-5-7.4-9.5c0-5.3,4.4-8.4,9.8-8.4
				c3.5,0,5.6,0.6,7.7,0.8c-0.3,1.6-0.6,4.5-0.8,7c-0.1,0.2-1.4,0.2-1.6,0c-0.3-2.9-0.7-4.3-1.9-5.1c-1.1-0.7-2.6-1-4-1
				c-3.3,0-5.1,2.6-5.1,5c0,2.8,1.2,4.1,3.3,5.5c2,1.3,4.6,2.5,6.3,3.5c2.6,1.6,4.7,3.7,4.7,7.3c0,4.8-4,9.2-11.1,9.2
				c-3,0-6-1-7.2-1.5c-0.4-0.6-1.3-5.8-1.5-7.5c0.1-0.4,1.4-0.7,1.7-0.5C205.8,399,206.8,401,208.5,402.2z"/>
			<path d="M244.2,369.7V420h-3.3v-50.2L244.2,369.7L244.2,369.7z"/>
			<path d="M261.1,374.2c0.9,0,4.1,0.1,6.4,0.1s4.8-0.1,6-0.1c0.2,0.1,0.2,1.3,0,1.5c-1.1,0.2-1.8,0.3-2.5,0.5
				c-1.2,0.3-1.5,0.9-1.5,2.5c-0.1,5.1,0,11.2,0,13.8c0.1,1.7,0.3,3.6,0.8,4.6c0.7,3,3.6,5.5,8.7,5.5c3.9,0,8-1.1,8.5-8.9
				c0.2-3.8,0.3-9.2,0.1-14.1c0-2.4-0.5-3.1-2.2-3.4c-0.7-0.1-1.5-0.2-2.7-0.4c-0.2-0.2-0.1-1.4,0-1.6c1,0,3.3,0.1,6.2,0.1
				c2.2,0,4.7-0.1,5.5-0.1c0.2,0.1,0.2,1.4,0,1.6c-0.7,0.1-1.5,0.3-2.2,0.5c-1.4,0.4-1.7,1.3-1.8,3.6c-0.3,9.8-0.1,13.6-1,17.1
				c-1.5,6.5-6.9,8.6-12.1,8.6c-7.9,0-11.3-3.6-12-8.9c-0.3-3.2-0.3-15.8-0.4-18.1c0-1.2-0.4-2-1.4-2.4c-0.6-0.2-1.7-0.3-2.6-0.5
				C260.8,375.6,260.8,374.4,261.1,374.2z"/>
			<path d="M295.9,374.2c1.3,0,3.8,0.1,6.5,0.1c0.9,0,1.9,0,2.2,0c0.2,0.5,0.5,1,1.8,2.7c4.9,6.3,14.8,18.2,17.2,21.1
				c0,0,0.1,0,0.1-0.1c0-6.8,0.1-15.3-0.1-19c-0.1-1.5-0.4-2.2-1.9-2.6c-0.9-0.2-2-0.4-3.4-0.6c-0.2-0.2-0.2-1.4,0-1.5
				c1.3,0,3.5,0.1,6.8,0.1c1.7,0,4.7-0.1,5.4-0.1c0.2,0.2,0.2,1.3,0,1.5c-0.9,0.2-1.6,0.3-2.2,0.5c-1.3,0.4-1.6,1.3-1.7,2.7
				c-0.2,3.8-0.2,9.1-0.4,19.2c0,2.3,0,5.2,0.1,6.8c-0.5-0.1-3,0-3.5,0c-2.7-3.8-15.8-20.2-18.9-24.1c-0.1-0.1-0.2,0-0.2,0
				c0,5.1-0.1,16.3,0.1,19.1c0.1,1.8,0.7,2.6,2,2.9c0.7,0.2,1.8,0.3,3.1,0.5c0.2,0.2,0.1,1.4-0.1,1.6c-1.3,0-3.5-0.1-6.4-0.1
				c-3.2,0-5.1,0.1-6.2,0.1c-0.2-0.1-0.2-1.4,0-1.6c1.1-0.1,2-0.3,2.7-0.5c1.1-0.3,1.8-1,1.9-2.8c0.1-2.7,0.3-10.4,0.4-20.7
				c0-0.8-0.2-1.9-1.4-2.5c-0.9-0.5-2-0.8-3.9-1C295.6,375.6,295.7,374.4,295.9,374.2z"/>
			<path d="M333.4,374.2c1.5,0,3.2,0.1,6.5,0.1c3.5,0,5.3-0.1,6.3-0.1c0.2,0.2,0.2,1.3,0,1.5c-1.3,0.2-2,0.3-2.6,0.5
				c-1.2,0.3-1.3,0.9-1.4,1.9c-0.1,1.8-0.1,5.7-0.1,10.5c0,6.5,0,10.1,0.1,12.2c0,0.8,0.7,1.3,1,1.4c1.3,0.4,5.9,0.4,8.1,0.3
				c1.1,0,2-0.3,3-1.9c0.9-1.3,2.1-3.5,2.9-5.5c0.4-0.1,1.4,0.3,1.6,0.6c-0.3,1.9-1.7,6.9-2.6,8.4c-0.2,0.4-0.7,0.6-2.1,0.6
				c-3.3,0-11.7-0.2-14.3-0.2c-2.4,0-6.4,0.1-7.3,0.1c-0.2-0.1-0.2-1.4,0-1.6c1.6-0.2,2.5-0.3,3.4-0.5c1.2-0.3,1.4-0.9,1.5-1.9
				c0.1-1.3,0.2-7.1,0.2-12.3c0-5.2,0-8.2,0-9.5c-0.1-2-0.3-2.6-1.6-2.8c-0.6-0.2-1.8-0.3-2.8-0.5
				C333,375.5,333.1,374.4,333.4,374.2z"/>
			<path d="M366.1,398.6c2.4-5.7,7.1-18.2,8.2-21.3c0.4-1.1,0.8-2.3,0.9-3c0.2,0,0.8,0,1.7,0c1,0,1.6,0,1.7,0
				c0.2,0.8,0.5,1.7,0.8,2.7c1,2.8,6.5,18,8.2,22.2c1.5,3.4,1.9,3.6,5.5,4.1c0.2,0.1,0.1,1.4-0.1,1.6c-1.3,0-3.7-0.1-6.2-0.1
				c-2.6,0-5.7,0.1-6.7,0.1c-0.1-0.2-0.2-1.4,0-1.6c1.1-0.2,2-0.3,2.7-0.5c0.7-0.3,0.7-0.8,0.6-1.3c-0.6-2.1-2-6-2.9-8.1
				c0-0.2-0.3-0.3-0.4-0.3c-0.8,0-2.7,0-4.8,0c-3.2,0-3.5,0-4,0c-0.2,0-0.5,0.3-0.5,0.4c-1,2.7-2.5,6.5-2.5,7.6c0,0.9,0,1.4,1.6,1.7
				c0.6,0.1,1.5,0.3,2.4,0.4c0.2,0.1,0.1,1.4-0.1,1.6c-1,0-3.5-0.1-6.5-0.1c-2.9,0-4.5,0.1-5.4,0.1c-0.2-0.2-0.2-1.4,0-1.6
				C363.8,402.8,364.5,402.4,366.1,398.6z M375.6,379.7c-0.8,2.5-2.8,7.7-3.6,10.4c0,0.1,0,0.3,0.2,0.3c0.5,0,2.2,0,3.9,0
				c1.2,0,2.7,0,3.3,0c0.1,0,0.3-0.2,0.2-0.4c-1-2.9-2.9-8.3-3.7-10.4C375.8,379.6,375.6,379.6,375.6,379.7z"/>
			<path d="M394.8,374.2c1.8,0,4.1,0.1,9.3,0.1c0.1,1,0.4,1.7,0.9,2.9c2.7,6,8.5,18.2,9.3,19.6c0,0,0.1,0,0.2,0
				c0.8-1.5,7.3-15,9.5-19.8c0.4-1,0.7-1.8,0.8-2.6c4.9,0,6.8-0.1,9-0.1c0.2,0.1,0.2,1.3,0,1.5c-1.6,0.2-2.6,0.4-3.3,0.6
				c-0.9,0.2-1.4,0.8-1.4,2c-0.1,3.1,0.3,18.4,0.6,21.7c0.1,1.7,0.4,2.4,1.9,2.8c0.7,0.1,1.6,0.2,2.8,0.4c0.2,0.2,0.1,1.3-0.1,1.6
				c-1.2,0-3.5-0.1-6.6-0.1c-2.8,0-5.5,0.1-6.8,0.1c-0.1-0.2-0.2-1.3,0-1.6c1.2-0.2,2.1-0.4,2.8-0.6c1.1-0.3,1.3-1.1,1.3-2.1
				c0-3.3-0.1-15.7-0.1-20.2c0,0-0.2-0.1-0.3,0c-1.3,3.1-9.3,19.5-10.9,24.3c-0.2,0.1-1.4,0.1-1.6,0.1c-1.2-4.1-8.3-19.7-10.2-24.3
				c-0.1-0.1-0.2,0-0.3,0.1c-0.3,4.4-0.9,14.7-1,19.1c0,1.7,0.1,2.6,1.7,3.1c0.8,0.2,1.7,0.4,3.2,0.6c0.2,0.2,0.1,1.4-0.1,1.6
				c-0.9,0-3.5-0.1-6.1-0.1c-2.8,0-5.2,0.1-6.1,0.1c-0.2-0.2-0.2-1.4,0-1.6c1-0.2,1.8-0.3,2.5-0.5c1.5-0.4,1.8-1,2.1-3.3
				c0.5-3.9,1.5-16.2,1.8-20.8c0-0.9-0.3-1.8-1.3-2.1c-0.8-0.2-1.8-0.4-3.5-0.7C394.4,375.6,394.5,374.3,394.8,374.2z"/>
		</g>
		<g>
			<path d="M256.1,84.5l-1.7,9.1h5.8l1.6-9.1h3.7l-1.6,9.1h4.3v3.8h-5l-1.3,7.2h4.7v3.8h-5.5l-1.8,9.9h-3.6l1.7-9.9h-5.8l-1.9,9.9
				h-3.5l1.7-9.9h-4.7v-3.8h5.4l1.3-7.2H245v-3.8h5.6l1.7-9.1H256.1z M252.6,104.6h5.8l1.3-7.2h-5.8L252.6,104.6z"/>
		</g>
		<g>
			<path d="M298.9,208.3c2.2-1,3.3-3.4,3.3-6.7v-8.1c0-3.6,2.5-5.9,3.8-5.9h3.5v3.7h-1.8c-1.4,0-1.4,1.3-1.4,2.8v8.2
				c0,5.1-2.8,7.3-3.4,7.7c0.6,0.4,3.4,2.5,3.4,7.6v8.2c0,1.5,0,2.8,1.4,2.8h1.8v3.7H306c-1.3,0-3.8-2.3-3.8-5.9v-8.1
				c0-3.3-1.1-5.7-3.3-6.7L298.9,208.3L298.9,208.3z"/>
			<path d="M337.3,211.5c-2.2,1-3.3,3.4-3.3,6.7v8.1c0,3.6-2.5,5.9-3.8,5.9h-3.5v-3.7h1.8c1.4,0,1.4-1.3,1.4-2.8v-8.2
				c0-5.1,2.8-7.3,3.4-7.6c-0.6-0.4-3.4-2.5-3.4-7.7V194c0-1.5,0-2.8-1.4-2.8h-1.8v-3.7h3.5c1.3,0,3.8,2.3,3.8,5.9v8.1
				c0,3.3,1.1,5.7,3.3,6.7V211.5z"/>
		</g>
		<g>
			<path d="M183.8,206.7l-18,6.9l18,6.9v4.4l-24-9.7V212l24-9.7V206.7z"/>
			<path d="M200.4,202.3l24,9.7v3.3l-24,9.7v-4.4l18-6.9l-18-6.9V202.3z"/>
		</g>
	</g>
</g>
</svg>
