<?xml version="1.0" encoding="utf-8"?>
<!-- Generator: Adobe Illustrator 23.0.0, SVG Export Plug-In . SVG Version: 6.00 Build 0)  -->
<svg version="1.1" id="Capa_1" xmlns="http://www.w3.org/2000/svg" xmlns:xlink="http://www.w3.org/1999/xlink" x="0px" y="0px"
	 viewBox="0 0 512 512" style="enable-background:new 0 0 512 512;" xml:space="preserve">
<style type="text/css">
	.st0{fill:#6CBD99;}
	.st1{fill:#F9BA55;}
	.st2{fill:#FFFFFF;}
	.st3{fill:#A8DBF7;}
</style>
<title>035 - Creative Thinking</title>
<desc>Created with Sketch.</desc>
<g>
	<circle class="st0" cx="255.7" cy="259" r="251.8"/>
	<g>
		<path class="st1" d="M302.8,114.2h45.1c13.9,0,25.1,11.3,25.1,25.3v259.8c0,14-11.2,25.3-25.1,25.3H157.3
			c-13.9,0-25.1-11.3-25.1-25.3V139.6c0-14,11.2-25.3,25.1-25.3h42.8H302.8z"/>
		<path class="st2" d="M341,404.9H161c-3.5,0-6.4-2.9-6.4-6.4V145.4c0-3.5,2.9-6.4,6.4-6.4h179.9c3.5,0,6.4,2.9,6.4,6.4v253.2
			C347.4,402.1,344.5,404.9,341,404.9z"/>
		<path class="st3" d="M281.1,105.8c-3-10.8-12.7-18.7-24.5-18.7h-1.1c-11.7,0-21.5,8-24.5,18.7h-14.7c-6,0-10.9,4.9-10.9,10.9v21.1
			h101.4v-21.1c0-6-4.9-10.9-10.9-10.9H281.1z"/>
		<path d="M374.8,265.6c-1.7,0-3.3,0.6-4.5,1.9c-1.2,1.3-1.9,2.9-1.9,4.5c0,1.7,0.6,3.3,1.9,4.5c1.2,1.2,2.9,1.9,4.5,1.9
			c1.6,0,3.3-0.6,4.5-1.9c1.2-1.2,1.9-2.8,1.9-4.5s-0.6-3.3-1.9-4.5C378,266.3,376.3,265.6,374.8,265.6z"/>
		<path d="M256.6,229.2c1.4,0,2.6-0.5,3.6-1.5c0.9-0.9,1.5-2.3,1.5-3.6s-0.5-2.6-1.5-3.6c-0.9-0.9-2.3-1.5-3.6-1.5
			c-1.3,0-2.6,0.5-3.6,1.5c-0.9,0.9-1.5,2.3-1.5,3.6s0.5,2.6,1.5,3.6C253.9,228.6,255.2,229.2,256.6,229.2z"/>
		<path d="M273.7,224.1c0,2.8,2.3,5.1,5.1,5.1H309c2.8,0,5.1-2.3,5.1-5.1s-2.3-5.1-5.1-5.1h-30.1C276,219,273.7,221.3,273.7,224.1z"
			/>
		<path d="M308.9,278.5h-52.3c-2.8,0-5.1,2.3-5.1,5.1c0,2.8,2.3,5.1,5.1,5.1h52.3c2.8,0,5.1-2.3,5.1-5.1
			C313.9,280.7,311.7,278.5,308.9,278.5z"/>
		<path d="M308.9,339.2h-52.3c-2.8,0-5.1,2.3-5.1,5.1c0,2.8,2.3,5.1,5.1,5.1h52.3c2.8,0,5.1-2.3,5.1-5.1
			C313.9,341.4,311.7,339.2,308.9,339.2z"/>
		<path d="M200.5,229.2h24.2c2.8,0,5.1-2.3,5.1-5.1s-2.3-5.1-5.1-5.1h-19.2v-19.2c0-2.8-2.3-5.1-5.1-5.1s-5.1,2.3-5.1,5.1v24.3
			C195.4,226.9,197.7,229.2,200.5,229.2z"/>
		<path d="M228.2,194.7l-6.9,6.9l-0.6-0.6c-1.9-1.9-5.2-1.9-7.2,0c-1.9,1.9-1.9,5.2,0,7.2l4.1,4.1c1,1,2.3,1.5,3.6,1.5
			s2.6-0.5,3.6-1.5l10.6-10.6c1.9-1.9,1.9-5.2,0-7.2C233.4,192.6,230.2,192.6,228.2,194.7z"/>
		<path d="M200.5,288.4h24.2c2.8,0,5.1-2.3,5.1-5.1c0-2.8-2.3-5.1-5.1-5.1h-19.2v-19.2c0-2.8-2.3-5.1-5.1-5.1s-5.1,2.3-5.1,5.1v24.4
			C195.4,286.2,197.7,288.4,200.5,288.4z"/>
		<path d="M228.2,253.9l-6.9,6.9l-0.6-0.6c-1.9-1.9-5.2-1.9-7.2,0c-1.9,1.9-1.9,5.2,0,7.2l4.1,4.1c1,1,2.3,1.5,3.6,1.5
			s2.6-0.5,3.6-1.5l10.6-10.6c1.9-1.9,1.9-5.2,0-7.2C233.4,252,230.2,252,228.2,253.9z"/>
		<path d="M224.7,339.2h-19.2v-19.2c0-2.8-2.3-5.1-5.1-5.1s-5.1,2.3-5.1,5.1v24.3c0,2.8,2.3,5.1,5.1,5.1h24.3c2.8,0,5.1-2.3,5.1-5.1
			C229.7,341.4,227.5,339.2,224.7,339.2z"/>
		<path d="M228.2,314.7l-6.9,6.9l-0.6-0.6c-1.9-1.9-5.2-1.9-7.2,0c-1.9,1.9-1.9,5.2,0,7.2l4.1,4.1c1,1,2.3,1.5,3.6,1.5
			s2.6-0.5,3.6-1.5l10.6-10.6c1.9-1.9,1.9-5.2,0-7.2C233.4,312.8,230.2,312.8,228.2,314.7z"/>
		<path d="M349.6,108.9h-46.7c-2.9-3.7-7.3-6.1-12.4-6.1h-9.4c-4.6-10.2-14.9-17-26.4-17h-1c-11.5,0-21.7,6.9-26.4,17h-9.5
			c-5,0-9.5,2.4-12.4,6.1h-46.7c-15.9,0-28.9,12.9-28.9,28.9v265.7c0,15.9,12.9,28.9,28.9,28.9h190.5c15.9,0,28.9-12.9,28.9-28.9
			v-96.9c0-3.2-2.6-5.8-5.8-5.8c-3.2,0-5.8,2.6-5.8,5.8v96.9c0,9.6-7.7,17.3-17.3,17.3H159.1c-9.6,0-17.3-7.7-17.3-17.3V137.7
			c0-9.6,7.7-17.3,17.3-17.3h43.4V132h-37.6c-6.4,0-11.6,5.2-11.6,11.6v254.2c0,6.4,5.2,11.6,11.6,11.6h179
			c6.4,0,11.6-5.2,11.6-11.6V143.5c0-6.4-5.2-11.6-11.6-11.6h-37.6v-11.6h43.4c9.6,0,17.3,7.7,17.3,17.3v101.6
			c0,3.2,2.6,5.8,5.8,5.8c3.2,0,5.8-2.6,5.8-5.8V137.6C378.4,121.8,365.4,108.9,349.6,108.9z M343.8,397.7L343.8,397.7H164.8V143.5
			h43.4h92.3h43.4L343.8,397.7z M213.9,131.9v-13.4c0-2.3,1.8-4.2,4.2-4.2h13.4c2.6,0,4.9-1.7,5.6-4.2c2-7.5,8.9-12.7,16.7-12.7h1
			c7.8,0,14.7,5.2,16.7,12.7c0.7,2.5,3,4.2,5.6,4.2h13.4c2.3,0,4.2,1.8,4.2,4.2v13.4H213.9z"/>
	</g>
</g>
</svg>
