<?xml version="1.0" encoding="utf-8"?>
<!-- Generator: Adobe Illustrator 23.0.0, SVG Export Plug-In . SVG Version: 6.00 Build 0)  -->
<svg version="1.1" id="Capa_1" xmlns="http://www.w3.org/2000/svg" xmlns:xlink="http://www.w3.org/1999/xlink" x="0px" y="0px"
	 viewBox="0 0 512 512" style="enable-background:new 0 0 512 512;" xml:space="preserve">
<style type="text/css">
	.st0{fill:#6CBD99;}
	.st1{fill:#FBC672;}
	.st2{fill:#FFFFFF;}
</style>
<title>035 - Creative Thinking</title>
<desc>Created with Sketch.</desc>
<circle class="st0" cx="257.3" cy="258.2" r="251.8"/>
<g>
	<polygon class="st1" points="376.2,422.4 175,422.4 175,398.2 337.5,398.2 337.5,146.3 376.2,146.3 	"/>
	<rect x="139.2" y="119.3" class="st2" width="201.1" height="276.1"/>
	<g>
		<path d="M281,135.9"/>
		<path d="M318.5,112.8H207.7v-5.2c0-5.6-2.2-10.9-6.2-14.8c-4-3.9-9.3-6.1-14.9-6c-11.3,0.1-20.6,9.5-20.6,20.8v5.2h-16.4
			c-10,0-18.2,8.2-18.2,18.2v102.6c0,2.8,2.3,5,5,5c2.8,0,5-2.3,5-5V131c0-4.5,3.7-8.1,8.1-8.1h48v29.8c0,3.5-2.8,6.3-6.3,6.3
			c-3.5,0-6.3-2.8-6.3-6.3V142c0-2.8-2.3-5-5-5c-2.8,0-5,2.3-5,5v10.6c0,9,7.3,16.4,16.4,16.4c9,0,16.4-7.3,16.4-16.4v-29.8h105
			 M309.8,122.8h20c4.5,0,8.1,3.7,8.1,8.1v256.4c0,4.5-3.7,8.1-8.1,8.1H149.6c-4.5,0-8.1-3.7-8.1-8.1V253.7c0-2.8-2.3-5-5-5
			c-2.8,0-5,2.3-5,5v133.6c0,10,8.2,18.2,18.2,18.2h17v5.9c0,10,8.2,18.2,18.2,18.2H365c10,0,18.2-8.2,18.2-18.2v-87.1
			c0-2.8-2.3-5-5-5s-5,2.3-5,5v87.1c0,4.5-3.7,8.1-8.1,8.1H184.8c-4.5,0-8.1-3.7-8.1-8.1v-5.9h153.2c10,0,18.2-8.2,18.2-18.2V146.9
			h17c4.5,0,8.1,3.7,8.1,8.1v149.1c0,2.8,2.3,5,5,5h0c2.8,0,5-2.3,5-5V155.1c0-10-8.2-18.2-18.2-18.2h-17V131
			c0-10-8.2-18.2-18.2-18.2H304 M239.5,148.4 M176.1,112.8v-5.2c0-5.9,4.8-10.7,10.6-10.8c2.9,0,5.6,1.1,7.7,3.1
			c2.1,2,3.2,4.8,3.2,7.7v5.2H176.1z"/>
		<path d="M180,194.3h47.2c2.8,0,5-2.3,5-5s-2.3-5-5-5H180c-2.8,0-5,2.3-5,5S177.2,194.3,180,194.3z"/>
		<path d="M180,224.3h118.1c2.8,0,5-2.3,5-5c0-2.8-2.3-5-5-5H180c-2.8,0-5,2.3-5,5C175,222.1,177.2,224.3,180,224.3z"/>
		<path d="M180,254.3h118.1c2.8,0,5-2.3,5-5c0-2.8-2.3-5-5-5H180c-2.8,0-5,2.3-5,5C175,252.1,177.2,254.3,180,254.3z"/>
		<path d="M180,284.3h118.1c2.8,0,5-2.3,5-5c0-2.8-2.3-5-5-5H180c-2.8,0-5,2.3-5,5C175,282.1,177.2,284.3,180,284.3z"/>
		<path d="M180,314.4h118.1c2.8,0,5-2.3,5-5c0-2.8-2.3-5-5-5H180c-2.8,0-5,2.3-5,5C175,312.1,177.2,314.4,180,314.4z"/>
		<path d="M180,344.4h118.1c2.8,0,5-2.3,5-5s-2.3-5-5-5H180c-2.8,0-5,2.3-5,5S177.2,344.4,180,344.4z"/>
		<path d="M298.1,364.3H266c-2.8,0-5,2.3-5,5s2.3,5,5,5h32.1c2.8,0,5-2.3,5-5S300.9,364.3,298.1,364.3z"/>
	</g>
	<path d="M238.9,373.8c-1.4,0-2.9-0.6-3.9-1.6c-1-1-1.6-2.4-1.6-3.9c0-1.4,0.6-2.9,1.6-3.9c1-1,2.4-1.6,3.9-1.6s2.9,0.6,3.9,1.6
		c1,1,1.6,2.4,1.6,3.9c0,1.5-0.6,2.9-1.6,3.9C241.8,373.2,240.4,373.8,238.9,373.8z"/>
	<path d="M256.7,196.3c1-1,1.6-2.4,1.6-3.9c0-1.4-0.6-2.9-1.6-3.9c-1-1-2.4-1.6-3.9-1.6c-1.4,0-2.9,0.6-3.9,1.6
		c-1,1-1.6,2.4-1.6,3.9c0,1.4,0.6,2.9,1.6,3.9c1,1,2.4,1.6,3.9,1.6C254.2,197.9,255.7,197.3,256.7,196.3z"/>
</g>
</svg>
