<svg version="1.1" viewBox="0.0 0.0 100.0 100.0" fill="none" stroke="none" stroke-linecap="square" stroke-miterlimit="10" xmlns:xlink="http://www.w3.org/1999/xlink" xmlns="http://www.w3.org/2000/svg"><clipPath id="p.0"><path d="m0 0l100.0 0l0 100.0l-100.0 0l0 -100.0z" clip-rule="nonzero"/></clipPath><g clip-path="url(#p.0)"><path fill="#000000" fill-opacity="0.0" d="m0 0l100.0 0l0 100.0l-100.0 0z" fill-rule="evenodd"/><path fill="#ffffff" d="m13.272967 22.78577l65.07274 0l0 50.206966c-32.534615 0 -32.534615 19.3171 -65.07274 9.658554zm5.3611956 0l0 -6.5090237l64.6283 0l0 50.52192c-2.456627 0 -4.9167633 0.34994507 -4.9167633 0.34994507l0 -44.362843zm5.0392456 -6.5090237l0 -6.351548l65.18822 0l0 50.364445c-2.7995758 0 -5.5991592 0.26246262 -5.5991592 0.26246262l0 -44.27536z" fill-rule="evenodd"/><path fill="#000000" fill-opacity="0.0" d="m13.272967 22.78577l65.07274 0l0 50.206966c-32.534615 0 -32.534615 19.3171 -65.07274 9.658554zm5.3611956 0l0 -6.5090237l64.6283 0l0 50.52192c-2.456627 0 -4.9167633 0.34994507 -4.9167633 0.34994507m-54.672295 -50.871864l0 -6.351548l65.18822 0l0 50.364445c-2.7995758 0 -5.5991592 0.26246262 -5.5991592 0.26246262" fill-rule="evenodd"/><path fill="#000000" fill-opacity="0.0" d="m13.272967 82.65129c32.53812 9.658546 32.53812 -9.658554 65.07274 -9.658554l0 -5.844124c0 0 2.4601364 -0.34994507 4.9167633 -0.34994507l0 -6.246563c0 0 2.7995834 -0.26246262 5.5991592 -0.26246262l0 -50.364445l-65.18822 0l0 6.351548l-5.0392456 0l0 6.5090237l-5.3611956 0z" fill-rule="evenodd"/><path stroke="#000000" stroke-width="1.0" stroke-linejoin="round" stroke-linecap="butt" d="m13.272967 22.78577l65.07274 0l0 50.206966c-32.534615 0 -32.534615 19.3171 -65.07274 9.658554zm5.3611956 0l0 -6.5090237l64.6283 0l0 50.52192c-2.456627 0 -4.9167633 0.34994507 -4.9167633 0.34994507m-54.672295 -50.871864l0 -6.351548l65.18822 0l0 50.364445c-2.7995758 0 -5.5991592 0.26246262 -5.5991592 0.26246262" fill-rule="evenodd"/></g></svg>