<?xml version="1.0" encoding="utf-8"?>
<!-- Generator: Adobe Illustrator 23.0.0, SVG Export Plug-In . SVG Version: 6.00 Build 0)  -->
<svg version="1.1" id="Capa_1" xmlns="http://www.w3.org/2000/svg" xmlns:xlink="http://www.w3.org/1999/xlink" x="0px" y="0px"
	 viewBox="0 0 512 512" style="enable-background:new 0 0 512 512;" xml:space="preserve">
<style type="text/css">
	.st0{fill:#6CBD99;}
	.st1{fill:#FFFFFF;}
	.st2{fill:#A8DBF7;}
	.st3{fill:#EB6666;}
	.st4{fill-rule:evenodd;clip-rule:evenodd;}
</style>
<title>035 - Creative Thinking</title>
<desc>Created with Sketch.</desc>
<circle class="st0" cx="256.8" cy="257.2" r="251.8"/>
<g>
	<polygon class="st1" points="407.3,351.8 104.4,351.8 103.4,137.6 407.3,137.6 	"/>
	<rect x="220.5" y="346.1" class="st2" width="75.4" height="26.2"/>
	<polygon class="st3" points="227.3,188.7 229.1,266.6 295.5,227.1 	"/>
	<g>
		<path class="st4" d="M407.6,132.6H106.1c-3.4,0-6.1,2.7-6.1,6.1v206.7c0,3.4,2.7,6.1,6.1,6.1h106.7v18.1H180
			c-3.4,0-6.1,2.7-6.1,6.1c0,3.4,2.7,6.1,6.1,6.1h153.7c3.4,0,6.1-2.7,6.1-6.1c0-3.4-2.7-6.1-6.1-6.1h-32.8v-18.1h106.7
			c3.4,0,6.1-2.7,6.1-6.1v-78.8c0-3.4-2.7-6.1-6.1-6.1c-3.4,0-6.1,2.7-6.1,6.1v72.7H112.2V144.8h289.2v72.7c0,3.4,2.7,6.1,6.1,6.1
			c3.4,0,6.1-2.7,6.1-6.1v-78.8C413.7,135.3,411,132.6,407.6,132.6z M288.6,351.6v18.1H225v-18.1H288.6z"/>
		<path class="st4" d="M223.5,268c1.1,0,2.1-0.3,3.1-0.8l66.6-38.5c1.9-1.1,3.1-3.1,3.1-5.3c0-2.2-1.2-4.2-3.1-5.3l-66.6-38.5
			c-1.9-1.1-4.2-1.1-6.1,0c-1.9,1.1-3.1,3.1-3.1,5.3v76.9c0,2.2,1.2,4.2,3.1,5.3C221.4,267.8,222.5,268,223.5,268z M229.6,195.6
			l48.2,27.9l-48.2,27.9V195.6z"/>
		<path class="st4" d="M175,305c0,3.4,2.7,6.1,6.1,6.1H375c3.4,0,6.1-2.7,6.1-6.1c0-3.4-2.7-6.1-6.1-6.1H181.1
			C177.7,298.9,175,301.6,175,305z"/>
		<path class="st4" d="M130.9,288v34c0,3.4,2.7,6.1,6.1,6.1c3.4,0,6.1-2.7,6.1-6.1v-34c0-3.4-2.7-6.1-6.1-6.1
			C133.6,281.8,130.9,284.6,130.9,288z"/>
		<path class="st4" d="M152.9,288v34c0,3.4,2.7,6.1,6.1,6.1c3.4,0,6.1-2.7,6.1-6.1v-34c0-3.4-2.7-6.1-6.1-6.1
			C155.7,281.8,152.9,284.6,152.9,288z"/>
		<path class="st4" d="M407.6,235.9c-3.4,0-6.1,2.8-6.1,6.1c0,3.4,2.8,6.1,6.1,6.1c3.4,0,6.1-2.8,6.1-6.1
			C413.7,238.7,410.9,235.9,407.6,235.9z"/>
	</g>
</g>
</svg>
