<?xml version="1.0" encoding="UTF-8" standalone="no"?>
<!-- Generator: Adobe Illustrator 23.0.0, SVG Export Plug-In . SVG Version: 6.00 Build 0)  -->

<svg
   xmlns:dc="http://purl.org/dc/elements/1.1/"
   xmlns:cc="http://creativecommons.org/ns#"
   xmlns:rdf="http://www.w3.org/1999/02/22-rdf-syntax-ns#"
   xmlns:svg="http://www.w3.org/2000/svg"
   xmlns="http://www.w3.org/2000/svg"
   xmlns:sodipodi="http://sodipodi.sourceforge.net/DTD/sodipodi-0.dtd"
   xmlns:inkscape="http://www.inkscape.org/namespaces/inkscape"
   version="1.1"
   id="Layer_1"
   x="0px"
   y="0px"
   viewBox="0 0 262.2 471.0888"
   xml:space="preserve"
   sodipodi:docname="volver.svg"
   width="69.373749mm"
   height="124.64224mm"
   inkscape:version="0.92.3 (2405546, 2018-03-11)"><metadata
   id="metadata17"><rdf:RDF><cc:Work
       rdf:about=""><dc:format>image/svg+xml</dc:format><dc:type
         rdf:resource="http://purl.org/dc/dcmitype/StillImage" /><dc:title></dc:title></cc:Work></rdf:RDF></metadata><defs
   id="defs15" /><sodipodi:namedview
   pagecolor="#ffffff"
   bordercolor="#666666"
   borderopacity="1"
   objecttolerance="10"
   gridtolerance="10"
   guidetolerance="10"
   inkscape:pageopacity="0"
   inkscape:pageshadow="2"
   inkscape:window-width="1920"
   inkscape:window-height="1018"
   id="namedview13"
   showgrid="false"
   units="mm"
   fit-margin-top="0"
   fit-margin-left="0"
   fit-margin-right="0"
   fit-margin-bottom="0"
   inkscape:zoom="0.4609375"
   inkscape:cx="296.18305"
   inkscape:cy="235.05719"
   inkscape:window-x="-8"
   inkscape:window-y="-8"
   inkscape:window-maximized="1"
   inkscape:current-layer="Layer_1" />
<style
   type="text/css"
   id="style2">
	.st0{fill:#FFFFFF;}
</style>
<g
   id="g10"
   transform="translate(-74.8,-19.968377)">
	<path
   class="st0"
   d="M 331,49.8 C 331,36.7 323.5,26 310.3,26 303.9,26 298,28.5 293.5,33 L 89.9,236.7 c -4.5,4.5 -7,10.5 -7,16.8 0,6.3 2.5,12.3 7,16.8 L 293.5,474 c 4.5,4.5 10.5,7 16.8,7 13.1,0 20.7,-10.7 20.7,-23.8 V 306.5 c 0,-8.6 0,-256.7 0,-256.7 z"
   id="path4"
   inkscape:connector-curvature="0"
   style="fill:#ffffff" />
	<g
   id="g8">
		<path
   d="m 321.1,462.4 c 0,6.3 -4.6,11.9 -10.9,12.6 -3.8,0.4 -7.4,-0.9 -10,-3.5 L 94.2,263.9 c -2.8,-2.8 -3.2,-6.2 -3.4,-10.2 -0.2,-3.4 1.6,-7.2 3.4,-9 L 300,39.7 c 2,-2 4.5,-3.3 7.2,-3.7 7.5,-1 13.9,4.9 13.9,12.1 0,0 0,234.2 0,253.9 0,4.2 3.4,7.7 7.7,7.7 v 0 c 4.5,0 8.1,-3.6 8.2,-8.1 0,-20 0,-253.5 0,-253.5 0,-16.4 -14.2,-29.6 -31,-28 -5.2,0.5 -10.2,2.6 -14.4,5.8 -0.6,0.4 -1.1,0.9 -1.5,1.5 L 83,235.4 c -5.3,5.3 -8.2,10.8 -8.2,18.3 0,7.5 2.9,16.1 8.2,21.5 l 206,207.6 c 6,6 14.3,9 23,8.1 14.4,-1.5 25,-14.1 25,-28.6 V 348.7 c 0,-4.3 -3.4,-7.7 -7.7,-7.7 v 0 c -4.5,0 -8.2,3.7 -8.2,8.2 z"
   id="path6"
   inkscape:connector-curvature="0" />
	</g>
</g>
</svg>