<?xml version="1.0" encoding="utf-8"?>
<!-- Generator: Adobe Illustrator 23.0.0, SVG Export Plug-In . SVG Version: 6.00 Build 0)  -->
<svg version="1.1" id="Layer_1" xmlns="http://www.w3.org/2000/svg" xmlns:xlink="http://www.w3.org/1999/xlink" x="0px" y="0px"
	 viewBox="0 0 512 512" style="enable-background:new 0 0 512 512;" xml:space="preserve">
<style type="text/css">
	.st0{fill:#FFFFFF;}
</style>
<g>
	<path class="st0" d="M331,49.8c0-13.1-7.5-23.8-20.7-23.8c-6.4,0-12.3,2.5-16.8,7L89.9,236.7c-4.5,4.5-7,10.5-7,16.8
		s2.5,12.3,7,16.8L293.5,474c4.5,4.5,10.5,7,16.8,7c13.1,0,20.7-10.7,20.7-23.8V306.5C331,297.9,331,49.8,331,49.8z"/>
	<g>
		<path d="M321.1,462.4c0,6.3-4.6,11.9-10.9,12.6c-3.8,0.4-7.4-0.9-10-3.5l-206-207.6c-2.8-2.8-3.2-6.2-3.4-10.2
			c-0.2-3.4,1.6-7.2,3.4-9L300,39.7c2-2,4.5-3.3,7.2-3.7c7.5-1,13.9,4.9,13.9,12.1c0,0,0,234.2,0,253.9c0,4.2,3.4,7.7,7.7,7.7h0
			c4.5,0,8.1-3.6,8.2-8.1c0-20,0-253.5,0-253.5c0-16.4-14.2-29.6-31-28c-5.2,0.5-10.2,2.6-14.4,5.8c-0.6,0.4-1.1,0.9-1.5,1.5
			L83,235.4c-5.3,5.3-8.2,10.8-8.2,18.3s2.9,16.1,8.2,21.5l206,207.6c6,6,14.3,9,23,8.1c14.4-1.5,25-14.1,25-28.6V348.7
			c0-4.3-3.4-7.7-7.7-7.7l0,0c-4.5,0-8.2,3.7-8.2,8.2L321.1,462.4z"/>
	</g>
</g>
</svg>
