<svg version="1.1" viewBox="0.0 0.0 100.0 100.0" fill="none" stroke="none" stroke-linecap="square" stroke-miterlimit="10" xmlns:xlink="http://www.w3.org/1999/xlink" xmlns="http://www.w3.org/2000/svg"><clipPath id="p.0"><path d="m0 0l100.0 0l0 100.0l-100.0 0l0 -100.0z" clip-rule="nonzero"/></clipPath><g clip-path="url(#p.0)"><path fill="#000000" fill-opacity="0.0" d="m0 0l100.0 0l0 100.0l-100.0 0z" fill-rule="evenodd"/><path fill="#000000" fill-opacity="0.0" d="m48.682415 11.249344l0.15747833 79.74803" fill-rule="evenodd"/><path stroke="#000000" stroke-width="1.0" stroke-linejoin="round" stroke-linecap="butt" d="m48.682415 11.249344l0.15747833 79.74803" fill-rule="evenodd"/><path fill="#000000" fill-opacity="0.0" d="m13.7979 48.304462l71.77953 0" fill-rule="evenodd"/><path stroke="#000000" stroke-width="1.0" stroke-linejoin="round" stroke-linecap="butt" d="m13.7979 48.304462l71.77953 0" fill-rule="evenodd"/><path fill="#000000" fill-opacity="0.0" d="m77.9895 33.412075l34.740158 0l0 27.370079l-34.740158 0z" fill-rule="evenodd"/><path fill="#000000" d="m87.03638 51.372074l2.578125 -3.484375l-2.28125 -3.1875l1.046875 0l1.21875 1.703125q0.375 0.53125 0.53125 0.828125q0.234375 -0.375 0.53125 -0.765625l1.34375 -1.765625l0.96875 0l-2.34375 3.140625l2.515625 3.53125l-1.09375 0l-1.671875 -2.375q-0.140625 -0.21875 -0.296875 -0.453125q-0.21875 0.359375 -0.3125 0.5l-1.671875 2.328125l-1.0625 0zm8.5186615 -1.078125l0 -1.828125l-1.828125 0l0 -0.765625l1.828125 0l0 -1.828125l0.765625 0l0 1.828125l1.8125 0l0 0.765625l-1.8125 0l0 1.828125l-0.765625 0z" fill-rule="nonzero"/><path fill="#000000" fill-opacity="0.0" d="m-7.7165356 32.48294l34.740158 0l0 27.370079l-34.740158 0z" fill-rule="evenodd"/><path fill="#000000" d="m1.3303396 50.44294l2.578125 -3.484375l-2.28125 -3.1875l1.0468751 0l1.21875 1.703125q0.37499976 0.53125 0.53124976 0.828125q0.234375 -0.375 0.53125 -0.765625l1.34375 -1.765625l0.96875 0l-2.34375 3.140625l2.515625 3.53125l-1.09375 0l-1.671875 -2.375q-0.140625 -0.21875 -0.296875 -0.453125q-0.21875 0.359375 -0.3125 0.5l-1.6718748 2.328125l-1.0625001 0zm6.4717865 -2.0l0 -0.828125l2.515625 0l0 0.828125l-2.515625 0z" fill-rule="nonzero"/><path fill="#000000" fill-opacity="0.0" d="m33.46982 80.59055l34.740158 0l0 27.370079l-34.740158 0z" fill-rule="evenodd"/><path fill="#000000" d="m45.06357 98.55055l0 -2.828125l-2.5625 -3.84375l1.078125 0l1.3125 2.0q0.359375 0.578125 0.671875 1.140625q0.296875 -0.53125 0.734375 -1.1875l1.296875 -1.953125l1.03125 0l-2.671875 3.84375l0 2.828125l-0.890625 0zm6.347946 -2.0l0 -0.828125l2.515625 0l0 0.828125l-2.515625 0z" fill-rule="nonzero"/><path fill="#000000" fill-opacity="0.0" d="m53.89501 11.937008l34.740158 0l0 27.370079l-34.740158 0z" fill-rule="evenodd"/><path fill="#000000" d="m68.34814 35.017006l-1.28125 0l0 -8.203123q-0.46875 0.4375 -1.21875 0.890625q-0.75 0.4375 -1.359375 0.65625l0 -1.25q1.078125 -0.5 1.890625 -1.21875q0.8125 -0.734375 1.140625 -1.40625l0.828125 0l0 10.531248z" fill-rule="nonzero"/><path fill="#000000" fill-opacity="0.0" d="m32.62992 -8.301837l34.740158 0l0 27.370079l-34.740158 0z" fill-rule="evenodd"/><path fill="#000000" d="m44.22367 9.658162l0 -2.8281255l-2.5625 -3.8437498l1.078125 0l1.3125 1.9999998q0.359375 0.578125 0.671875 1.140625q0.296875 -0.53125 0.734375 -1.1875l1.296875 -1.9531248l1.03125 0l-2.671875 3.8437498l0 2.8281255l-0.890625 0zm5.9717865 -1.078125l0 -1.8281255l-1.828125 0l0 -0.765625l1.828125 0l0 -1.828125l0.765625 0l0 1.828125l1.8125 0l0 0.765625l-1.8125 0l0 1.8281255l-0.765625 0z" fill-rule="nonzero"/><path fill="#000000" fill-opacity="0.0" d="m15.349081 11.937008l34.740158 0l0 27.370079l-34.740158 0z" fill-rule="evenodd"/><path fill="#000000" d="m31.724081 33.78263l0 1.234375l-6.9375 0q-0.015625 -0.46875 0.15625 -0.890625q0.265625 -0.71875 0.84375 -1.40625q0.59375 -0.6875 1.6875 -1.5781231q1.71875 -1.40625 2.3125 -2.21875q0.609375 -0.828125 0.609375 -1.5625q0 -0.765625 -0.5625 -1.28125q-0.546875 -0.53125 -1.421875 -0.53125q-0.921875 0 -1.484375 0.5625q-0.5625 0.5625 -0.5625 1.546875l-1.328125 -0.140625q0.140625 -1.484375 1.015625 -2.25q0.890625 -0.78125 2.390625 -0.78125q1.515625 0 2.390625 0.84375q0.875 0.828125 0.875 2.0625q0 0.640625 -0.265625 1.25q-0.25 0.59375 -0.84375 1.265625q-0.59375 0.671875 -1.984375 1.859375q-1.15625 0.9687481 -1.484375 1.3124981q-0.328125 0.34375 -0.546875 0.703125l5.140625 0z" fill-rule="nonzero"/><path fill="#000000" fill-opacity="0.0" d="m15.349081 53.220474l34.740158 0l0 27.370079l-34.740158 0z" fill-rule="evenodd"/><path fill="#000000" d="m24.958456 73.53485l1.296875 -0.171875q0.21875 1.09375 0.75 1.578125q0.53125 0.484375 1.296875 0.484375q0.90625 0 1.53125 -0.625q0.640625 -0.640625 0.640625 -1.5625q0 -0.890625 -0.59375 -1.46875q-0.578125 -0.578125 -1.46875 -0.578125q-0.359375 0 -0.90625 0.140625l0.140625 -1.125q0.125 0.015625 0.203125 0.015625q0.828125 0 1.484375 -0.421875q0.65625 -0.4375 0.65625 -1.34375q0 -0.703125 -0.484375 -1.15625q-0.46875 -0.46875 -1.234375 -0.46875q-0.75 0 -1.25 0.46875q-0.5 0.46875 -0.640625 1.421875l-1.28125 -0.234375q0.234375 -1.296875 1.0625 -2.0q0.84375 -0.71875 2.09375 -0.71875q0.859375 0 1.578125 0.375q0.71875 0.359375 1.09375 1.0q0.390625 0.640625 0.390625 1.34375q0 0.6875 -0.375 1.25q-0.359375 0.546875 -1.0625 0.875q0.921875 0.21875 1.4375 0.90625q0.515625 0.671875 0.515625 1.6875q0 1.375 -1.0 2.328125q-1.0 0.953125 -2.53125 0.953125q-1.390625 0 -2.296875 -0.8125q-0.90625 -0.828125 -1.046875 -2.140625z" fill-rule="nonzero"/><path fill="#000000" fill-opacity="0.0" d="m53.89501 53.220474l34.740158 0l0 27.370079l-34.740158 0z" fill-rule="evenodd"/><path fill="#000000" d="m67.62939 76.300476l0 -2.515625l-4.546875 0l0 -1.171875l4.78125 -6.796875l1.0625 0l0 6.796875l1.40625 0l0 1.171875l-1.40625 0l0 2.515625l-1.296875 0zm0 -3.6875l0 -4.734375l-3.28125 4.734375l3.28125 0z" fill-rule="nonzero"/></g></svg>